<svg xmlns="http://www.w3.org/2000/svg" width="22" height="22" viewBox="0 0 22 22" fill="none">
    <path
        d="M11 2C9.76056 2 8.59155 2.23239 7.49296 2.69718C6.39436 3.16197 5.43662 3.80985 4.61972 4.64085C3.80281 5.47184 3.16197 6.42957 2.69718 7.51408C2.23239 8.5986 2 9.76056 2 11C2 12.2394 2.23239 13.4014 2.69718 14.4859C3.16197 15.5704 3.80281 16.5282 4.61972 17.3592C5.43662 18.1901 6.39436 18.838 7.49296 19.3028C8.59155 19.7676 9.76056 20 11 20C12.2394 20 13.4014 19.7676 14.4859 19.3028C15.5704 18.838 16.5282 18.1901 17.3592 17.3592C18.1901 16.5282 18.838 15.5704 19.3028 14.4859C19.7676 13.4014 20 12.2394 20 11C20 9.76056 19.7676 8.5986 19.3028 7.51408C18.838 6.42957 18.1901 5.47184 17.3592 4.64085C16.5282 3.80985 15.5704 3.16197 14.4859 2.69718C13.4014 2.23239 12.2394 2 11 2ZM13.9577 15.2254L10.1127 11.3803V6.47887H11.8873V10.6197L15.2254 13.9577L13.9577 15.2254Z"
        fill="#00B4DD" />
</svg>