<svg xmlns="http://www.w3.org/2000/svg" width="22" height="22" viewBox="0 0 22 22" fill="none">
    <path
        d="M18.2254 7.6338V5.8169L11 10.338L3.77465 5.8169V7.6338L11 12.1127L18.2254 7.6338ZM18.2254 4C18.7042 4 19.1197 4.1831 19.4718 4.5493C19.8239 4.91549 20 5.33803 20 5.8169V16.6338C20 17.1127 19.8239 17.5352 19.4718 17.9014C19.1197 18.2676 18.7042 18.4507 18.2254 18.4507H3.77465C3.29577 18.4507 2.88028 18.2676 2.52817 17.9014C2.17605 17.5352 2 17.1127 2 16.6338V5.8169C2 5.33803 2.17605 4.91549 2.52817 4.5493C2.88028 4.1831 3.29577 4 3.77465 4H18.2254Z"
        fill="#00B4DD" />
</svg>