<svg xmlns="http://www.w3.org/2000/svg" width="22" height="22" viewBox="0 0 22 22" fill="none">
    <path
        d="M11 0.458252C8.8041 0.460843 6.69886 1.33432 5.14611 2.88707C3.59336 4.43982 2.71988 6.54507 2.71729 8.74099C2.71527 10.5354 3.30138 12.281 4.38589 13.7106C4.38589 13.7106 4.61178 14.0081 4.64867 14.051L11 21.5416L17.3544 14.0472C17.3875 14.0073 17.6142 13.7106 17.6142 13.7106L17.6149 13.7084C18.6987 12.2793 19.2845 10.5345 19.2828 8.74099C19.2802 6.54507 18.4067 4.43982 16.8539 2.88707C15.3012 1.33432 13.196 0.460843 11 0.458252ZM11 11.7529C10.4043 11.7529 9.82201 11.5763 9.3267 11.2453C8.8314 10.9143 8.44535 10.444 8.21739 9.8936C7.98943 9.34324 7.92978 8.73765 8.046 8.1534C8.16221 7.56914 8.44907 7.03247 8.87029 6.61125C9.29151 6.19003 9.82818 5.90317 10.4124 5.78696C10.9967 5.67074 11.6023 5.73039 12.1526 5.95835C12.703 6.18632 13.1734 6.57236 13.5043 7.06767C13.8353 7.56297 14.0119 8.14529 14.0119 8.74099C14.0109 9.53949 13.6933 10.305 13.1287 10.8696C12.564 11.4343 11.7985 11.7519 11 11.7529Z"
        fill="#00B4DD" />
</svg>