<svg xmlns="http://www.w3.org/2000/svg" width="22" height="22" viewBox="0 0 22 22" fill="none">
    <path
        d="M13.2898 19.5503L8.0768 17.7233L3.54589 19.4772C3.3835 19.5421 3.22499 19.5626 3.07039 19.5386C2.91579 19.5145 2.77385 19.4616 2.64458 19.3797C2.51531 19.2979 2.41398 19.1884 2.34057 19.0514C2.26717 18.9143 2.23047 18.7558 2.23047 18.5759V4.91006C2.23047 4.69895 2.29153 4.51219 2.41365 4.34979C2.53578 4.18739 2.70207 4.06559 2.91254 3.9844L7.44345 2.44973C7.54089 2.41725 7.64255 2.39289 7.74843 2.37665C7.85432 2.36041 7.96377 2.35229 8.0768 2.35229C8.18983 2.35229 8.29961 2.36041 8.40614 2.37665C8.51268 2.39289 8.61401 2.41725 8.71015 2.44973L13.9231 4.27671L18.454 2.52281C18.6164 2.45785 18.7749 2.43772 18.9295 2.4624C19.0841 2.48709 19.2261 2.5397 19.3553 2.62025C19.4846 2.7008 19.5863 2.81058 19.6603 2.9496C19.7344 3.08861 19.7708 3.24678 19.7695 3.42412V17.0899C19.7695 17.301 19.7087 17.4878 19.5873 17.6502C19.4658 17.8126 19.2992 17.9344 19.0874 18.0156L14.5565 19.5503C14.459 19.5827 14.3577 19.6071 14.2525 19.6233C14.1472 19.6396 14.0375 19.6477 13.9231 19.6477C13.8088 19.6477 13.6993 19.6396 13.5948 19.6233C13.4902 19.6071 13.3885 19.5827 13.2898 19.5503ZM12.9487 17.3822V5.98189L9.05119 4.61775V16.0181L12.9487 17.3822Z"
        fill="#00B4DD" />
</svg>