<svg width="22" height="22" viewBox="0 0 22 22" fill="none" xmlns="http://www.w3.org/2000/svg">
<path d="M9.67467 5.72037L6.57319 2.14032C6.21564 1.72777 5.56014 1.7296 5.14484 2.14582L2.59434 4.7009C1.83524 5.46092 1.61796 6.58948 2.0571 7.49435C4.68059 12.9263 9.06139 17.3132 14.4896 19.9443C15.3936 20.3834 16.5212 20.1662 17.2803 19.4061L19.8547 16.8272C20.2718 16.4101 20.2727 15.7509 19.8565 15.3934L16.2627 12.3084C15.8868 11.9857 15.3028 12.0279 14.926 12.4056L13.6755 13.6579C13.6115 13.725 13.5272 13.7692 13.4357 13.7838C13.3441 13.7984 13.2502 13.7825 13.1685 13.7386C11.1245 12.5615 9.42897 10.8637 8.25457 8.81819C8.21059 8.73637 8.19467 8.64237 8.20924 8.55063C8.22381 8.45889 8.26808 8.37446 8.33525 8.31029L9.58208 7.06254C9.95979 6.68299 10.001 6.09625 9.67467 5.71945V5.72037Z" stroke="white" stroke-width="1.43917" stroke-linecap="round" stroke-linejoin="round"/>
</svg>
