<svg xmlns="http://www.w3.org/2000/svg" width="22" height="22" viewBox="0 0 22 22" fill="none">
    <path
        d="M19.6472 15.2469V18.6444C19.6473 18.8876 19.5552 19.1219 19.3893 19.2999C19.2235 19.4778 18.9963 19.5863 18.7537 19.6033C18.3341 19.6327 17.9914 19.6475 17.7256 19.6475C9.23487 19.6475 2.35254 12.7652 2.35254 4.27442C2.35254 4.00923 2.36727 3.66654 2.39674 3.24634C2.41376 3.00368 2.5222 2.77651 2.70017 2.61067C2.87813 2.44484 3.11237 2.35267 3.35563 2.35278H6.75308C6.87226 2.35266 6.98723 2.39685 7.07565 2.47675C7.16408 2.55665 7.21965 2.66657 7.23156 2.78515C7.25334 3.0055 7.27384 3.18229 7.29306 3.31552C7.48399 4.6481 7.8753 5.94416 8.45372 7.15975C8.545 7.35191 8.48543 7.58155 8.31248 7.70453L6.23904 9.18611C7.50704 12.1399 9.86105 14.4939 12.8149 15.7619L14.2945 13.6923C14.3548 13.6075 14.443 13.5466 14.5437 13.5204C14.6444 13.4942 14.7511 13.5044 14.8451 13.5492C16.0605 14.1265 17.3562 14.5168 18.6883 14.707C18.8216 14.7262 18.9977 14.7467 19.2168 14.7685C19.3352 14.7806 19.4449 14.8363 19.5246 14.9247C19.6043 15.0131 19.6474 15.1279 19.6472 15.2469Z"
        fill="#00B4DD" />
</svg>