<svg width="28" height="28" viewBox="0 0 28 28" fill="none" xmlns="http://www.w3.org/2000/svg">
<path d="M25 0C26.6569 1.28851e-07 28 1.34315 28 3V25C28 26.6569 26.6569 28 25 28H3C1.34315 28 1.61066e-08 26.6569 0 25V3C1.28853e-07 1.34315 1.34315 1.61064e-08 3 0H25ZM11.0312 8.41406C10.9129 8.40871 10.7949 8.4333 10.6904 8.48535C10.5859 8.53742 10.4986 8.61524 10.4375 8.70996C10.3764 8.80481 10.344 8.91375 10.3438 9.02441V18.9756C10.344 19.0862 10.3764 19.1952 10.4375 19.29C10.4985 19.3846 10.5861 19.4616 10.6904 19.5137C10.7949 19.5657 10.9129 19.5913 11.0312 19.5859C11.1497 19.5805 11.2646 19.5448 11.3633 19.4834L19.3623 14.5088C19.4519 14.453 19.5253 14.3776 19.5762 14.2891C19.6272 14.2002 19.6543 14.1008 19.6543 14C19.6543 13.8992 19.6272 13.7998 19.5762 13.7109C19.5252 13.6222 19.4521 13.546 19.3623 13.4902L11.3633 8.5166C11.2646 8.4552 11.1497 8.41949 11.0312 8.41406Z" fill="#00B4DD"/>
</svg>
