<svg width="20" height="20" viewBox="0 0 20 20" fill="none" xmlns="http://www.w3.org/2000/svg">
<path d="M9.07914 1C4.62682 1 1 4.62558 1 9.07641C1 13.5272 4.62682 17.1599 9.07914 17.1599C10.9809 17.1599 12.7299 16.4936 14.1122 15.3875L17.4775 18.7498C17.6473 18.9126 17.8741 19.0024 18.1094 19C18.3446 18.9975 18.5695 18.9032 18.736 18.737C18.9025 18.5708 18.9972 18.3461 18.9999 18.111C19.0027 17.8758 18.9132 17.6489 18.7506 17.4789L15.3853 14.1148C16.4928 12.7308 17.16 10.9797 17.16 9.07641C17.16 4.62558 13.5315 1 9.07914 1ZM9.07914 2.79517C12.561 2.79517 15.3625 5.59577 15.3625 9.07641C15.3625 12.557 12.561 15.3647 9.07914 15.3647C5.59732 15.3647 2.79575 12.557 2.79575 9.07641C2.79575 5.59577 5.59732 2.79517 9.07914 2.79517Z" fill="#334B59"/>
</svg>
