<svg xmlns="http://www.w3.org/2000/svg" width="22" height="22" viewBox="0 0 22 22" fill="none">
    <path
        d="M15.2 2.19995C15.9583 2.19995 16.6146 2.47703 17.1687 3.0312C17.7229 3.58537 18 4.24161 18 4.99995V15.15C18 15.9083 17.7229 16.5645 17.1687 17.1187C16.6146 17.6729 15.9583 17.95 15.2 17.95H6.8C6.04166 17.95 5.38542 17.6729 4.83125 17.1187C4.27708 16.5645 4 15.9083 4 15.15V4.99995C4 4.24161 4.27708 3.58537 4.83125 3.0312C5.38542 2.47703 6.04166 2.19995 6.8 2.19995H15.2ZM8.55 3.24995C8.31667 3.24995 8.2 3.36662 8.2 3.59995C8.2 3.83329 8.31667 3.94995 8.55 3.94995H13.45C13.6833 3.94995 13.8 3.83329 13.8 3.59995C13.8 3.36662 13.6833 3.24995 13.45 3.24995H8.55ZM6.275 16.2C6.50833 16.4333 6.8 16.55 7.15 16.55C7.5 16.55 7.79167 16.4333 8.025 16.2C8.25833 15.9666 8.375 15.675 8.375 15.325C8.375 14.9749 8.25833 14.6833 8.025 14.45C7.79167 14.2166 7.5 14.1 7.15 14.1C6.8 14.1 6.50833 14.2166 6.275 14.45C6.04167 14.6833 5.925 14.9749 5.925 15.325C5.925 15.675 6.04167 15.9666 6.275 16.2ZM13.975 16.2C14.2083 16.4333 14.5 16.55 14.85 16.55C15.2 16.55 15.4917 16.4333 15.725 16.2C15.9583 15.9666 16.075 15.675 16.075 15.325C16.075 14.9749 15.9583 14.6833 15.725 14.45C15.4917 14.2166 15.2 14.1 14.85 14.1C14.5 14.1 14.2083 14.2166 13.975 14.45C13.7417 14.6833 13.625 14.9749 13.625 15.325C13.625 15.675 13.7417 15.9666 13.975 16.2ZM16.6 9.89995V5.69995C16.6 5.23328 16.3667 4.99995 15.9 4.99995H6.1C5.63333 4.99995 5.4 5.23328 5.4 5.69995V9.89995C5.4 10.3666 5.63333 10.6 6.1 10.6H15.9C16.3667 10.6 16.6 10.3666 16.6 9.89995ZM17.0375 20.75C17.3583 21.0125 17.3583 21.3041 17.0375 21.625C16.9208 21.7416 16.775 21.8 16.6 21.8C16.425 21.8 16.2792 21.7416 16.1625 21.625L15.55 21.0125H6.45L5.8375 21.625C5.72083 21.7416 5.575 21.8 5.4 21.8C5.225 21.8 5.07917 21.7416 4.9625 21.625C4.67083 21.2749 4.67083 20.9833 4.9625 20.75L7.15 18.65C7.5 18.3583 7.79167 18.3583 8.025 18.65C8.31667 19 8.31667 19.2916 8.025 19.525L7.7625 19.7875H14.2375L13.975 19.525C13.6833 19.2916 13.6833 19 13.975 18.65C14.2083 18.3583 14.5 18.3583 14.85 18.65L17.0375 20.75Z"
        fill="#00B4DD" />
</svg>