<svg width="27" height="27" viewBox="0 0 27 27" fill="none" xmlns="http://www.w3.org/2000/svg">
<path d="M17.4307 0H9.25067C1.776 0 0 1.77733 0 9.236V17.4173C0 24.8893 1.764 26.6667 9.236 26.6667H17.4173C24.8893 26.6667 26.6667 24.9027 26.6667 17.4307V9.25067C26.6667 1.776 24.9027 0 17.4307 0ZM21.528 19.0267H19.5827C18.8467 19.0267 18.6253 18.4307 17.3053 17.1107C16.1533 16 15.6667 15.8613 15.3747 15.8613C14.972 15.8613 14.8613 15.972 14.8613 16.528V18.2773C14.8613 18.7507 14.708 19.028 13.472 19.028C12.2727 18.9465 11.1098 18.5817 10.0788 17.9636C9.04784 17.3454 8.17821 16.4915 7.54133 15.472C6.0298 13.5927 4.9787 11.3859 4.472 9.028C4.472 8.736 4.58267 8.472 5.13867 8.472H7.084C7.584 8.472 7.764 8.69467 7.95867 9.208C8.90267 11.9867 10.5133 14.4027 11.1667 14.4027C11.4173 14.4027 11.5267 14.292 11.5267 13.6667V10.8053C11.444 9.5 10.7507 9.38933 10.7507 8.91733C10.7596 8.79284 10.8166 8.67671 10.9097 8.59357C11.0028 8.51043 11.1246 8.46683 11.2493 8.472H14.3053C14.7227 8.472 14.8613 8.68 14.8613 9.18V13.0413C14.8613 13.4587 15.0413 13.5973 15.1667 13.5973C15.4173 13.5973 15.6107 13.4587 16.0693 13C17.0545 11.7986 17.8594 10.4601 18.4587 9.02667C18.5203 8.85474 18.6363 8.70758 18.7891 8.60749C18.9419 8.5074 19.1231 8.45984 19.3053 8.472H21.2507C21.8333 8.472 21.9573 8.764 21.8333 9.18C21.126 10.7646 20.2508 12.2688 19.2227 13.6667C19.0133 13.9867 18.9293 14.1533 19.2227 14.528C19.416 14.82 20.0973 15.3893 20.556 15.9307C21.2223 16.5957 21.7758 17.3649 22.1947 18.208C22.3613 18.7493 22.0827 19.0267 21.528 19.0267Z" fill="#00B4DD"/>
</svg>
