<svg width="42" height="42" viewBox="0 0 42 42" fill="none" xmlns="http://www.w3.org/2000/svg">
<g clip-path="url(#clip0_2001_1616)">
<path d="M41.0811 7.37354H0V33.7076H41.0811V7.37354Z" fill="white"/>
<path d="M36.3413 20.5409C36.3413 25.7621 32.1094 29.9948 26.8884 29.9948C21.668 29.9948 17.4355 25.7623 17.4355 20.5409C17.4355 15.3193 21.6679 11.0864 26.8884 11.0864C32.1096 11.0864 36.3413 15.3192 36.3413 20.5409Z" fill="#D9222A"/>
<path d="M19.5858 26.5441C19.324 26.2266 19.0835 25.8922 18.8657 25.5429H22.2159C22.4176 25.2205 22.5995 24.8861 22.7607 24.5416H18.3212C18.1688 24.2159 18.0352 23.8819 17.9211 23.5409H23.1603C23.4756 22.5979 23.6464 21.5895 23.6464 20.5408C23.6464 19.8537 23.5731 19.1839 23.4341 18.5387H17.648C17.7209 18.2002 17.8125 17.866 17.9223 17.5375H23.1597C23.0454 17.1967 22.9119 16.8625 22.7598 16.5367H18.3223C18.4837 16.1924 18.6655 15.8581 18.8668 15.5356H22.2149C21.9967 15.1869 21.7562 14.8529 21.495 14.5353H19.587C19.8804 14.1791 20.1992 13.8447 20.5409 13.5346C18.8632 12.0134 16.6363 11.0864 14.1934 11.0864C8.97245 11.0865 4.73999 15.3193 4.73999 20.5409C4.73999 25.7621 8.97229 29.9948 14.1934 29.9948C16.6365 29.9948 18.8633 29.068 20.5409 27.547C20.8833 27.2365 21.2025 26.9013 21.496 26.5444H19.5858" fill="#0097D0"/>
<path d="M35.0811 25.8094C35.0811 25.6409 35.2178 25.5042 35.3865 25.5042C35.5551 25.5042 35.6916 25.6409 35.6916 25.8094C35.6916 25.9782 35.5551 26.1149 35.3865 26.1149C35.2178 26.1149 35.0811 25.9782 35.0811 25.8095V25.8094ZM35.3865 26.0416C35.5146 26.0416 35.6184 25.9379 35.6185 25.81V25.8094C35.6185 25.6815 35.5148 25.5779 35.3869 25.5779H35.3865C35.2585 25.5776 35.1546 25.6812 35.1544 25.8092V25.8094C35.1543 25.9376 35.2581 26.0415 35.3862 26.0416H35.3865ZM35.3451 25.9435H35.2827V25.6753H35.3959C35.4194 25.6753 35.4435 25.6755 35.4644 25.6889C35.4864 25.7039 35.4984 25.7297 35.4984 25.7559C35.4984 25.7865 35.4806 25.8145 35.452 25.8252L35.5012 25.9435H35.432L35.3912 25.8376H35.3451V25.9435ZM35.3451 25.7918H35.3797C35.3927 25.7918 35.4063 25.7927 35.4179 25.7865C35.4282 25.7797 35.4338 25.7673 35.4338 25.7554C35.4332 25.7445 35.4277 25.7345 35.4186 25.7284C35.4074 25.7218 35.3901 25.7231 35.3784 25.7231H35.3451V25.7918ZM20.4063 23.095C20.0023 23.2021 19.6117 23.2543 19.1986 23.2535C17.881 23.2522 17.1948 22.6522 17.1948 21.5049C17.1948 20.164 18.0684 19.1778 19.2542 19.1778C20.2241 19.1778 20.8435 19.7308 20.8435 20.597C20.8435 20.8845 20.8015 21.1643 20.6988 21.5606H18.3557C18.2724 22.1206 18.6816 22.3667 19.3782 22.3667C19.7956 22.3667 20.173 22.2916 20.5909 22.1238L20.4063 23.095ZM19.7762 20.7697C19.7762 20.685 19.9066 20.0833 19.2285 20.0701C18.8541 20.0701 18.5855 20.319 18.4769 20.7697H19.7762ZM21.2001 20.5068C21.2001 21.0021 21.479 21.3443 22.1128 21.599C22.5973 21.7976 22.6737 21.8548 22.6737 22.032C22.6737 22.2775 22.4595 22.3904 21.9841 22.3873C21.6271 22.3847 21.3015 22.3414 20.9169 22.2347L20.7469 23.1382C21.0886 23.2174 21.5679 23.2435 21.9924 23.2534C23.2578 23.2534 23.842 22.8391 23.842 21.9437C23.842 21.4056 23.5984 21.0888 22.9976 20.8528C22.4952 20.6522 22.4362 20.6086 22.4362 20.4271C22.4362 20.2138 22.6352 20.1058 23.0234 20.1058C23.2584 20.1058 23.5806 20.1275 23.8861 20.1641L24.0577 19.2561C23.7464 19.2126 23.2738 19.1779 23.0004 19.1779C21.66 19.178 21.1961 19.7816 21.2001 20.5068ZM16.5525 23.1887H15.5696L15.5931 22.7768C15.2933 23.1018 14.8942 23.253 14.3523 23.253C13.7111 23.253 13.2717 22.8146 13.2717 22.1841C13.2717 21.2258 14.0354 20.673 15.3484 20.673C15.4834 20.673 15.655 20.683 15.8312 20.7026C15.8676 20.5745 15.8775 20.5194 15.8775 20.4494C15.8775 20.1871 15.671 20.0906 15.1184 20.0906C14.5737 20.0928 14.2062 20.1733 13.8651 20.265L14.033 19.3855C14.6227 19.2355 15.0089 19.1779 15.4458 19.1779C16.4626 19.1779 16.9995 19.5764 16.9995 20.3258C17.0083 20.5258 16.9385 20.9269 16.9037 21.1025C16.8637 21.3581 16.5819 22.8391 16.5525 23.1887ZM15.6898 21.4406C15.5652 21.4279 15.511 21.4242 15.4259 21.4242C14.7555 21.4242 14.4155 21.6236 14.4155 22.0176C14.4155 22.2647 14.5814 22.4196 14.8399 22.4196C15.3216 22.4196 15.6695 22.0166 15.6898 21.4406ZM25.9132 23.1266C25.5906 23.2151 25.3394 23.2535 25.0675 23.2535C24.4653 23.2535 24.1366 22.9457 24.1366 22.3976C24.1177 22.2471 24.2647 21.5518 24.2981 21.3581C24.3314 21.1636 24.853 18.3301 24.853 18.3301H26.0229L25.8458 19.2676H26.4459L26.2828 20.2246H25.6802C25.6802 20.2246 25.3495 21.8852 25.3495 22.0118C25.3495 22.2133 25.4715 22.3008 25.7515 22.3008C25.8856 22.3008 25.989 22.2883 26.0691 22.2644L25.9132 23.1266ZM31.1403 19.1778C30.2829 19.1778 29.6129 19.5307 29.2239 20.1202L29.5616 19.2461C28.9392 19.0177 28.538 19.3436 28.1751 19.807C28.1751 19.807 28.1143 19.884 28.054 19.9545V19.2671H26.9554C26.8066 20.4801 26.5435 21.7099 26.3376 22.9247L26.2881 23.1891H27.4698C27.5818 22.5725 27.6739 22.0719 27.7657 21.673C28.0168 20.5782 28.4392 20.2435 29.0734 20.3914C28.927 20.7063 28.8467 21.0704 28.8467 21.4739C28.8467 22.4525 29.3782 23.2535 30.6979 23.2535C32.0298 23.2535 32.9941 22.542 32.9941 20.9198C32.994 19.9413 32.3515 19.1778 31.1403 19.1778ZM30.7964 22.3019C30.3791 22.3085 30.126 21.9583 30.126 21.4345C30.126 20.8134 30.4953 20.1118 31.0885 20.1118C31.5671 20.1118 31.731 20.4912 31.731 20.8955C31.7311 21.7792 31.369 22.3019 30.7964 22.3019ZM12.7213 23.1892H11.5445L12.2439 19.5048L10.6338 23.1892H9.56112L9.36493 19.5261L8.66339 23.1892H7.5957L8.50512 18.3966H10.3439L10.4973 21.0682L11.6622 18.3966H13.6488L12.7213 23.1892Z" fill="white"/>
<path d="M33.0836 22.5882C33.0837 22.4198 33.2203 22.2831 33.3888 22.283C33.5576 22.283 33.6941 22.42 33.6941 22.5882C33.6944 22.7568 33.558 22.8938 33.3894 22.8941C33.2208 22.8944 33.0839 22.758 33.0836 22.5894V22.5882ZM33.3888 22.8207C33.5171 22.8205 33.621 22.7165 33.621 22.5882C33.6209 22.46 33.5169 22.3563 33.3888 22.3563C33.2606 22.3563 33.1567 22.4601 33.1567 22.5882C33.1567 22.7165 33.2606 22.8205 33.3888 22.8207ZM33.3476 22.7224H33.285V22.4546H33.3983C33.422 22.4546 33.4461 22.4546 33.467 22.4678C33.4885 22.4825 33.501 22.5082 33.501 22.5347C33.501 22.5653 33.4832 22.5935 33.4545 22.6041L33.5036 22.7224H33.4342L33.3937 22.6166H33.3476V22.7224ZM33.3476 22.5703H33.3823C33.395 22.5703 33.4088 22.5712 33.4204 22.5652C33.4305 22.5581 33.4363 22.5465 33.436 22.5342C33.4357 22.5234 33.4302 22.5133 33.4211 22.5072C33.4099 22.5004 33.3926 22.5022 33.3809 22.5022H33.3476V22.5703ZM20.7015 22.7996C20.2977 22.9067 19.9069 22.9591 19.4941 22.9582C18.1765 22.9569 17.4903 22.3568 17.4903 21.2092C17.4903 19.8688 18.3635 18.8823 19.5494 18.8823C20.5196 18.8823 21.1386 19.4352 21.1386 20.3013C21.1386 20.5893 21.0965 20.8686 20.9943 21.2652H18.6512C18.5678 21.825 18.9767 22.0715 19.6734 22.0715C20.0908 22.0715 20.4681 21.9964 20.8863 21.8283L20.7015 22.7996ZM20.0715 20.4743C20.0715 20.3898 20.2016 19.7879 19.5238 19.7749C19.1493 19.7749 18.881 20.024 18.7721 20.4743H20.0715ZM21.4955 20.2112C21.4955 20.7067 21.774 21.0486 22.4079 21.3038C22.8927 21.5023 22.9688 21.5596 22.9688 21.7363C22.9688 21.9821 22.7547 22.095 22.2795 22.0918C21.9223 22.0895 21.5966 22.046 21.2123 21.9393L21.0418 22.8424C21.3837 22.9223 21.8633 22.9484 22.2876 22.9582C23.553 22.9582 24.1373 22.5437 24.1373 21.6484C24.1373 21.1103 23.8936 20.7932 23.2925 20.5575C22.7902 20.3569 22.7314 20.3132 22.7314 20.1318C22.7314 19.9184 22.9306 19.8105 23.3184 19.8105C23.5538 19.8105 23.8758 19.8324 24.1815 19.869L24.3526 18.9607C24.0413 18.9173 23.569 18.8826 23.2958 18.8826C21.955 18.8826 21.4913 19.4858 21.4955 20.2112ZM16.8479 22.8936H15.8648L15.8885 22.4817C15.5885 22.806 15.1893 22.9574 14.6478 22.9574C14.0065 22.9574 13.567 22.5189 13.567 21.8889C13.567 20.9301 14.3304 20.3776 15.6436 20.3776C15.7785 20.3776 15.9499 20.3876 16.1266 20.4072C16.163 20.279 16.1727 20.2241 16.1727 20.1539C16.1727 19.8915 15.9664 19.7951 15.4138 19.7951C14.8692 19.7974 14.5016 19.8781 14.1605 19.9696L14.3282 19.0902C14.9181 18.9401 15.3041 18.8825 15.7413 18.8825C16.758 18.8825 17.2947 19.281 17.2947 20.0302C17.3035 20.2303 17.2337 20.6312 17.1991 20.8072C17.1589 21.0627 16.8771 22.5437 16.8479 22.8936ZM15.9848 21.1451C15.8607 21.1322 15.8062 21.1287 15.7209 21.1287C15.0509 21.1287 14.7107 21.3281 14.7107 21.7221C14.7107 21.9693 14.8768 22.1241 15.1349 22.1241C15.6171 22.1241 15.9649 21.721 15.9848 21.1451ZM26.2082 22.8314C25.8859 22.9196 25.6344 22.9582 25.3627 22.9582C24.7605 22.9582 24.432 22.6503 24.432 22.1022C24.4129 21.9519 24.5602 21.2564 24.5933 21.0627C24.6266 20.8682 25.1482 18.0347 25.1482 18.0347H26.3179L26.1413 18.9722H26.7412L26.5782 19.9291H25.9757C25.9757 19.9291 25.6447 21.5898 25.6447 21.7164C25.6447 21.9179 25.7669 22.005 26.0468 22.005C26.1806 22.005 26.2842 21.9929 26.3643 21.9686L26.2082 22.8314ZM32.0265 20.6C32.0265 21.4835 31.6641 22.0067 31.0914 22.0067C30.6742 22.0126 30.4211 21.6631 30.4211 21.139C30.4211 20.518 30.7903 19.8164 31.3834 19.8164C31.8623 19.8164 32.0265 20.1963 32.0265 20.6ZM33.2894 20.6246C33.2894 19.646 32.6464 18.8824 31.4358 18.8824C30.0427 18.8824 29.1421 19.8107 29.1421 21.1786C29.1421 22.1571 29.6731 22.9583 30.9933 22.9583C32.3251 22.9582 33.2894 22.2466 33.2894 20.6246ZM27.2504 18.9717C27.1019 20.1846 26.8387 21.4142 26.6331 22.6295L26.5832 22.894H27.7648C28.1908 20.5471 28.3337 19.8785 29.2259 20.114L29.6551 19.0033C29.0328 18.7749 28.632 19.101 28.2695 19.5647C28.3022 19.3561 28.3639 19.1548 28.3489 18.9717H27.2504ZM13.0164 22.8939H11.8399L12.5391 19.2093L10.9288 22.8939H9.85628L9.66009 19.2306L8.95856 22.8939H7.89087L8.80002 18.1011H10.6392L10.7365 21.0681L12.0308 18.1011H13.944L13.0164 22.8939Z" fill="white"/>
</g>
<defs>
<clipPath id="clip0_2001_1616">
<rect width="41.0811" height="41.0811" fill="white"/>
</clipPath>
</defs>
</svg>
