<svg width="42" height="42" viewBox="0 0 42 42" fill="none" xmlns="http://www.w3.org/2000/svg">
<g clip-path="url(#clip0_2001_1622)">
<path d="M41.0811 7.37354H0V33.7076H41.0811V7.37354Z" fill="#16366F"/>
<path d="M23.6483 20.5403C23.6483 25.762 19.4154 29.9943 14.1939 29.9943C8.97239 29.9943 4.73999 25.7618 4.73999 20.5403C4.73999 15.3192 8.9725 11.0864 14.1939 11.0864C19.4153 11.0864 23.6483 15.3194 23.6483 20.5403Z" fill="#D9222A"/>
<path d="M26.886 11.0864C24.4433 11.0864 22.2174 12.0132 20.5395 13.5337C20.1977 13.8439 19.8787 14.1782 19.5849 14.5342H21.495C21.7565 14.8521 21.9972 15.1866 22.2157 15.5356H18.8642C18.6627 15.8579 18.4808 16.1923 18.3196 16.5367H22.7601C22.9125 16.8624 23.0462 17.1966 23.1604 17.5376H17.9193C17.8092 17.866 17.7175 18.2002 17.6445 18.5387H23.4349C23.5765 19.1966 23.6478 19.8676 23.6477 20.5406C23.6477 21.5904 23.4763 22.6006 23.1603 23.5437H17.9192C18.0332 23.8849 18.1667 24.2192 18.3192 24.5449H22.76C22.5986 24.8894 22.4166 25.2237 22.2151 25.5463H18.8641C19.0828 25.8954 19.3239 26.2299 19.5848 26.5468H21.4945C21.2011 26.9034 20.8819 27.2381 20.5396 27.5481C22.2176 29.0685 24.4432 29.9947 26.8861 29.9947C32.1075 29.9947 36.3405 25.7622 36.3405 20.5408C36.3405 15.3198 32.1076 11.0869 26.8861 11.0869" fill="#EE9F2D"/>
<path d="M35.0812 25.8106C35.0812 25.642 35.2177 25.505 35.3864 25.505C35.5552 25.505 35.6917 25.642 35.6917 25.8106C35.6917 25.9791 35.5552 26.116 35.3864 26.116C35.2178 26.1159 35.0811 25.9792 35.0812 25.8106ZM35.3864 26.0427C35.5147 26.0427 35.6186 25.9387 35.6186 25.8106C35.6186 25.6824 35.5148 25.5786 35.3867 25.5786H35.3864C35.2585 25.5784 35.1547 25.682 35.1545 25.8099V25.8106C35.1543 25.9387 35.2581 26.0427 35.3862 26.0428C35.3862 26.0427 35.3863 26.0427 35.3864 26.0427ZM35.3452 25.9448H35.2826V25.6765H35.3958C35.4195 25.6765 35.4436 25.6765 35.4646 25.6899C35.4863 25.7045 35.4986 25.7304 35.4986 25.7572C35.4986 25.7872 35.4808 25.8153 35.4521 25.8263L35.5014 25.9448H35.4322L35.3911 25.8386H35.3453L35.3452 25.9448ZM35.3452 25.7926H35.3799C35.3928 25.7926 35.4064 25.7936 35.4181 25.7873C35.4284 25.7807 35.4336 25.7684 35.4336 25.7565C35.4336 25.7463 35.4273 25.7344 35.4185 25.7294C35.4076 25.7225 35.3902 25.724 35.3786 25.724H35.3452V25.7926ZM11.9869 21.5758C11.8792 21.5633 11.8318 21.5599 11.7578 21.5599C11.1761 21.5599 10.8816 21.7595 10.8816 22.1534C10.8816 22.3963 11.0254 22.5508 11.2496 22.5508C11.6677 22.5508 11.969 22.1527 11.9869 21.5758ZM12.7333 23.3136H11.8829L11.9025 22.9094C11.6431 23.2289 11.297 23.3807 10.8267 23.3807C10.2704 23.3807 9.889 22.9462 9.889 22.3153C9.889 21.366 10.5524 20.8122 11.6911 20.8122C11.8074 20.8122 11.9566 20.8227 12.1094 20.8421C12.1412 20.7136 12.1496 20.6585 12.1496 20.5893C12.1496 20.3308 11.9707 20.2344 11.4912 20.2344C10.9891 20.2288 10.575 20.3541 10.4049 20.41C10.4157 20.3453 10.5471 19.5327 10.5471 19.5327C11.0587 19.3828 11.396 19.3264 11.7756 19.3264C12.6569 19.3264 13.1237 19.722 13.1229 20.4699C13.1246 20.6703 13.0914 20.9176 13.0397 21.2426C12.9505 21.8078 12.7595 23.0185 12.7333 23.3136ZM9.45955 23.3136H8.43315L9.02109 19.627L7.70834 23.3136H7.0089L6.92253 19.6481L6.30452 23.3136H5.34375L6.14631 18.518H7.62207L7.7116 21.2023L8.6118 18.518H10.2533L9.45955 23.3136ZM28.1557 21.5758C28.0484 21.5633 28.0007 21.5599 27.927 21.5599C27.3455 21.5599 27.0509 21.7595 27.0509 22.1534C27.0509 22.3963 27.1945 22.5508 27.4187 22.5508C27.8368 22.5508 28.1383 22.1527 28.1557 21.5758ZM28.9026 23.3136H28.0523L28.0715 22.9094C27.8122 23.2289 27.4659 23.3807 26.9961 23.3807C26.4396 23.3807 26.0586 22.9462 26.0586 22.3153C26.0586 21.366 26.7215 20.8122 27.8605 20.8122C27.9767 20.8122 28.1257 20.8227 28.2783 20.8421C28.3101 20.7136 28.3185 20.6585 28.3185 20.5893C28.3185 20.3308 28.1399 20.2344 27.6604 20.2344C27.1583 20.2288 26.7446 20.3541 26.5738 20.41C26.5846 20.3453 26.7165 19.5327 26.7165 19.5327C27.2281 19.3828 27.5651 19.3264 27.9443 19.3264C28.826 19.3264 29.2928 19.722 29.292 20.4699C29.2937 20.6703 29.2605 20.9176 29.2088 21.2426C29.1202 21.8078 28.9286 23.0185 28.9026 23.3136ZM17.2951 23.2544C17.0142 23.3429 16.7952 23.3807 16.5578 23.3807C16.033 23.3807 15.7467 23.0792 15.7467 22.524C15.7392 22.3518 15.8222 21.8983 15.8873 21.4845C15.9466 21.1202 16.3324 18.8232 16.3324 18.8232H17.3526L17.2335 19.4135H17.8497L17.7105 20.3508H17.092C16.9735 21.0925 16.8048 22.0164 16.8028 22.1389C16.8028 22.3399 16.9101 22.4277 17.1541 22.4277C17.2711 22.4277 17.3617 22.4157 17.4309 22.3908L17.2951 23.2544ZM20.4231 23.2228C20.0727 23.3299 19.7345 23.3817 19.3762 23.3808C18.2342 23.3797 17.6388 22.7832 17.6388 21.6411C17.6388 20.3079 18.3962 19.3265 19.4242 19.3265C20.2653 19.3265 20.8026 19.8759 20.8026 20.7377C20.8026 21.0237 20.7657 21.3028 20.6768 21.6969H18.6452C18.5765 22.2627 18.9385 22.4984 19.5319 22.4984C19.8972 22.4984 20.2265 22.4231 20.5928 22.2528L20.4231 23.2228ZM19.8497 20.9107C19.8554 20.8294 19.9579 20.2145 19.375 20.2145C19.05 20.2145 18.8177 20.4623 18.723 20.9107H19.8497ZM13.3495 20.6464C13.3495 21.1398 13.5886 21.4799 14.1311 21.7354C14.5468 21.9307 14.6111 21.9887 14.6111 22.1657C14.6111 22.4088 14.4278 22.5186 14.0216 22.5186C13.7155 22.5186 13.4307 22.4708 13.1021 22.3648C13.1021 22.3648 12.9671 23.2243 12.961 23.2654C13.1943 23.3163 13.4023 23.3635 14.0291 23.3808C15.112 23.3808 15.6122 22.9684 15.6122 22.0772C15.6122 21.5414 15.4028 21.2269 14.8887 20.9906C14.4583 20.793 14.4089 20.7489 14.4089 20.5668C14.4089 20.3559 14.5795 20.2484 14.9113 20.2484C15.1127 20.2484 15.3879 20.2698 15.6486 20.307L15.7948 19.4024C15.529 19.3603 15.1261 19.3265 14.8915 19.3265C13.7434 19.3265 13.3459 19.9262 13.3495 20.6464ZM25.4152 19.4289C25.7003 19.4289 25.966 19.5037 26.3323 19.6881L26.5001 18.6472C26.3498 18.5883 25.8205 18.2417 25.3722 18.2417C24.6853 18.2417 24.1047 18.5825 23.6963 19.145C23.1006 18.9477 22.8558 19.3464 22.5556 19.7436L22.289 19.8057C22.3091 19.675 22.3274 19.545 22.3212 19.4136H21.3787C21.2499 20.6206 21.0217 21.8431 20.843 23.0516L20.7965 23.3137H21.8233C21.9947 22.2001 22.0886 21.4871 22.1457 21.0046L22.5323 20.7895C22.5901 20.5746 22.7709 20.5021 23.1336 20.5108C23.0848 20.7746 23.0604 21.0422 23.0608 21.3105C23.0608 22.5864 23.7492 23.3808 24.8541 23.3808C25.1387 23.3808 25.383 23.3433 25.7611 23.2408L25.9418 22.1475C25.6016 22.3149 25.3224 22.3937 25.0696 22.3937C24.4729 22.3937 24.1119 21.9533 24.1119 21.2253C24.1119 20.1694 24.6489 19.4289 25.4152 19.4289Z" fill="white"/>
<path d="M9.75471 23.0284H8.72816L9.31646 19.3423L8.00371 23.0284H7.30417L7.21769 19.3633L6.59974 23.0284H5.63892L6.44147 18.2334H7.91723L7.95873 21.2019L8.95437 18.2334H10.5485L9.75471 23.0284Z" fill="white"/>
<path d="M34.1034 18.5181L33.8759 19.9037C33.5952 19.5343 33.2937 19.2671 32.8957 19.2671C32.3777 19.2671 31.9064 19.6596 31.5978 20.2375C31.1682 20.1484 30.7237 19.9971 30.7237 19.9971L30.7235 20.0007C30.7581 19.6777 30.7719 19.4806 30.7689 19.4136H29.8261C29.6978 20.6206 29.4696 21.8432 29.2912 23.0517L29.2441 23.3138H30.2707C30.4094 22.4133 30.5157 21.6656 30.5938 21.0727C30.9445 20.7558 31.12 20.4793 31.4744 20.4977C31.3175 20.8772 31.2256 21.3143 31.2256 21.7626C31.2256 22.7377 31.7189 23.3809 32.4651 23.3809C32.8412 23.3809 33.1297 23.2512 33.4113 22.9506L33.3633 23.3131H34.3341L35.1158 18.5181H34.1034ZM32.8199 22.4124C32.4705 22.4124 32.2941 22.1539 32.2941 21.6437C32.2941 20.8772 32.6244 20.3335 33.09 20.3335C33.4426 20.3335 33.6335 20.6024 33.6335 21.0976C33.6336 21.8709 33.2981 22.4124 32.8199 22.4124Z" fill="white"/>
<path d="M12.2811 21.2917C12.1736 21.2792 12.1259 21.2759 12.0522 21.2759C11.4704 21.2759 11.1761 21.4754 11.1761 21.8693C11.1761 22.1117 11.3199 22.2668 11.5437 22.2668C11.9622 22.2667 12.2635 21.8686 12.2811 21.2917ZM13.0279 23.0289H12.1775L12.1968 22.6253C11.9377 22.9441 11.5911 23.0966 11.1213 23.0966C10.5648 23.0966 10.1836 22.6621 10.1836 22.0312C10.1836 21.0815 10.8467 20.528 11.9857 20.528C12.102 20.528 12.2512 20.5385 12.4038 20.558C12.4356 20.4294 12.4439 20.3744 12.4439 20.3048C12.4439 20.0463 12.2653 19.9504 11.7858 19.9504C11.2835 19.9447 10.8696 20.07 10.6993 20.1253C10.71 20.0608 10.8415 19.249 10.8415 19.249C11.3528 19.0985 11.6905 19.042 12.0697 19.042C12.9513 19.042 13.4183 19.438 13.4174 20.1852C13.4189 20.3864 13.3855 20.6335 13.334 20.9581C13.2451 21.523 13.0538 22.7343 13.0279 23.0289ZM26.7943 18.3629L26.6261 19.404C26.2601 19.2199 25.9941 19.1448 25.7093 19.1448C24.943 19.1448 24.4058 19.8852 24.4058 20.9411C24.4058 21.6691 24.767 22.1094 25.3635 22.1094C25.6163 22.1094 25.8952 22.0308 26.2353 21.8631L26.0552 22.9559C25.6768 23.0591 25.4329 23.0966 25.148 23.0966C24.0432 23.0966 23.3546 22.3022 23.3546 21.0263C23.3546 19.312 24.3057 18.1138 25.6661 18.1138C26.1142 18.1138 26.6437 18.3038 26.7943 18.3629ZM28.4502 21.2917C28.3427 21.2792 28.2953 21.2759 28.2213 21.2759C27.6398 21.2759 27.3453 21.4754 27.3453 21.8693C27.3453 22.1117 27.489 22.2668 27.7131 22.2668C28.1311 22.2667 28.4327 21.8686 28.4502 21.2917ZM29.197 23.0289H28.3464L28.3659 22.6253C28.1066 22.9441 27.7602 23.0966 27.2904 23.0966C26.7341 23.0966 26.3527 22.6621 26.3527 22.0312C26.3527 21.0815 27.0161 20.528 28.1546 20.528C28.2712 20.528 28.4202 20.5385 28.5729 20.558C28.6045 20.4294 28.613 20.3744 28.613 20.3048C28.613 20.0463 28.4344 19.9504 27.9549 19.9504C27.4528 19.9447 27.0387 20.07 26.8684 20.1253C26.8792 20.0608 27.0108 19.249 27.0108 19.249C27.5222 19.0985 27.8596 19.042 28.2388 19.042C29.1206 19.042 29.5873 19.438 29.5862 20.1852C29.588 20.3864 29.5549 20.6335 29.5031 20.9581C29.4145 21.523 29.2227 22.7343 29.197 23.0289ZM17.5895 22.9698C17.3084 23.0582 17.0894 23.0966 16.8522 23.0966C16.3274 23.0966 16.0411 22.7951 16.0411 22.2399C16.0338 22.0671 16.1168 21.6142 16.182 21.2004C16.2409 20.8356 16.6268 18.5389 16.6268 18.5389H17.6468L17.5278 19.1294H18.0515L17.9121 20.0663H17.3867C17.2682 20.8084 17.099 21.7316 17.0973 21.8543C17.0973 22.056 17.2048 22.1431 17.4486 22.1431C17.5655 22.1431 17.656 22.1317 17.7253 22.1066L17.5895 22.9698ZM20.7176 22.9386C20.3673 23.0457 20.0287 23.0973 19.6705 23.0966C18.5285 23.0955 17.9332 22.4991 17.9332 21.3569C17.9332 20.0232 18.6905 19.0421 19.7186 19.0421C20.5597 19.0421 21.0969 19.5914 21.0969 20.4536C21.0969 20.7397 21.0601 21.0189 20.9715 21.4128H18.9398C18.871 21.9785 19.2331 22.2145 19.8266 22.2145C20.1916 22.2145 20.5212 22.1389 20.8872 21.9682L20.7176 22.9386ZM20.1439 20.6259C20.1501 20.5449 20.2524 19.9298 19.6692 19.9298C19.3445 19.9298 19.112 20.1782 19.0174 20.6259H20.1439ZM13.6436 20.3623C13.6436 20.8556 13.8828 21.1953 14.4253 21.4512C14.8409 21.6465 14.9052 21.7047 14.9052 21.8815C14.9052 22.1247 14.7218 22.2344 14.316 22.2344C14.0097 22.2344 13.7248 22.1866 13.3961 22.0806C13.3961 22.0806 13.2616 22.9402 13.2555 22.9812C13.4883 23.0322 13.6965 23.0787 14.3232 23.0966C15.4065 23.0966 15.9064 22.6843 15.9064 21.7933C15.9064 21.2572 15.6973 20.9427 15.1828 20.7064C14.7527 20.5085 14.7029 20.465 14.7029 20.2826C14.7029 20.072 14.8738 19.9636 15.2054 19.9636C15.4067 19.9636 15.6819 19.9857 15.943 20.0228L16.0889 19.118C15.8234 19.0759 15.4205 19.0421 15.1859 19.0421C14.0375 19.0421 13.6404 19.6414 13.6436 20.3623ZM34.6292 23.0289H33.6582L33.7065 22.6658C33.4248 22.9669 33.1363 23.0966 32.7602 23.0966C32.014 23.0966 31.5209 22.4534 31.5209 21.4784C31.5209 20.1812 32.2857 19.0877 33.191 19.0877C33.589 19.0877 33.8904 19.2503 34.1708 19.6194L34.3986 18.2338H35.4109L34.6292 23.0289ZM33.1153 22.1278C33.5932 22.1278 33.929 21.5862 33.929 20.8135C33.929 20.3182 33.7378 20.0494 33.3852 20.0494C32.9197 20.0494 32.5891 20.5928 32.5891 21.3595C32.589 21.8696 32.7659 22.1278 33.1153 22.1278ZM30.1215 19.1294C29.993 20.3364 29.7647 21.559 29.5862 22.7668L29.5393 23.0289H30.5659C30.933 20.6443 31.0219 20.1786 31.5975 20.237C31.6893 19.749 31.8599 19.3214 31.9872 19.1057C31.5573 19.0162 31.3172 19.2591 31.003 19.7206C31.0278 19.5212 31.0732 19.3274 31.0642 19.1294H30.1215ZM21.6724 19.1294C21.5436 20.3364 21.3154 21.559 21.137 22.7668L21.0903 23.0289H22.1173C22.484 20.6443 22.5726 20.1786 23.1479 20.237C23.2401 19.749 23.4109 19.3214 23.5377 19.1057C23.1082 19.0162 22.868 19.2591 22.554 19.7206C22.5787 19.5212 22.6237 19.3274 22.6152 19.1294H21.6724ZM35.0802 22.7236C35.0802 22.5543 35.2169 22.4181 35.3854 22.4181C35.5538 22.418 35.6905 22.5544 35.6906 22.7228V22.7236C35.6906 22.8921 35.554 23.0288 35.3854 23.0289C35.2169 23.0288 35.0803 22.8921 35.0802 22.7236ZM35.3854 22.9555C35.5135 22.9556 35.6173 22.8518 35.6173 22.7238V22.7236C35.6175 22.5955 35.5137 22.4916 35.3856 22.4915H35.3854C35.2572 22.4915 35.1533 22.5955 35.1532 22.7236C35.1534 22.8517 35.2573 22.9555 35.3854 22.9555ZM35.3441 22.8571H35.2816V22.5893H35.395C35.4185 22.5893 35.4428 22.5897 35.4633 22.6027C35.4852 22.6176 35.4977 22.6431 35.4977 22.6698C35.4977 22.7001 35.4799 22.7284 35.4509 22.7391L35.5005 22.8569H35.431L35.3899 22.7511H35.3441V22.8569V22.8571ZM35.3441 22.7054H35.3786C35.3915 22.7054 35.4056 22.7063 35.417 22.7001C35.4272 22.6935 35.4325 22.6811 35.4325 22.6692C35.432 22.6581 35.4264 22.6479 35.4174 22.6416C35.4066 22.6354 35.3888 22.6371 35.3772 22.6371H35.3441L35.3441 22.7054Z" fill="white"/>
</g>
<defs>
<clipPath id="clip0_2001_1622">
<rect width="41.0811" height="41.0811" fill="white"/>
</clipPath>
</defs>
</svg>
