<svg width="42" height="42" viewBox="0 0 42 42" fill="none" xmlns="http://www.w3.org/2000/svg">
<g clip-path="url(#clip0_2001_1607)">
<path d="M2.10672 7.37354H38.9744C40.1383 7.37354 41.0811 8.31629 41.0811 9.48026V31.6008C41.0811 32.7648 40.1383 33.7076 38.9744 33.7076H2.10672C0.942758 33.7076 0 32.7648 0 31.6008V9.48026C0 8.31629 0.942758 7.37354 2.10672 7.37354Z" fill="white"/>
<path d="M28.6565 20.0405V25.7287H31.8166V22.3579H35.398C36.9043 22.3474 38.1841 21.3836 38.6687 20.0405H28.6565Z" fill="#37A72E"/>
<path d="M28.2346 15.353C28.419 17.6757 30.6205 19.5138 33.3066 19.5138C33.3171 19.5138 38.7998 19.5138 38.7998 19.5138C38.842 19.3031 38.863 19.0819 38.863 18.8555C38.863 16.9278 37.3093 15.3688 35.3869 15.353H28.2346Z" fill="url(#paint0_linear_2001_1607)"/>
<path d="M23.5595 19.4559C23.5964 19.3927 23.6543 19.3558 23.7281 19.3558C23.8334 19.3558 23.9124 19.4401 23.9177 19.5401V25.676H27.0777V15.353H23.9177C23.5174 15.3688 23.0644 15.6585 22.8959 16.0219L20.3836 21.4151C20.3784 21.4362 20.3678 21.4573 20.3573 21.4783C20.3204 21.531 20.2572 21.5679 20.1835 21.5679C20.0676 21.5679 19.9728 21.4731 19.9728 21.3572V15.353H16.8127V25.676H19.9728C20.3678 25.6549 20.8102 25.3652 20.9788 25.0071L23.5595 19.4717C23.5543 19.4664 23.5595 19.4611 23.5595 19.4559Z" fill="#37A72E"/>
<path d="M11.7611 19.6348L9.91244 25.6759H7.63718L5.79379 19.6296C5.77799 19.5348 5.69372 19.461 5.58839 19.461C5.47252 19.461 5.38298 19.5558 5.38298 19.6664V25.6706H2.2229V15.3477H4.9353H5.74113C6.32047 15.3477 6.93142 15.8006 7.09996 16.3536L8.63787 21.3834C8.71687 21.6362 8.83801 21.631 8.91701 21.3834L10.4549 16.3536C10.6235 15.7953 11.2344 15.3477 11.8138 15.3477H12.6196H15.332V25.6706H12.1719V19.6664C12.1719 19.6664 12.1719 19.6664 12.1719 19.6612C12.1719 19.5453 12.0771 19.4558 11.9665 19.4558C11.8612 19.461 11.7769 19.5348 11.7611 19.6348Z" fill="#37A72E"/>
</g>
<defs>
<linearGradient id="paint0_linear_2001_1607" x1="28.2359" y1="17.4334" x2="38.8624" y2="17.4334" gradientUnits="userSpaceOnUse">
<stop stop-color="#00A0E5"/>
<stop offset="1" stop-color="#0077C3"/>
</linearGradient>
<clipPath id="clip0_2001_1607">
<rect width="41.0811" height="41.0811" fill="white"/>
</clipPath>
</defs>
</svg>
