<svg width="42" height="42" viewBox="0 0 42 42" fill="none" xmlns="http://www.w3.org/2000/svg">
<g clip-path="url(#clip0_2001_1630)">
<path d="M38.2492 6.729H2.8345C1.46537 6.729 0.355469 7.8389 0.355469 9.20803V31.8735C0.355469 33.2426 1.46537 34.3525 2.8345 34.3525H38.2492C39.6184 34.3525 40.7283 33.2426 40.7283 31.8735V9.20803C40.7283 7.8389 39.6184 6.729 38.2492 6.729Z" fill="white" stroke="#F3F3F3" stroke-width="0.708295"/>
<path d="M18.2409 25.8053H15.5059L17.2166 15.8887H19.9515L18.2409 25.8053Z" fill="#0E4595"/>
<path d="M28.1556 16.1312C27.6161 15.9305 26.7605 15.709 25.7025 15.709C23.0015 15.709 21.0995 17.0593 21.0878 18.9897C21.0654 20.414 22.4496 21.2051 23.4849 21.68C24.543 22.1654 24.9028 22.4821 24.9028 22.9147C24.892 23.5791 24.0477 23.8853 23.2603 23.8853C22.1683 23.8853 21.5832 23.7274 20.694 23.3578L20.3339 23.1993L19.9512 25.4254C20.5927 25.6993 21.7745 25.9425 23.0015 25.9532C25.8714 25.9532 27.7397 24.6238 27.7618 22.5665C27.7727 21.4377 27.0418 20.5726 25.466 19.8658C24.5094 19.4121 23.9236 19.1061 23.9236 18.6419C23.9348 18.2198 24.4191 17.7875 25.499 17.7875C26.3881 17.7664 27.0414 17.9667 27.5363 18.1673L27.7836 18.2726L28.1556 16.1312Z" fill="#0E4595"/>
<path fill-rule="evenodd" clip-rule="evenodd" d="M33.0507 15.8887H35.1662L37.3728 25.8052H34.8404C34.8404 25.8052 34.5925 24.6658 34.514 24.3176H31.0024C30.9009 24.5812 30.4284 25.8052 30.4284 25.8052H27.5586L31.6212 16.7114C31.9026 16.0679 32.3983 15.8887 33.0507 15.8887ZM32.8821 19.5176C32.8821 19.5176 32.0154 21.7225 31.7902 22.2922H34.0636C33.9511 21.7964 33.4331 19.4226 33.4331 19.4226L33.242 18.5682C33.1615 18.7882 33.0451 19.0907 32.9666 19.2948C32.9134 19.433 32.8775 19.5261 32.8821 19.5176Z" fill="#0E4595"/>
<path fill-rule="evenodd" clip-rule="evenodd" d="M3.65439 15.8887H8.05482C8.65134 15.9096 9.13532 16.0889 9.29277 16.7223L10.2491 21.2786L10.2494 21.2794L10.5421 22.6508L13.2206 15.8887H16.1127L11.8137 25.7948H8.92141L6.48366 17.1781C5.64256 16.7171 4.68263 16.3463 3.60938 16.089L3.65439 15.8887Z" fill="#0E4595"/>
<path fill-rule="evenodd" clip-rule="evenodd" d="M23.6297 31.2145C23.5934 31.2211 23.5471 31.2244 23.4909 31.2244C23.3356 31.2244 23.2248 31.1782 23.1587 31.0856C23.0926 30.993 23.0596 30.8575 23.0596 30.679V27.6348H23.4661V30.7088C23.4661 30.7748 23.4777 30.8212 23.5008 30.8476C23.524 30.874 23.5504 30.8873 23.5802 30.8873H23.6173C23.6289 30.8873 23.6462 30.8839 23.6694 30.8773L23.7239 31.1847C23.6975 31.198 23.6661 31.2079 23.6297 31.2145ZM22.4101 30.8129V31.1649H20.4863V27.9124H22.3605V28.2595H20.8978V29.2808H22.1324V29.6329H20.8978V30.8129H22.4101ZM25.3006 31.2244C25.4659 31.2244 25.613 31.1996 25.7419 31.15C25.8708 31.1004 25.9881 31.0426 26.0939 30.9765L25.9501 30.7088C25.8609 30.7649 25.7675 30.8104 25.67 30.8451C25.5724 30.8798 25.4659 30.8972 25.3502 30.8972C25.1188 30.8972 24.9312 30.8219 24.7874 30.6716C24.6437 30.5212 24.5635 30.3171 24.547 30.0593H26.1732C26.1798 30.0295 26.184 29.994 26.1856 29.9527C26.1872 29.9114 26.1881 29.8692 26.1881 29.8262C26.1881 29.6543 26.1666 29.499 26.1236 29.3602C26.0806 29.2213 26.0187 29.1024 25.9377 29.0032C25.8568 28.904 25.7559 28.828 25.6353 28.7751C25.5147 28.7222 25.3783 28.6958 25.2262 28.6958C25.0874 28.6958 24.9535 28.7247 24.8246 28.7826C24.6957 28.8404 24.5808 28.9239 24.48 29.0329C24.3793 29.142 24.2982 29.275 24.2371 29.4321C24.176 29.5891 24.1454 29.7667 24.1454 29.9651C24.1454 30.1634 24.1751 30.3402 24.2346 30.4956C24.2941 30.6509 24.3759 30.7823 24.48 30.8897C24.5842 30.9972 24.7065 31.0798 24.8469 31.1376C24.9874 31.1955 25.1386 31.2244 25.3006 31.2244ZM24.542 29.7667H25.8311C25.8311 29.5222 25.7791 29.3362 25.6749 29.2089C25.5708 29.0817 25.4246 29.0181 25.2361 29.0181C25.1502 29.0181 25.0684 29.0346 24.9907 29.0676C24.913 29.1007 24.8428 29.1495 24.78 29.2139C24.7172 29.2784 24.6651 29.3568 24.6238 29.4494C24.5825 29.542 24.5553 29.6477 24.542 29.7667ZM27.735 31.2244C27.8804 31.2244 28.0193 31.1971 28.1515 31.1426C28.2837 31.0881 28.4044 31.0128 28.5134 30.917L28.3349 30.6443C28.2589 30.7104 28.1738 30.7674 28.0796 30.8154C27.9854 30.8633 27.8821 30.8873 27.7697 30.8873C27.6606 30.8873 27.5599 30.8649 27.4673 30.8203C27.3747 30.7757 27.2962 30.7129 27.2318 30.6319C27.1673 30.551 27.1169 30.4543 27.0805 30.3419C27.0442 30.2295 27.026 30.1039 27.026 29.9651C27.026 29.8262 27.045 29.6998 27.083 29.5858C27.1211 29.4717 27.1731 29.3734 27.2392 29.2908C27.3053 29.2081 27.3846 29.1445 27.4772 29.0999C27.5698 29.0552 27.6706 29.0329 27.7796 29.0329C27.8755 29.0329 27.9622 29.0528 28.0399 29.0924C28.1176 29.1321 28.1912 29.1833 28.2606 29.2461L28.4688 28.9784C28.3829 28.9024 28.2837 28.8362 28.1713 28.7801C28.0589 28.7239 27.9234 28.6958 27.7648 28.6958C27.6094 28.6958 27.4615 28.7239 27.321 28.7801C27.1806 28.8362 27.0574 28.9189 26.9516 29.028C26.8459 29.1371 26.7616 29.2701 26.6988 29.4271C26.636 29.5841 26.6046 29.7634 26.6046 29.9651C26.6046 30.1634 26.6335 30.341 26.6913 30.498C26.7492 30.6551 26.8285 30.7872 26.9293 30.8947C27.0301 31.0021 27.15 31.0839 27.2888 31.1401C27.4276 31.1963 27.5764 31.2244 27.735 31.2244ZM29.9835 31.1971C29.9058 31.2153 29.8289 31.2244 29.7529 31.2244C29.624 31.2244 29.5158 31.2046 29.4282 31.1649C29.3406 31.1252 29.2695 31.0707 29.215 31.0013C29.1605 30.9319 29.1216 30.8476 29.0985 30.7484C29.0753 30.6493 29.0638 30.5402 29.0638 30.4212V29.0875H28.7068V28.7801L29.0836 28.7553L29.1332 28.081H29.4753V28.7553H30.1248V29.0875H29.4753V30.4262C29.4753 30.5749 29.5026 30.6898 29.5571 30.7707C29.6116 30.8517 29.7083 30.8922 29.8471 30.8922C29.8901 30.8922 29.9364 30.8856 29.986 30.8724C30.0356 30.8591 30.0802 30.8443 30.1198 30.8278L30.1992 31.1352C30.1331 31.1583 30.0612 31.1789 29.9835 31.1971ZM31.0767 31.1649V29.618C31.1594 29.4131 31.2561 29.2693 31.3668 29.1866C31.4775 29.104 31.5841 29.0627 31.6866 29.0627C31.7362 29.0627 31.7775 29.066 31.8105 29.0726C31.8436 29.0792 31.88 29.0891 31.9196 29.1024L31.9989 28.7454C31.9229 28.7123 31.837 28.6958 31.7411 28.6958C31.6023 28.6958 31.4742 28.7404 31.3569 28.8297C31.2395 28.9189 31.1396 29.0395 31.0569 29.1916H31.042L31.0073 28.7553H30.6702V31.1649H31.0767ZM33.702 31.1401C33.5682 31.1963 33.4269 31.2244 33.2781 31.2244C33.1294 31.2244 32.9881 31.1963 32.8542 31.1401C32.7203 31.0839 32.6022 31.0021 32.4997 30.8947C32.3972 30.7872 32.3154 30.6551 32.2543 30.498C32.1932 30.341 32.1626 30.1634 32.1626 29.9651C32.1626 29.7634 32.1932 29.5841 32.2543 29.4271C32.3154 29.2701 32.3972 29.1371 32.4997 29.028C32.6022 28.9189 32.7203 28.8362 32.8542 28.7801C32.9881 28.7239 33.1294 28.6958 33.2781 28.6958C33.4269 28.6958 33.5682 28.7239 33.702 28.7801C33.8359 28.8362 33.9541 28.9189 34.0565 29.028C34.159 29.1371 34.2408 29.2701 34.302 29.4271C34.3631 29.5841 34.3937 29.7634 34.3937 29.9651C34.3937 30.1634 34.3631 30.341 34.302 30.498C34.2408 30.6551 34.159 30.7872 34.0565 30.8947C33.9541 31.0021 33.8359 31.0839 33.702 31.1401ZM33.2781 30.8873C33.1756 30.8873 33.0814 30.8649 32.9955 30.8203C32.9096 30.7757 32.836 30.7129 32.7749 30.6319C32.7138 30.551 32.6667 30.4543 32.6336 30.3419C32.6005 30.2295 32.584 30.1039 32.584 29.9651C32.584 29.8262 32.6005 29.6998 32.6336 29.5858C32.6667 29.4717 32.7138 29.3734 32.7749 29.2908C32.836 29.2081 32.9096 29.1445 32.9955 29.0999C33.0814 29.0552 33.1756 29.0329 33.2781 29.0329C33.3806 29.0329 33.4748 29.0552 33.5607 29.0999C33.6467 29.1445 33.7202 29.2081 33.7814 29.2908C33.8425 29.3734 33.8896 29.4717 33.9227 29.5858C33.9557 29.6998 33.9723 29.8262 33.9723 29.9651C33.9723 30.1039 33.9557 30.2295 33.9227 30.3419C33.8896 30.4543 33.8425 30.551 33.7814 30.6319C33.7202 30.7129 33.6467 30.7757 33.5607 30.8203C33.4748 30.8649 33.3806 30.8873 33.2781 30.8873ZM35.4349 29.4197V31.1649H35.0283V28.7553H35.3655L35.4002 29.1024H35.415C35.5307 28.9867 35.6522 28.89 35.7795 28.8123C35.9067 28.7346 36.0546 28.6958 36.2232 28.6958C36.4777 28.6958 36.6636 28.7751 36.781 28.9338C36.8984 29.0924 36.957 29.3271 36.957 29.6378V31.1649H36.5504V29.6924C36.5504 29.4643 36.5141 29.2998 36.4414 29.199C36.3686 29.0982 36.253 29.0478 36.0943 29.0478C35.9687 29.0478 35.8579 29.0792 35.7621 29.142C35.6663 29.2048 35.5572 29.2973 35.4349 29.4197Z" fill="white"/>
</g>
<defs>
<clipPath id="clip0_2001_1630">
<rect width="41.0811" height="41.0811" fill="white"/>
</clipPath>
</defs>
</svg>
