<svg xmlns="http://www.w3.org/2000/svg" version="1.1" xmlns:xlink="http://www.w3.org/1999/xlink" width="44" height="44"><svg width="44" height="44" viewBox="0 0 44 44" fill="none" xmlns="http://www.w3.org/2000/svg">
<path d="M0 4.99588C0 2.23673 2.23673 0 4.99588 0H38.4683C41.2274 0 43.4642 2.23673 43.4642 4.99588V38.4683C43.4642 41.2274 41.2274 43.4642 38.4683 43.4642H4.99588C2.23673 43.4642 0 41.2274 0 38.4683V4.99588Z" fill="#00B4DD"></path>
<path d="M34.6686 23.9588C33.1275 25.9095 31.165 27.4865 28.9282 28.5717C26.6915 29.6568 24.2381 30.222 21.752 30.2251C19.266 30.2281 16.8113 29.6689 14.5719 28.5892C12.3326 27.5095 10.3662 25.9374 8.82031 23.9905L12.3418 21.1944C13.4661 22.6104 14.8963 23.7536 16.5249 24.5388C18.1535 25.3241 19.9386 25.731 21.7467 25.7288C23.5547 25.7266 25.3388 25.3154 26.9655 24.5262C28.5922 23.737 30.0195 22.5902 31.1403 21.1715L34.6686 23.9588Z" fill="white"></path>
</svg><style>@media (prefers-color-scheme: light) { :root { filter: none; } }
@media (prefers-color-scheme: dark) { :root { filter: none; } }
</style></svg>