<svg xmlns="http://www.w3.org/2000/svg" width="32" height="32" viewBox="0 0 32 32" fill="none">
    <circle cx="16.0003" cy="16" r="14.2423" transform="rotate(1 16.0003 16)" fill="white" />
    <path fill-rule="evenodd" clip-rule="evenodd"
        d="M15.9997 1.33337C7.89967 1.33337 1.33301 7.90004 1.33301 16C1.33301 24.1 7.89967 30.6667 15.9997 30.6667C24.0997 30.6667 30.6663 24.1 30.6663 16C30.6663 7.90004 24.0997 1.33337 15.9997 1.33337ZM15.333 8.00004C14.9794 8.00004 14.6402 8.14052 14.3902 8.39057C14.1402 8.64061 13.9997 8.97975 13.9997 9.33337C13.9997 9.687 14.1402 10.0261 14.3902 10.2762C14.6402 10.5262 14.9794 10.6667 15.333 10.6667H15.9997C16.3533 10.6667 16.6924 10.5262 16.9425 10.2762C17.1925 10.0261 17.333 9.687 17.333 9.33337C17.333 8.97975 17.1925 8.64061 16.9425 8.39057C16.6924 8.14052 16.3533 8.00004 15.9997 8.00004H15.333ZM13.333 13.3334C12.9794 13.3334 12.6402 13.4739 12.3902 13.7239C12.1402 13.9739 11.9997 14.3131 11.9997 14.6667C11.9997 15.0203 12.1402 15.3595 12.3902 15.6095C12.6402 15.8596 12.9794 16 13.333 16H14.6663V20H13.333C12.9794 20 12.6402 20.1405 12.3902 20.3906C12.1402 20.6406 11.9997 20.9798 11.9997 21.3334C11.9997 21.687 12.1402 22.0261 12.3902 22.2762C12.6402 22.5262 12.9794 22.6667 13.333 22.6667H18.6663C19.02 22.6667 19.3591 22.5262 19.6091 22.2762C19.8592 22.0261 19.9997 21.687 19.9997 21.3334C19.9997 20.9798 19.8592 20.6406 19.6091 20.3906C19.3591 20.1405 19.02 20 18.6663 20H17.333V14.6667C17.333 14.3131 17.1925 13.9739 16.9425 13.7239C16.6924 13.4739 16.3533 13.3334 15.9997 13.3334H13.333Z"
        fill="#19E7B4" />
</svg>