<svg width="162" height="44" viewBox="0 0 162 44" fill="none" xmlns="http://www.w3.org/2000/svg">
<path d="M155.216 6.62878C156.167 6.62878 157.048 6.79115 157.86 7.11587C158.672 7.4406 159.368 7.90449 159.947 8.50755C160.551 9.08742 161.014 9.78326 161.339 10.5951C161.664 11.4069 161.826 12.2883 161.826 13.2393V22.981H158.347L157.651 21.4154C157.257 21.7401 156.816 22.03 156.329 22.2852C155.912 22.5171 155.413 22.7259 154.833 22.9114C154.276 23.0738 153.65 23.155 152.954 23.155C151.215 23.155 149.881 22.7375 148.953 21.9025C148.025 21.0443 147.562 19.9541 147.562 18.632C147.562 17.8434 147.712 17.1244 148.014 16.4749C148.339 15.8023 148.872 15.234 149.614 14.7701C150.356 14.283 151.331 13.9119 152.537 13.6568C153.766 13.3784 155.297 13.2393 157.129 13.2393C157.129 12.4506 156.932 11.8476 156.538 11.4301C156.144 11.0126 155.645 10.8038 155.042 10.8038C154.601 10.8038 154.242 10.8966 153.963 11.0822C153.708 11.2445 153.499 11.4185 153.337 11.604C153.151 11.836 153.024 12.0911 152.954 12.3695L148.257 12.0215C148.397 11.2329 148.64 10.5139 148.988 9.86444C149.336 9.1918 149.788 8.62353 150.345 8.15963C150.925 7.67255 151.621 7.30143 152.432 7.04629C153.244 6.76795 154.172 6.62878 155.216 6.62878ZM154.172 19.6758C155.053 19.6758 155.761 19.409 156.294 18.8756C156.851 18.3189 157.129 17.5999 157.129 16.7185V16.0226C156.132 16.0226 155.309 16.0806 154.659 16.1966C154.033 16.2894 153.534 16.4285 153.163 16.6141C152.815 16.7996 152.572 17.02 152.432 17.2751C152.316 17.5303 152.258 17.8086 152.258 18.1101C152.258 18.5508 152.421 18.922 152.746 19.2235C153.093 19.525 153.569 19.6758 154.172 19.6758Z" fill="#334B59"/>
<path d="M141.312 22.981L136.442 15.8486V22.981H131.745V6.97668H136.442V13.4132L140.791 6.97668H146.183L140.791 14.6309L146.705 22.981H141.312Z" fill="#334B59"/>
<path d="M121.65 7.67253C122.693 7.67253 123.656 7.85809 124.537 8.2292C125.442 8.60032 126.219 9.1338 126.868 9.82964C127.518 10.5023 128.028 11.3257 128.399 12.2999C128.77 13.2509 128.956 14.3178 128.956 15.5007C128.956 16.5909 128.747 17.6114 128.33 18.5624C127.935 19.5134 127.367 20.3484 126.625 21.0675C125.906 21.7633 125.048 22.32 124.05 22.7375C123.053 23.1318 121.963 23.3289 120.78 23.3289C119.597 23.3289 118.495 23.1086 117.475 22.6679C116.477 22.204 115.596 21.5429 114.83 20.6847C114.088 19.8265 113.497 18.7712 113.056 17.5187C112.638 16.2662 112.43 14.8397 112.43 13.2393C112.43 10.9894 112.673 9.06421 113.16 7.46378C113.647 5.84015 114.448 4.51806 115.561 3.49749C116.698 2.45373 118.17 1.68831 119.98 1.20122C121.812 0.690937 124.05 0.412601 126.694 0.366211V4.54125C124.955 4.58764 123.505 4.73841 122.345 4.99355C121.209 5.22549 120.269 5.56182 119.527 6.00252C118.808 6.42002 118.252 6.9419 117.857 7.56816C117.463 8.19441 117.161 8.92505 116.953 9.76005C117.277 9.36574 117.672 9.01782 118.136 8.71629C118.53 8.46115 119.017 8.2292 119.597 8.02045C120.2 7.78851 120.884 7.67253 121.65 7.67253ZM120.78 18.9799C121.754 18.9799 122.577 18.6436 123.25 17.971C123.923 17.2983 124.259 16.4749 124.259 15.5007C124.259 14.5266 123.923 13.7031 123.25 13.0305C122.577 12.3579 121.754 12.0215 120.78 12.0215C119.806 12.0215 118.982 12.3579 118.31 13.0305C117.637 13.7031 117.301 14.5266 117.301 15.5007C117.301 16.4749 117.637 17.2983 118.31 17.971C118.982 18.6436 119.806 18.9799 120.78 18.9799Z" fill="#334B59"/>
<path d="M109.641 22.981H104.944V6.97668H109.641V22.981ZM97.8115 11.8476C98.6465 11.8476 99.4119 11.9983 100.108 12.2999C100.804 12.5782 101.407 12.9725 101.917 13.4828C102.427 13.9699 102.822 14.5497 103.1 15.2224C103.401 15.895 103.552 16.6257 103.552 17.4143C103.552 18.2029 103.401 18.9335 103.1 19.6062C102.822 20.2788 102.427 20.8703 101.917 21.3806C101.407 21.8677 100.804 22.262 100.108 22.5635C99.4119 22.8418 98.6465 22.981 97.8115 22.981H90.1572V6.97668H94.8541V11.8476H97.8115ZM96.9417 19.1539C97.5447 19.1539 98.0086 19.0031 98.3333 18.7016C98.6813 18.3769 98.8552 17.9478 98.8552 17.4143C98.8552 16.8808 98.6813 16.4633 98.3333 16.1618C98.0086 15.837 97.5447 15.6747 96.9417 15.6747H94.8541V19.1539H96.9417Z" fill="#334B59"/>
<path d="M86.6862 6.97668V22.981H81.9893V11.4996H78.3361L77.8142 17.7622C77.6751 19.5018 77.1184 20.8355 76.1442 21.7633C75.1701 22.6911 73.8132 23.155 72.0736 23.155C71.8416 23.155 71.6445 23.1434 71.4821 23.1202C71.3197 23.1202 71.1806 23.1086 71.0646 23.0854C70.9254 23.0622 70.7979 23.0274 70.6819 22.981V18.9799H71.2038C71.8996 18.9799 72.3983 18.8292 72.6998 18.5276C73.0014 18.2029 73.1985 17.5998 73.2913 16.7184L74.1611 6.97668H86.6862Z" fill="#334B59"/>
<path d="M72.5914 1.06201L65.633 16.7184C65.0763 17.9709 64.5429 19.0263 64.0326 19.8845C63.5223 20.7195 62.9888 21.3921 62.4321 21.9024C61.8755 22.4127 61.2608 22.7722 60.5882 22.981C59.9387 23.2129 59.1849 23.3289 58.3267 23.3289C57.7236 23.3289 57.1902 23.2709 56.7263 23.1549C56.4711 23.1085 56.2508 23.0506 56.0652 22.981V18.458C56.2044 18.5044 56.3551 18.5392 56.5175 18.5624C56.6567 18.5856 56.819 18.6088 57.0046 18.632C57.1902 18.632 57.3989 18.632 57.6309 18.632C58.1643 18.632 58.605 18.5392 58.9529 18.3536C59.3241 18.1681 59.6372 17.9477 59.8923 17.6926C60.1707 17.4143 60.4026 17.0895 60.5882 16.7184L53.4558 1.06201H58.6746L63.0236 10.8038L67.3726 1.06201H72.5914Z" fill="#334B59"/>
<path d="M160.69 33.1683V40.9942H159.128V38.3884H157.567L155.911 40.9942H154.171L155.996 38.1253C155.696 38.0121 155.436 37.8508 155.215 37.6415C155.017 37.4547 154.836 37.2143 154.672 36.92C154.514 36.6258 154.435 36.2466 154.435 35.7826C154.435 35.4091 154.5 35.064 154.63 34.7471C154.766 34.4245 154.952 34.1501 155.19 33.9238C155.428 33.6918 155.711 33.5079 156.039 33.372C156.373 33.2362 156.738 33.1683 157.134 33.1683H160.69ZM157.134 34.6452C156.834 34.6452 156.568 34.7584 156.336 34.9848C156.109 35.2111 155.996 35.4771 155.996 35.7826C155.996 36.0825 156.109 36.3457 156.336 36.572C156.562 36.7983 156.828 36.9115 157.134 36.9115H159.128V34.6452H157.134Z" fill="#334B59"/>
<path d="M151.749 33.1683V40.9942H150.187V35.5195L146.444 40.9942H144.882V33.1683H146.444V38.6515L150.187 33.1683H151.749Z" fill="#334B59"/>
<path d="M142.799 34.6452H139.056V40.9942H137.494V33.1683H142.799V34.6452Z" fill="#334B59"/>
<path d="M133.408 37.0813C133.408 36.7078 133.346 36.3683 133.222 36.0628C133.103 35.7572 132.944 35.4912 132.746 35.2649C132.548 35.0386 132.316 34.866 132.05 34.7471C131.784 34.6226 131.513 34.5604 131.235 34.5604C130.958 34.5604 130.687 34.6226 130.421 34.7471C130.155 34.866 129.923 35.0386 129.725 35.2649C129.527 35.4912 129.365 35.76 129.241 36.0712C129.122 36.3768 129.063 36.7135 129.063 37.0813C129.063 37.4548 129.122 37.7943 129.241 38.0999C129.365 38.4054 129.527 38.6714 129.725 38.8977C129.923 39.1241 130.155 39.2995 130.421 39.424C130.687 39.5428 130.958 39.6022 131.235 39.6022C131.513 39.6022 131.784 39.5428 132.05 39.424C132.316 39.2995 132.548 39.1241 132.746 38.8977C132.944 38.6714 133.103 38.4054 133.222 38.0999C133.346 37.7943 133.408 37.4548 133.408 37.0813ZM134.97 37.0813C134.97 37.6698 134.874 38.2102 134.682 38.7025C134.495 39.1892 134.229 39.6107 133.884 39.9672C133.544 40.318 133.148 40.5925 132.695 40.7905C132.243 40.9829 131.756 41.0791 131.235 41.0791C130.715 41.0791 130.228 40.9829 129.775 40.7905C129.323 40.5925 128.924 40.318 128.579 39.9672C128.239 39.6107 127.973 39.1892 127.781 38.7025C127.594 38.2159 127.501 37.6755 127.501 37.0813C127.501 36.4928 127.594 35.9552 127.781 35.4686C127.973 34.982 128.239 34.5632 128.579 34.2124C128.924 33.8559 129.323 33.5786 129.775 33.3806C130.228 33.1825 130.715 33.0835 131.235 33.0835C131.756 33.0835 132.243 33.1825 132.695 33.3806C133.148 33.5786 133.544 33.8559 133.884 34.2124C134.229 34.5632 134.495 34.982 134.682 35.4686C134.874 35.9552 134.97 36.4928 134.97 37.0813Z" fill="#334B59"/>
<path d="M124.976 33.1683V40.9942H123.406V34.6452H120.8L120.537 38.3884C120.481 39.2598 120.232 39.9276 119.79 40.3916C119.355 40.8499 118.763 41.0791 118.016 41.0791C117.948 41.0791 117.886 41.0763 117.83 41.0706C117.773 41.0649 117.714 41.0565 117.651 41.0451C117.595 41.0338 117.544 41.0168 117.499 40.9942V39.6871H117.668C118.466 39.6871 118.902 39.2542 118.975 38.3884L119.408 33.1683H124.976Z" fill="#334B59"/>
<path d="M114.626 37.0813C114.626 36.7078 114.564 36.3683 114.439 36.0628C114.321 35.7572 114.162 35.4912 113.964 35.2649C113.766 35.0386 113.534 34.866 113.268 34.7471C113.002 34.6226 112.73 34.5604 112.453 34.5604C112.176 34.5604 111.904 34.6226 111.638 34.7471C111.372 34.866 111.14 35.0386 110.942 35.2649C110.744 35.4912 110.583 35.76 110.459 36.0712C110.34 36.3768 110.28 36.7135 110.28 37.0813C110.28 37.4548 110.34 37.7943 110.459 38.0999C110.583 38.4054 110.744 38.6714 110.942 38.8977C111.14 39.1241 111.372 39.2995 111.638 39.424C111.904 39.5428 112.176 39.6022 112.453 39.6022C112.73 39.6022 113.002 39.5428 113.268 39.424C113.534 39.2995 113.766 39.1241 113.964 38.8977C114.162 38.6714 114.321 38.4054 114.439 38.0999C114.564 37.7943 114.626 37.4548 114.626 37.0813ZM116.188 37.0813C116.188 37.6698 116.092 38.2102 115.899 38.7025C115.713 39.1892 115.447 39.6107 115.101 39.9672C114.762 40.318 114.366 40.5925 113.913 40.7905C113.46 40.9829 112.974 41.0791 112.453 41.0791C111.933 41.0791 111.446 40.9829 110.993 40.7905C110.541 40.5925 110.142 40.318 109.796 39.9672C109.457 39.6107 109.191 39.1892 108.999 38.7025C108.812 38.2159 108.719 37.6755 108.719 37.0813C108.719 36.4928 108.812 35.9552 108.999 35.4686C109.191 34.982 109.457 34.5632 109.796 34.2124C110.142 33.8559 110.541 33.5786 110.993 33.3806C111.446 33.1825 111.933 33.0835 112.453 33.0835C112.974 33.0835 113.46 33.1825 113.913 33.3806C114.366 33.5786 114.762 33.8559 115.101 34.2124C115.447 34.5632 115.713 34.982 115.899 35.4686C116.092 35.9552 116.188 36.4928 116.188 37.0813Z" fill="#334B59"/>
<path d="M100.711 33.1683H107.136V34.6452H104.709V40.9942H103.138V34.6452H100.711V33.1683Z" fill="#334B59"/>
<path d="M95.7507 33.0835C96.2034 33.0835 96.6165 33.1571 96.9899 33.3042C97.3691 33.4456 97.6916 33.6409 97.9576 33.8898C98.2235 34.1388 98.4301 34.4331 98.5772 34.7726C98.7243 35.1065 98.7979 35.4714 98.7979 35.8675V40.9943H97.669L97.321 40.2134C97.1682 40.3775 96.9871 40.5218 96.7777 40.6462C96.591 40.7594 96.3562 40.8613 96.0732 40.9518C95.7903 41.0367 95.4508 41.0791 95.0547 41.0791C94.1833 41.0791 93.5155 40.8641 93.0515 40.434C92.5932 39.9983 92.364 39.4325 92.364 38.7365C92.364 38.3404 92.4376 37.9839 92.5847 37.667C92.7375 37.3444 92.995 37.0728 93.3571 36.8521C93.7249 36.6258 94.22 36.4504 94.8425 36.3259C95.4706 36.1957 96.2656 36.1307 97.2276 36.1307V35.8675C97.2276 35.4714 97.1031 35.1546 96.8541 34.9169C96.6052 34.6792 96.2373 34.5604 95.7507 34.5604C95.2301 34.5604 94.851 34.6538 94.6133 34.8405C94.3757 35.0272 94.2342 35.2536 94.1889 35.5195H92.6271C92.6724 34.8235 92.9638 34.2435 93.5014 33.7795C94.039 33.3155 94.7887 33.0835 95.7507 33.0835ZM95.1481 39.6871C95.8101 39.6871 96.3222 39.5174 96.6844 39.1778C97.0465 38.8383 97.2276 38.4252 97.2276 37.9386V37.5142C96.5316 37.5142 95.9686 37.5482 95.5385 37.6161C95.1141 37.6783 94.7802 37.766 94.5369 37.8792C94.2936 37.9867 94.1295 38.1225 94.0446 38.2866C93.9654 38.445 93.9258 38.6233 93.9258 38.8213C93.9258 39.042 94.0305 39.2429 94.2398 39.424C94.4492 39.5994 94.752 39.6871 95.1481 39.6871Z" fill="#334B59"/>
<path d="M85.0695 40.9942L82.9815 36.6484V40.9942H81.4197V33.1683H82.8117L85.5873 38.9062L88.3713 33.1683H89.7633V40.9942H88.2015V36.6484L86.1135 40.9942H85.0695Z" fill="#334B59"/>
<path d="M77.3336 37.0813C77.3336 36.7078 77.2714 36.3683 77.1469 36.0628C77.0281 35.7572 76.8696 35.4912 76.6716 35.2649C76.4735 35.0386 76.2415 34.866 75.9756 34.7471C75.7096 34.6226 75.438 34.5604 75.1607 34.5604C74.8834 34.5604 74.6118 34.6226 74.3459 34.7471C74.0799 34.866 73.8479 35.0386 73.6499 35.2649C73.4518 35.4912 73.2905 35.76 73.1661 36.0712C73.0472 36.3768 72.9878 36.7135 72.9878 37.0813C72.9878 37.4548 73.0472 37.7943 73.1661 38.0999C73.2905 38.4054 73.4518 38.6714 73.6499 38.8977C73.8479 39.1241 74.0799 39.2995 74.3459 39.424C74.6118 39.5428 74.8834 39.6022 75.1607 39.6022C75.438 39.6022 75.7096 39.5428 75.9756 39.424C76.2415 39.2995 76.4735 39.1241 76.6716 38.8977C76.8696 38.6714 77.0281 38.4054 77.1469 38.0999C77.2714 37.7943 77.3336 37.4548 77.3336 37.0813ZM78.8954 37.0813C78.8954 37.6698 78.7992 38.2102 78.6068 38.7025C78.4201 39.1892 78.1541 39.6107 77.809 39.9672C77.4694 40.318 77.0733 40.5925 76.6206 40.7905C76.168 40.9829 75.6813 41.0791 75.1607 41.0791C74.6401 41.0791 74.1535 40.9829 73.7008 40.7905C73.2481 40.5925 72.8492 40.318 72.504 39.9672C72.1645 39.6107 71.8985 39.1892 71.7061 38.7025C71.5194 38.2159 71.426 37.6755 71.426 37.0813C71.426 36.4928 71.5194 35.9552 71.7061 35.4686C71.8985 34.982 72.1645 34.5632 72.504 34.2124C72.8492 33.8559 73.2481 33.5786 73.7008 33.3806C74.1535 33.1825 74.6401 33.0835 75.1607 33.0835C75.6813 33.0835 76.168 33.1825 76.6206 33.3806C77.0733 33.5786 77.4694 33.8559 77.809 34.2124C78.1541 34.5632 78.4201 34.982 78.6068 35.4686C78.7992 35.9552 78.8954 36.4928 78.8954 37.0813Z" fill="#334B59"/>
<path d="M63.4185 33.1683H69.8438V34.6452H67.4163V40.9942H65.846V34.6452H63.4185V33.1683Z" fill="#334B59"/>
<path d="M61.7599 38.1253C61.6694 38.5441 61.5251 38.9345 61.327 39.2967C61.129 39.6532 60.8772 39.9644 60.5716 40.2303C60.2717 40.4963 59.9265 40.7057 59.5361 40.8584C59.1513 41.0056 58.7325 41.0791 58.2799 41.0791C57.7593 41.0791 57.2726 40.9829 56.8199 40.7905C56.3672 40.5925 55.9683 40.318 55.6231 39.9672C55.2836 39.6107 55.0177 39.1892 54.8253 38.7025C54.6385 38.2159 54.5452 37.6755 54.5452 37.0813C54.5452 36.4928 54.6385 35.9552 54.8253 35.4686C55.0177 34.982 55.2836 34.5632 55.6231 34.2124C55.9683 33.8559 56.3672 33.5786 56.8199 33.3806C57.2726 33.1825 57.7593 33.0835 58.2799 33.0835C58.7325 33.0835 59.1513 33.1599 59.5361 33.3127C59.9265 33.4598 60.2717 33.6692 60.5716 33.9408C60.8772 34.2067 61.1261 34.5208 61.3185 34.8829C61.5166 35.2394 61.6637 35.6242 61.7599 36.0373H60.1048C59.9746 35.5959 59.7596 35.2394 59.4597 34.9678C59.1598 34.6962 58.7665 34.5604 58.2799 34.5604C58.0026 34.5604 57.731 34.6226 57.465 34.7471C57.1991 34.866 56.9671 35.0386 56.769 35.2649C56.571 35.4912 56.4097 35.76 56.2852 36.0712C56.1664 36.3768 56.1069 36.7135 56.1069 37.0813C56.1069 37.4548 56.1664 37.7943 56.2852 38.0999C56.4097 38.4054 56.571 38.6714 56.769 38.8977C56.9671 39.1241 57.1991 39.2995 57.465 39.424C57.731 39.5428 58.0026 39.6022 58.2799 39.6022C58.7665 39.6022 59.1598 39.4664 59.4597 39.1948C59.7652 38.9232 59.9803 38.5667 60.1048 38.1253H61.7599Z" fill="#334B59"/>
<path d="M0 4.99588C0 2.23673 2.23673 0 4.99588 0H38.4683C41.2274 0 43.4642 2.23673 43.4642 4.99588V38.4683C43.4642 41.2274 41.2274 43.4642 38.4683 43.4642H4.99588C2.23673 43.4642 0 41.2274 0 38.4683V4.99588Z" fill="#00B4DD"/>
<path d="M34.6686 23.9588C33.1275 25.9095 31.165 27.4865 28.9282 28.5717C26.6915 29.6568 24.2381 30.222 21.752 30.2251C19.266 30.2281 16.8113 29.6689 14.5719 28.5892C12.3326 27.5095 10.3662 25.9374 8.82031 23.9905L12.3418 21.1944C13.4661 22.6104 14.8963 23.7536 16.5249 24.5388C18.1535 25.3241 19.9386 25.731 21.7467 25.7288C23.5547 25.7266 25.3388 25.3154 26.9655 24.5262C28.5922 23.737 30.0195 22.5902 31.1403 21.1715L34.6686 23.9588Z" fill="white"/>
</svg>
