<?xml version="1.0" encoding="utf-8"?><svg xmlns="http://www.w3.org/2000/svg" xmlns:xlink="http://www.w3.org/1999/xlink"><symbol viewBox="0 0 14 8" fill="none" id="icon-chevron-down"><path d="M0.530273 0.530273L6.53027 6.53027L12.5303 0.530273" stroke="currentColor" stroke-width="1.5"/></symbol><symbol viewBox="0 0 16 16" id="icon-cross"><path fill="currentColor" d="M7.293 8L3.146 3.854a.5.5 0 1 1 .708-.708L8 7.293l4.146-4.147a.5.5 0 0 1 .708.708L8.707 8l4.147 4.146a.5.5 0 0 1-.708.708L8 8.707l-4.146 4.147a.5.5 0 0 1-.708-.708z"/></symbol><symbol viewBox="0 0 15 15" fill="none" id="icon-double-arrow"><path d="M2.14062 1.479L7.39453 7.2583L2.14062 13.0376" stroke="currentColor" stroke-width="1.5"/><path d="M7.39453 1.479L12.6484 7.2583L7.39453 13.0376" stroke="currentColor" stroke-width="1.5"/></symbol><symbol viewBox="0 0 14 24" fill="none" id="icon-next"><path opacity="0.3" d="M0.707031 0.707031L11.707 11.707L0.707031 22.707" stroke="currentColor" stroke-width="2"/></symbol><symbol viewBox="0 0 22 22" fill="none" id="icon-phone"><path d="M9.67467 5.72037L6.57319 2.14032C6.21564 1.72777 5.56014 1.7296 5.14484 2.14582L2.59434 4.7009C1.83524 5.46092 1.61796 6.58948 2.0571 7.49435C4.68059 12.9263 9.06139 17.3132 14.4896 19.9443C15.3936 20.3834 16.5212 20.1662 17.2803 19.4061L19.8547 16.8272C20.2718 16.4101 20.2727 15.7509 19.8565 15.3934L16.2627 12.3084C15.8868 11.9857 15.3028 12.0279 14.926 12.4056L13.6755 13.6579C13.6115 13.725 13.5272 13.7692 13.4357 13.7838C13.3441 13.7984 13.2502 13.7825 13.1685 13.7386C11.1245 12.5615 9.42897 10.8637 8.25457 8.81819C8.21059 8.73637 8.19467 8.64237 8.20924 8.55063C8.22381 8.45889 8.26808 8.37446 8.33525 8.31029L9.58208 7.06254C9.95979 6.68299 10.001 6.09625 9.67467 5.71945V5.72037Z" stroke="currentColor" stroke-width="1.43917" stroke-linecap="round" stroke-linejoin="round"/></symbol><symbol viewBox="0 0 28 28" fill="none" id="icon-play"><path d="M25 0C26.6569 1.28851e-07 28 1.34315 28 3V25C28 26.6569 26.6569 28 25 28H3C1.34315 28 1.61066e-08 26.6569 0 25V3C1.28853e-07 1.34315 1.34315 1.61064e-08 3 0H25ZM11.0312 8.41406C10.9129 8.40871 10.7949 8.4333 10.6904 8.48535C10.5859 8.53742 10.4986 8.61524 10.4375 8.70996C10.3764 8.80481 10.344 8.91375 10.3438 9.02441V18.9756C10.344 19.0862 10.3764 19.1952 10.4375 19.29C10.4985 19.3846 10.5861 19.4616 10.6904 19.5137C10.7949 19.5657 10.9129 19.5913 11.0312 19.5859C11.1497 19.5805 11.2646 19.5448 11.3633 19.4834L19.3623 14.5088C19.4519 14.453 19.5253 14.3776 19.5762 14.2891C19.6272 14.2002 19.6543 14.1008 19.6543 14C19.6543 13.8992 19.6272 13.7998 19.5762 13.7109C19.5252 13.6222 19.4521 13.546 19.3623 13.4902L11.3633 8.5166C11.2646 8.4552 11.1497 8.41949 11.0312 8.41406Z" fill="currentColor"/></symbol><symbol viewBox="0 0 14 24" fill="none" id="icon-prev"><path opacity="0.3" d="M12.4143 0.707031L1.41431 11.707L12.4143 22.707" stroke="currentColor" stroke-width="2"/></symbol><symbol viewBox="0 0 20 20" fill="none" id="icon-search"><path d="M9.07914 1C4.62682 1 1 4.62558 1 9.07641C1 13.5272 4.62682 17.1599 9.07914 17.1599C10.9809 17.1599 12.7299 16.4936 14.1122 15.3875L17.4775 18.7498C17.6473 18.9126 17.8741 19.0024 18.1094 19C18.3446 18.9975 18.5695 18.9032 18.736 18.737C18.9025 18.5708 18.9972 18.3461 18.9999 18.111C19.0027 17.8758 18.9132 17.6489 18.7506 17.4789L15.3853 14.1148C16.4928 12.7308 17.16 10.9797 17.16 9.07641C17.16 4.62558 13.5315 1 9.07914 1ZM9.07914 2.79517C12.561 2.79517 15.3625 5.59577 15.3625 9.07641C15.3625 12.557 12.561 15.3647 9.07914 15.3647C5.59732 15.3647 2.79575 12.557 2.79575 9.07641C2.79575 5.59577 5.59732 2.79517 9.07914 2.79517Z" fill="currentColor"/></symbol><symbol viewBox="0 0 27 27" fill="none" id="icon-vk"><path d="M17.4307 0H9.25067C1.776 0 0 1.77733 0 9.236V17.4173C0 24.8893 1.764 26.6667 9.236 26.6667H17.4173C24.8893 26.6667 26.6667 24.9027 26.6667 17.4307V9.25067C26.6667 1.776 24.9027 0 17.4307 0ZM21.528 19.0267H19.5827C18.8467 19.0267 18.6253 18.4307 17.3053 17.1107C16.1533 16 15.6667 15.8613 15.3747 15.8613C14.972 15.8613 14.8613 15.972 14.8613 16.528V18.2773C14.8613 18.7507 14.708 19.028 13.472 19.028C12.2727 18.9465 11.1098 18.5817 10.0788 17.9636C9.04784 17.3454 8.17821 16.4915 7.54133 15.472C6.0298 13.5927 4.9787 11.3859 4.472 9.028C4.472 8.736 4.58267 8.472 5.13867 8.472H7.084C7.584 8.472 7.764 8.69467 7.95867 9.208C8.90267 11.9867 10.5133 14.4027 11.1667 14.4027C11.4173 14.4027 11.5267 14.292 11.5267 13.6667V10.8053C11.444 9.5 10.7507 9.38933 10.7507 8.91733C10.7596 8.79284 10.8166 8.67671 10.9097 8.59357C11.0028 8.51043 11.1246 8.46683 11.2493 8.472H14.3053C14.7227 8.472 14.8613 8.68 14.8613 9.18V13.0413C14.8613 13.4587 15.0413 13.5973 15.1667 13.5973C15.4173 13.5973 15.6107 13.4587 16.0693 13C17.0545 11.7986 17.8594 10.4601 18.4587 9.02667C18.5203 8.85474 18.6363 8.70758 18.7891 8.60749C18.9419 8.5074 19.1231 8.45984 19.3053 8.472H21.2507C21.8333 8.472 21.9573 8.764 21.8333 9.18C21.126 10.7646 20.2508 12.2688 19.2227 13.6667C19.0133 13.9867 18.9293 14.1533 19.2227 14.528C19.416 14.82 20.0973 15.3893 20.556 15.9307C21.2223 16.5957 21.7758 17.3649 22.1947 18.208C22.3613 18.7493 22.0827 19.0267 21.528 19.0267Z" fill="currentColor"/></symbol></svg>