<?xml version="1.0" encoding="utf-8"?>
<svg xmlns="http://www.w3.org/2000/svg" xmlns:xlink="http://www.w3.org/1999/xlink">
    <symbol viewBox="0 0 14 8" fill="none" id="icon-chevron-down">
        <path d="M0.530273 0.530273L6.53027 6.53027L12.5303 0.530273" stroke="currentColor"
            stroke-width="1.5" />
    </symbol>
    <symbol viewBox="0 0 22 22" fill="none" id="icon-clock">
        <path
            d="M11 2C9.76056 2 8.59155 2.23239 7.49296 2.69718C6.39436 3.16197 5.43662 3.80985 4.61972 4.64085C3.80281 5.47184 3.16197 6.42957 2.69718 7.51408C2.23239 8.5986 2 9.76056 2 11C2 12.2394 2.23239 13.4014 2.69718 14.4859C3.16197 15.5704 3.80281 16.5282 4.61972 17.3592C5.43662 18.1901 6.39436 18.838 7.49296 19.3028C8.59155 19.7676 9.76056 20 11 20C12.2394 20 13.4014 19.7676 14.4859 19.3028C15.5704 18.838 16.5282 18.1901 17.3592 17.3592C18.1901 16.5282 18.838 15.5704 19.3028 14.4859C19.7676 13.4014 20 12.2394 20 11C20 9.76056 19.7676 8.5986 19.3028 7.51408C18.838 6.42957 18.1901 5.47184 17.3592 4.64085C16.5282 3.80985 15.5704 3.16197 14.4859 2.69718C13.4014 2.23239 12.2394 2 11 2ZM13.9577 15.2254L10.1127 11.3803V6.47887H11.8873V10.6197L15.2254 13.9577L13.9577 15.2254Z"
            fill="currentColor" />
    </symbol>
    <symbol viewBox="0 0 16 16" id="icon-cross">
        <path fill="currentColor"
            d="M7.293 8L3.146 3.854a.5.5 0 1 1 .708-.708L8 7.293l4.146-4.147a.5.5 0 0 1 .708.708L8.707 8l4.147 4.146a.5.5 0 0 1-.708.708L8 8.707l-4.146 4.147a.5.5 0 0 1-.708-.708z" />
    </symbol>
    <symbol viewBox="0 0 15 15" fill="none" id="icon-double-arrow">
        <path d="M2.14062 1.479L7.39453 7.2583L2.14062 13.0376" stroke="currentColor"
            stroke-width="1.5" />
        <path d="M7.39453 1.479L12.6484 7.2583L7.39453 13.0376" stroke="currentColor"
            stroke-width="1.5" />
    </symbol>
    <symbol viewBox="0 0 22 22" fill="none" id="icon-email">
        <path
            d="M18.2254 7.6338V5.8169L11 10.338L3.77465 5.8169V7.6338L11 12.1127L18.2254 7.6338ZM18.2254 4C18.7042 4 19.1197 4.1831 19.4718 4.5493C19.8239 4.91549 20 5.33803 20 5.8169V16.6338C20 17.1127 19.8239 17.5352 19.4718 17.9014C19.1197 18.2676 18.7042 18.4507 18.2254 18.4507H3.77465C3.29577 18.4507 2.88028 18.2676 2.52817 17.9014C2.17605 17.5352 2 17.1127 2 16.6338V5.8169C2 5.33803 2.17605 4.91549 2.52817 4.5493C2.88028 4.1831 3.29577 4 3.77465 4H18.2254Z"
            fill="currentColor" />
    </symbol>
    <symbol viewBox="0 0 32 32" fill="none" id="icon-info">
        <circle cx="16.0003" cy="16" r="14.2423" transform="rotate(1 16.0003 16)"
            fill="#fff" />
        <path fill-rule="evenodd" clip-rule="evenodd"
            d="M15.9997 1.33337C7.89967 1.33337 1.33301 7.90004 1.33301 16C1.33301 24.1 7.89967 30.6667 15.9997 30.6667C24.0997 30.6667 30.6663 24.1 30.6663 16C30.6663 7.90004 24.0997 1.33337 15.9997 1.33337ZM15.333 8.00004C14.9794 8.00004 14.6402 8.14052 14.3902 8.39057C14.1402 8.64061 13.9997 8.97975 13.9997 9.33337C13.9997 9.687 14.1402 10.0261 14.3902 10.2762C14.6402 10.5262 14.9794 10.6667 15.333 10.6667H15.9997C16.3533 10.6667 16.6924 10.5262 16.9425 10.2762C17.1925 10.0261 17.333 9.687 17.333 9.33337C17.333 8.97975 17.1925 8.64061 16.9425 8.39057C16.6924 8.14052 16.3533 8.00004 15.9997 8.00004H15.333ZM13.333 13.3334C12.9794 13.3334 12.6402 13.4739 12.3902 13.7239C12.1402 13.9739 11.9997 14.3131 11.9997 14.6667C11.9997 15.0203 12.1402 15.3595 12.3902 15.6095C12.6402 15.8596 12.9794 16 13.333 16H14.6663V20H13.333C12.9794 20 12.6402 20.1405 12.3902 20.3906C12.1402 20.6406 11.9997 20.9798 11.9997 21.3334C11.9997 21.687 12.1402 22.0261 12.3902 22.2762C12.6402 22.5262 12.9794 22.6667 13.333 22.6667H18.6663C19.02 22.6667 19.3591 22.5262 19.6091 22.2762C19.8592 22.0261 19.9997 21.687 19.9997 21.3334C19.9997 20.9798 19.8592 20.6406 19.6091 20.3906C19.3591 20.1405 19.02 20 18.6663 20H17.333V14.6667C17.333 14.3131 17.1925 13.9739 16.9425 13.7239C16.6924 13.4739 16.3533 13.3334 15.9997 13.3334H13.333Z"
            fill="#19E7B4" />
    </symbol>
    <symbol viewBox="0 0 22 22" fill="none" id="icon-location">
        <path
            d="M11 0.458252C8.8041 0.460843 6.69886 1.33432 5.14611 2.88707C3.59336 4.43982 2.71988 6.54507 2.71729 8.74099C2.71527 10.5354 3.30138 12.281 4.38589 13.7106C4.38589 13.7106 4.61178 14.0081 4.64867 14.051L11 21.5416L17.3544 14.0472C17.3875 14.0073 17.6142 13.7106 17.6142 13.7106L17.6149 13.7084C18.6987 12.2793 19.2845 10.5345 19.2828 8.74099C19.2802 6.54507 18.4067 4.43982 16.8539 2.88707C15.3012 1.33432 13.196 0.460843 11 0.458252ZM11 11.7529C10.4043 11.7529 9.82201 11.5763 9.3267 11.2453C8.8314 10.9143 8.44535 10.444 8.21739 9.8936C7.98943 9.34324 7.92978 8.73765 8.046 8.1534C8.16221 7.56914 8.44907 7.03247 8.87029 6.61125C9.29151 6.19003 9.82818 5.90317 10.4124 5.78696C10.9967 5.67074 11.6023 5.73039 12.1526 5.95835C12.703 6.18632 13.1734 6.57236 13.5043 7.06767C13.8353 7.56297 14.0119 8.14529 14.0119 8.74099C14.0109 9.53949 13.6933 10.305 13.1287 10.8696C12.564 11.4343 11.7985 11.7519 11 11.7529Z"
            fill="currentColor" />
    </symbol>
    <symbol viewBox="0 0 22 22" fill="none" id="icon-map">
        <path
            d="M13.2898 19.5503L8.0768 17.7233L3.54589 19.4772C3.3835 19.5421 3.22499 19.5626 3.07039 19.5386C2.91579 19.5145 2.77385 19.4616 2.64458 19.3797C2.51531 19.2979 2.41398 19.1884 2.34057 19.0514C2.26717 18.9143 2.23047 18.7558 2.23047 18.5759V4.91006C2.23047 4.69895 2.29153 4.51219 2.41365 4.34979C2.53578 4.18739 2.70207 4.06559 2.91254 3.9844L7.44345 2.44973C7.54089 2.41725 7.64255 2.39289 7.74843 2.37665C7.85432 2.36041 7.96377 2.35229 8.0768 2.35229C8.18983 2.35229 8.29961 2.36041 8.40614 2.37665C8.51268 2.39289 8.61401 2.41725 8.71015 2.44973L13.9231 4.27671L18.454 2.52281C18.6164 2.45785 18.7749 2.43772 18.9295 2.4624C19.0841 2.48709 19.2261 2.5397 19.3553 2.62025C19.4846 2.7008 19.5863 2.81058 19.6603 2.9496C19.7344 3.08861 19.7708 3.24678 19.7695 3.42412V17.0899C19.7695 17.301 19.7087 17.4878 19.5873 17.6502C19.4658 17.8126 19.2992 17.9344 19.0874 18.0156L14.5565 19.5503C14.459 19.5827 14.3577 19.6071 14.2525 19.6233C14.1472 19.6396 14.0375 19.6477 13.9231 19.6477C13.8088 19.6477 13.6993 19.6396 13.5948 19.6233C13.4902 19.6071 13.3885 19.5827 13.2898 19.5503ZM12.9487 17.3822V5.98189L9.05119 4.61775V16.0181L12.9487 17.3822Z"
            fill="currentColor" />
    </symbol>
    <symbol viewBox="0 0 14 24" fill="none" id="icon-next">
        <path opacity="0.3" d="M0.707031 0.707031L11.707 11.707L0.707031 22.707"
            stroke="currentColor" stroke-width="2" />
    </symbol>
    <symbol viewBox="0 0 22 22" fill="none" id="icon-phone">
        <path
            d="M9.67467 5.72037L6.57319 2.14032C6.21564 1.72777 5.56014 1.7296 5.14484 2.14582L2.59434 4.7009C1.83524 5.46092 1.61796 6.58948 2.0571 7.49435C4.68059 12.9263 9.06139 17.3132 14.4896 19.9443C15.3936 20.3834 16.5212 20.1662 17.2803 19.4061L19.8547 16.8272C20.2718 16.4101 20.2727 15.7509 19.8565 15.3934L16.2627 12.3084C15.8868 11.9857 15.3028 12.0279 14.926 12.4056L13.6755 13.6579C13.6115 13.725 13.5272 13.7692 13.4357 13.7838C13.3441 13.7984 13.2502 13.7825 13.1685 13.7386C11.1245 12.5615 9.42897 10.8637 8.25457 8.81819C8.21059 8.73637 8.19467 8.64237 8.20924 8.55063C8.22381 8.45889 8.26808 8.37446 8.33525 8.31029L9.58208 7.06254C9.95979 6.68299 10.001 6.09625 9.67467 5.71945V5.72037Z"
            stroke="currentColor" stroke-width="1.43917" stroke-linecap="round"
            stroke-linejoin="round" />
    </symbol>
    <symbol viewBox="0 0 22 22" fill="none" id="icon-phone-fill">
        <path
            d="M19.6472 15.2469V18.6444C19.6473 18.8876 19.5552 19.1219 19.3893 19.2999C19.2235 19.4778 18.9963 19.5863 18.7537 19.6033C18.3341 19.6327 17.9914 19.6475 17.7256 19.6475C9.23487 19.6475 2.35254 12.7652 2.35254 4.27442C2.35254 4.00923 2.36727 3.66654 2.39674 3.24634C2.41376 3.00368 2.5222 2.77651 2.70017 2.61067C2.87813 2.44484 3.11237 2.35267 3.35563 2.35278H6.75308C6.87226 2.35266 6.98723 2.39685 7.07565 2.47675C7.16408 2.55665 7.21965 2.66657 7.23156 2.78515C7.25334 3.0055 7.27384 3.18229 7.29306 3.31552C7.48399 4.6481 7.8753 5.94416 8.45372 7.15975C8.545 7.35191 8.48543 7.58155 8.31248 7.70453L6.23904 9.18611C7.50704 12.1399 9.86105 14.4939 12.8149 15.7619L14.2945 13.6923C14.3548 13.6075 14.443 13.5466 14.5437 13.5204C14.6444 13.4942 14.7511 13.5044 14.8451 13.5492C16.0605 14.1265 17.3562 14.5168 18.6883 14.707C18.8216 14.7262 18.9977 14.7467 19.2168 14.7685C19.3352 14.7806 19.4449 14.8363 19.5246 14.9247C19.6043 15.0131 19.6474 15.1279 19.6472 15.2469Z"
            fill="currentColor" />
    </symbol>
    <symbol viewBox="0 0 28 28" fill="none" id="icon-play">
        <path
            d="M25 0C26.6569 1.28851e-07 28 1.34315 28 3V25C28 26.6569 26.6569 28 25 28H3C1.34315 28 1.61066e-08 26.6569 0 25V3C1.28853e-07 1.34315 1.34315 1.61064e-08 3 0H25ZM11.0312 8.41406C10.9129 8.40871 10.7949 8.4333 10.6904 8.48535C10.5859 8.53742 10.4986 8.61524 10.4375 8.70996C10.3764 8.80481 10.344 8.91375 10.3438 9.02441V18.9756C10.344 19.0862 10.3764 19.1952 10.4375 19.29C10.4985 19.3846 10.5861 19.4616 10.6904 19.5137C10.7949 19.5657 10.9129 19.5913 11.0312 19.5859C11.1497 19.5805 11.2646 19.5448 11.3633 19.4834L19.3623 14.5088C19.4519 14.453 19.5253 14.3776 19.5762 14.2891C19.6272 14.2002 19.6543 14.1008 19.6543 14C19.6543 13.8992 19.6272 13.7998 19.5762 13.7109C19.5252 13.6222 19.4521 13.546 19.3623 13.4902L11.3633 8.5166C11.2646 8.4552 11.1497 8.41949 11.0312 8.41406Z"
            fill="currentColor" />
    </symbol>
    <symbol viewBox="0 0 14 24" fill="none" id="icon-prev">
        <path opacity="0.3" d="M12.4143 0.707031L1.41431 11.707L12.4143 22.707"
            stroke="currentColor" stroke-width="2" />
    </symbol>
    <symbol viewBox="0 0 20 20" fill="none" id="icon-search">
        <path
            d="M9.07914 1C4.62682 1 1 4.62558 1 9.07641C1 13.5272 4.62682 17.1599 9.07914 17.1599C10.9809 17.1599 12.7299 16.4936 14.1122 15.3875L17.4775 18.7498C17.6473 18.9126 17.8741 19.0024 18.1094 19C18.3446 18.9975 18.5695 18.9032 18.736 18.737C18.9025 18.5708 18.9972 18.3461 18.9999 18.111C19.0027 17.8758 18.9132 17.6489 18.7506 17.4789L15.3853 14.1148C16.4928 12.7308 17.16 10.9797 17.16 9.07641C17.16 4.62558 13.5315 1 9.07914 1ZM9.07914 2.79517C12.561 2.79517 15.3625 5.59577 15.3625 9.07641C15.3625 12.557 12.561 15.3647 9.07914 15.3647C5.59732 15.3647 2.79575 12.557 2.79575 9.07641C2.79575 5.59577 5.59732 2.79517 9.07914 2.79517Z"
            fill="currentColor" />
    </symbol>
    <symbol viewBox="0 0 22 22" fill="none" id="icon-subway">
        <path
            d="M15.2 2.19995C15.9583 2.19995 16.6146 2.47703 17.1687 3.0312C17.7229 3.58537 18 4.24161 18 4.99995V15.15C18 15.9083 17.7229 16.5645 17.1687 17.1187C16.6146 17.6729 15.9583 17.95 15.2 17.95H6.8C6.04166 17.95 5.38542 17.6729 4.83125 17.1187C4.27708 16.5645 4 15.9083 4 15.15V4.99995C4 4.24161 4.27708 3.58537 4.83125 3.0312C5.38542 2.47703 6.04166 2.19995 6.8 2.19995H15.2ZM8.55 3.24995C8.31667 3.24995 8.2 3.36662 8.2 3.59995C8.2 3.83329 8.31667 3.94995 8.55 3.94995H13.45C13.6833 3.94995 13.8 3.83329 13.8 3.59995C13.8 3.36662 13.6833 3.24995 13.45 3.24995H8.55ZM6.275 16.2C6.50833 16.4333 6.8 16.55 7.15 16.55C7.5 16.55 7.79167 16.4333 8.025 16.2C8.25833 15.9666 8.375 15.675 8.375 15.325C8.375 14.9749 8.25833 14.6833 8.025 14.45C7.79167 14.2166 7.5 14.1 7.15 14.1C6.8 14.1 6.50833 14.2166 6.275 14.45C6.04167 14.6833 5.925 14.9749 5.925 15.325C5.925 15.675 6.04167 15.9666 6.275 16.2ZM13.975 16.2C14.2083 16.4333 14.5 16.55 14.85 16.55C15.2 16.55 15.4917 16.4333 15.725 16.2C15.9583 15.9666 16.075 15.675 16.075 15.325C16.075 14.9749 15.9583 14.6833 15.725 14.45C15.4917 14.2166 15.2 14.1 14.85 14.1C14.5 14.1 14.2083 14.2166 13.975 14.45C13.7417 14.6833 13.625 14.9749 13.625 15.325C13.625 15.675 13.7417 15.9666 13.975 16.2ZM16.6 9.89995V5.69995C16.6 5.23328 16.3667 4.99995 15.9 4.99995H6.1C5.63333 4.99995 5.4 5.23328 5.4 5.69995V9.89995C5.4 10.3666 5.63333 10.6 6.1 10.6H15.9C16.3667 10.6 16.6 10.3666 16.6 9.89995ZM17.0375 20.75C17.3583 21.0125 17.3583 21.3041 17.0375 21.625C16.9208 21.7416 16.775 21.8 16.6 21.8C16.425 21.8 16.2792 21.7416 16.1625 21.625L15.55 21.0125H6.45L5.8375 21.625C5.72083 21.7416 5.575 21.8 5.4 21.8C5.225 21.8 5.07917 21.7416 4.9625 21.625C4.67083 21.2749 4.67083 20.9833 4.9625 20.75L7.15 18.65C7.5 18.3583 7.79167 18.3583 8.025 18.65C8.31667 19 8.31667 19.2916 8.025 19.525L7.7625 19.7875H14.2375L13.975 19.525C13.6833 19.2916 13.6833 19 13.975 18.65C14.2083 18.3583 14.5 18.3583 14.85 18.65L17.0375 20.75Z"
            fill="currentColor" />
    </symbol>
    <symbol viewBox="0 0 27 27" fill="none" id="icon-vk">
        <path
            d="M17.4307 0H9.25067C1.776 0 0 1.77733 0 9.236V17.4173C0 24.8893 1.764 26.6667 9.236 26.6667H17.4173C24.8893 26.6667 26.6667 24.9027 26.6667 17.4307V9.25067C26.6667 1.776 24.9027 0 17.4307 0ZM21.528 19.0267H19.5827C18.8467 19.0267 18.6253 18.4307 17.3053 17.1107C16.1533 16 15.6667 15.8613 15.3747 15.8613C14.972 15.8613 14.8613 15.972 14.8613 16.528V18.2773C14.8613 18.7507 14.708 19.028 13.472 19.028C12.2727 18.9465 11.1098 18.5817 10.0788 17.9636C9.04784 17.3454 8.17821 16.4915 7.54133 15.472C6.0298 13.5927 4.9787 11.3859 4.472 9.028C4.472 8.736 4.58267 8.472 5.13867 8.472H7.084C7.584 8.472 7.764 8.69467 7.95867 9.208C8.90267 11.9867 10.5133 14.4027 11.1667 14.4027C11.4173 14.4027 11.5267 14.292 11.5267 13.6667V10.8053C11.444 9.5 10.7507 9.38933 10.7507 8.91733C10.7596 8.79284 10.8166 8.67671 10.9097 8.59357C11.0028 8.51043 11.1246 8.46683 11.2493 8.472H14.3053C14.7227 8.472 14.8613 8.68 14.8613 9.18V13.0413C14.8613 13.4587 15.0413 13.5973 15.1667 13.5973C15.4173 13.5973 15.6107 13.4587 16.0693 13C17.0545 11.7986 17.8594 10.4601 18.4587 9.02667C18.5203 8.85474 18.6363 8.70758 18.7891 8.60749C18.9419 8.5074 19.1231 8.45984 19.3053 8.472H21.2507C21.8333 8.472 21.9573 8.764 21.8333 9.18C21.126 10.7646 20.2508 12.2688 19.2227 13.6667C19.0133 13.9867 18.9293 14.1533 19.2227 14.528C19.416 14.82 20.0973 15.3893 20.556 15.9307C21.2223 16.5957 21.7758 17.3649 22.1947 18.208C22.3613 18.7493 22.0827 19.0267 21.528 19.0267Z"
            fill="currentColor" />
    </symbol>
</svg>