<?xml version="1.0" encoding="utf-8"?><svg xmlns="http://www.w3.org/2000/svg" xmlns:xlink="http://www.w3.org/1999/xlink"><symbol viewBox="0 0 53 54" fill="none" id="icon-close"><path d="M7.86719 8.60156C13.0234 3.44531 19.2344 0.867188 26.5 0.867188C33.7656 0.867188 39.9375 3.44531 45.0156 8.60156C50.1719 13.6797 52.75 19.8516 52.75 27.1172C52.75 34.3828 50.1719 40.5938 45.0156 45.75C39.9375 50.8281 33.7656 53.3672 26.5 53.3672C19.2344 53.3672 13.0234 50.8281 7.86719 45.75C2.78906 40.5938 0.25 34.3828 0.25 27.1172C0.25 19.8516 2.78906 13.6797 7.86719 8.60156ZM39.1562 35.9062L30.3672 27.1172L39.2734 18.3281C39.7422 17.8594 39.7422 17.3906 39.2734 16.9219L36.6953 14.4609C36.4609 14.2266 36.2266 14.1094 35.9922 14.1094C35.8359 14.1094 35.6406 14.2266 35.4062 14.4609L26.5 23.1328L17.5938 14.4609C17.3594 14.2266 17.1641 14.1094 17.0078 14.1094C16.7734 14.1094 16.5391 14.2266 16.3047 14.4609L13.8438 16.9219C13.375 17.3906 13.375 17.8594 13.8438 18.3281L22.75 27.1172L13.8438 36.0234C13.6875 36.1016 13.6094 36.2969 13.6094 36.6094C13.6094 36.9219 13.6875 37.1562 13.8438 37.3125L16.3047 39.8906C16.4609 40.0469 16.6953 40.125 17.0078 40.125C17.3203 40.125 17.5547 40.0469 17.7109 39.8906L26.5 30.9844L35.4062 39.7734C35.6406 40.0078 35.8359 40.125 35.9922 40.125C36.2266 40.125 36.4609 40.0078 36.6953 39.7734L39.1562 37.3125C39.3906 37.1562 39.5078 36.9219 39.5078 36.6094C39.5078 36.375 39.3906 36.1406 39.1562 35.9062Z" fill="currentColor"/></symbol><symbol viewBox="0 0 55 32" fill="none" id="icon-down"><path d="M27.5 21.4219L47.8906 1.85156C48.5156 1.22656 49.1406 1.22656 49.7656 1.85156L53.3984 5.36719C54.0234 5.99219 54.0234 6.61719 53.3984 7.24219L28.4375 31.1484C28.2031 31.3828 27.8906 31.5 27.5 31.5C27.1094 31.5 26.7969 31.3828 26.5625 31.1484L1.60156 7.24219C0.976562 6.61719 0.976562 5.99219 1.60156 5.36719L5.23438 1.85156C5.85938 1.22656 6.48438 1.22656 7.10938 1.85156L27.5 21.4219Z" fill="currentColor"/></symbol><symbol viewBox="0 0 60 53" fill="none" id="icon-eco"><path d="M26.8378 52.2373C33.4088 52.2373 40.0199 49.8393 45.0848 45.5053C49.0034 42.1455 54.3882 35.3136 57.7604 21.8121C59.853 13.4065 60.3462 5.43801 59.5864 2.60283C59.2665 1.39132 58.6001 0.654419 57.6138 0.404622C56.7474 0.192296 55.8277 0.454582 55.1746 1.11654C49.19 7.0492 42.9122 8.04838 36.2745 9.08504C31.0097 9.90936 25.5716 10.7712 20.1335 14.0685C14.0289 17.753 9.87035 22.7239 8.07098 28.4193C6.35158 33.8898 7.04467 39.5352 10.0436 44.3188C12.5894 48.378 17.3611 51.1757 23.1457 52C24.372 52.1749 25.6116 52.2623 26.8511 52.2623V52.2373H26.8378ZM55.6545 6.17491C55.6545 9.135 55.2279 14.1684 53.7618 20.2634C51.3493 30.3302 47.244 38.2487 42.2191 42.5577C39.6467 44.7559 36.5278 46.4171 33.1956 47.3413C30.0633 48.2156 26.8111 48.4529 23.7855 48.0282C19.2138 47.3788 15.6417 45.3429 13.7224 42.2829C11.3365 38.4735 10.7767 33.9398 12.1629 29.5433C13.6557 24.7847 17.2145 20.5881 22.4527 17.4282C27.1577 14.5806 31.9294 13.8312 36.9943 13.0318C43.1521 12.0576 49.5099 11.0584 55.6678 6.1874H55.6545V6.17491Z" fill="currentColor"/><path d="M2.20635 46.2923C2.31298 46.2923 2.41961 46.2923 2.53957 46.2673C17.9742 44.0441 30.3166 38.2239 42.5923 27.3827C43.4454 26.6208 43.4853 25.3594 42.6856 24.56C41.8726 23.7607 40.5264 23.7232 39.6733 24.4726C28.064 34.7142 16.4147 40.2222 1.88646 42.308C0.726856 42.4704 -0.0728645 43.4945 0.10041 44.5812C0.260353 45.5679 1.16671 46.2798 2.20635 46.2798V46.2923Z" fill="currentColor"/></symbol><symbol viewBox="0 0 145 144" fill="none" id="icon-flash-off-outline"><path d="M122 126C120.819 126 119.666 125.522 118.822 124.678L19.8219 25.6781C18.1062 23.8781 18.1906 21.0375 19.9906 19.3219C21.7344 17.6625 24.4625 17.6625 26.1781 19.3219L125.178 118.322C126.922 120.094 126.922 122.934 125.178 124.678C123.434 126.422 123.181 126 122 126Z" fill="currentColor"/><path d="M83.2718 23.7094L77.0562 57.6844C76.7468 59.3719 77.4218 61.0875 78.7999 62.1C79.6156 62.6906 80.5999 63 81.5843 63H108.05L97.2499 76.3313C96.8843 76.7813 96.9124 77.4281 97.3343 77.8219L102.144 82.6312C102.594 83.0813 103.297 83.0813 103.747 82.6312L103.831 82.5469L120.931 61.3969C121.859 60.2719 122.197 58.7813 121.859 57.3469C121.353 55.35 119.553 53.9719 117.5 53.9719H86.8999L94.8312 10.5469C94.8312 10.4625 94.8593 10.3781 94.8593 10.2937C95.2249 7.45312 93.1999 4.86562 90.3593 4.5C88.5593 4.275 86.7593 5.00625 85.6343 6.44062L59.5906 38.6437C59.2249 39.0938 59.2531 39.7406 59.6749 40.1625L64.4843 44.9719C64.9343 45.4219 65.6374 45.4219 66.0874 44.9719L66.1718 44.8875L83.2999 23.7094H83.2718Z" fill="currentColor"/><path d="M61.7563 120.263L67.9438 86.3156C68.2532 84.6281 67.5782 82.9125 66.2 81.9C65.3844 81.3094 64.4 81 63.4157 81H36.95L47.75 67.6688C48.1157 67.2188 48.0875 66.5719 47.6657 66.1781L42.8563 61.3688C42.4063 60.9188 41.7032 60.9188 41.2532 61.3688L41.1688 61.4531L24.0407 82.6031C23.1125 83.7281 22.775 85.2188 23.1125 86.6531C23.6188 88.65 25.4188 90.0281 27.4719 90.0281H58.0719L50.1688 133.453C49.6907 136.294 51.575 138.966 54.3875 139.444C56.2438 139.753 58.1282 139.05 59.3094 137.559L85.3532 105.356C85.7188 104.906 85.6907 104.259 85.2688 103.838L80.4594 99.0281C80.0094 98.5781 79.3063 98.5781 78.8563 99.0281L78.7719 99.1125L61.6719 120.234H61.7563V120.263Z" fill="currentColor"/></symbol><symbol viewBox="0 0 45 45" fill="none" id="icon-home"><path d="M45 26.25H39.375V45H28.125V30H16.875V45H5.625V26.25H0L22.5 0L45 26.25Z" fill="currentColor"/></symbol><symbol viewBox="0 0 70 66" fill="none" id="icon-print"><path d="M61.25 10.5C63.6458 10.5 65.6771 11.2812 67.3438 12.8438C69.1146 14.3021 70 16.3854 70 19.0938V39.5625C70 41.9583 69.1146 43.9896 67.3438 45.6562C65.5729 47.2188 63.5417 48 61.25 48H55V65.5H53.75H52.5H17.5H15.7812H15V48H8.75C6.45833 48 4.42708 47.1146 2.65625 45.3438C0.885417 43.4688 0 41.125 0 38.3125V19.0938C0 16.2812 0.833333 14.1458 2.5 12.6875C4.27083 11.2292 6.35417 10.5 8.75 10.5H15V0.5H55V10.5H61.25ZM52.5 63V35.5H17.5V63H52.5ZM52.5 10.5V3H17.5V10.5H52.5ZM60 20.5V18H57.3438V20.5H60ZM20 43V40.5H50V43H20ZM20 50.5V48H50V50.5H20ZM20 58V55.5H50V58H20Z" fill="currentColor"/></symbol><symbol viewBox="0 0 31 55" fill="none" id="icon-right"><path d="M20.9219 27.5L1.35156 7.10938C0.726562 6.48438 0.726562 5.85937 1.35156 5.23438L4.86719 1.71875C5.57031 1.09375 6.19531 1.05469 6.74219 1.60156L30.6484 26.5625C30.8828 26.7969 31 27.1094 31 27.5C31 27.8906 30.8828 28.2031 30.6484 28.4375L6.74219 53.3984C6.11719 54.0234 5.49219 54.0234 4.86719 53.3984L1.35156 49.7656C0.726562 49.1406 0.726562 48.5156 1.35156 47.8906L20.9219 27.5Z" fill="currentColor"/></symbol><symbol viewBox="0 0 55 32" fill="none" id="icon-up"><path d="M27.5 11.4609L7.1094 31.0312C6.4844 31.6562 5.8594 31.6562 5.2344 31.0312L1.6016 27.5156C0.976601 26.8906 0.976601 26.2656 1.6016 25.6406L26.5625 1.73441C26.7969 1.50001 27.1094 1.38281 27.5 1.38281C27.8906 1.38281 28.2031 1.50001 28.4375 1.73441L53.3984 25.6406C54.0234 26.2656 54.0234 26.8906 53.3984 27.5156L49.7656 31.0312C49.1406 31.6562 48.5156 31.6562 47.8906 31.0312L27.5 11.4609Z" fill="currentColor"/></symbol></svg>