<svg width="185" height="50" viewBox="0 0 185 50" fill="none" xmlns="http://www.w3.org/2000/svg">
<path d="M176.517 7.53857C177.598 7.53857 178.601 7.72322 179.524 8.09251C180.447 8.4618 181.239 8.98936 181.898 9.67518C182.584 10.3346 183.111 11.126 183.481 12.0492C183.85 12.9724 184.035 13.9748 184.035 15.0563V26.1349H180.078L179.287 24.3544C178.838 24.7237 178.337 25.0535 177.783 25.3436C177.308 25.6074 176.741 25.8448 176.082 26.0558C175.449 26.2405 174.736 26.3328 173.945 26.3328C171.967 26.3328 170.45 25.858 169.395 24.9084C168.34 23.9324 167.812 22.6926 167.812 21.1891C167.812 20.2923 167.984 19.4745 168.327 18.736C168.696 17.971 169.303 17.3247 170.147 16.7972C170.991 16.2433 172.099 15.8212 173.47 15.5311C174.868 15.2145 176.609 15.0563 178.693 15.0563C178.693 14.1594 178.469 13.4736 178.02 12.9988C177.572 12.524 177.005 12.2866 176.319 12.2866C175.818 12.2866 175.409 12.3921 175.093 12.6031C174.802 12.7878 174.565 12.9856 174.38 13.1966C174.169 13.4604 174.024 13.7506 173.945 14.0671L168.604 13.6714C168.762 12.7746 169.039 11.9569 169.434 11.2183C169.83 10.4533 170.345 9.80707 170.978 9.27951C171.637 8.72558 172.428 8.30353 173.352 8.01338C174.275 7.69684 175.33 7.53857 176.517 7.53857ZM175.33 22.3761C176.332 22.3761 177.137 22.0728 177.744 21.4661C178.377 20.833 178.693 20.0153 178.693 19.0129V18.2216C177.559 18.2216 176.622 18.2875 175.884 18.4194C175.172 18.5249 174.605 18.6832 174.183 18.8942C173.787 19.1053 173.51 19.3558 173.352 19.646C173.22 19.9362 173.154 20.2527 173.154 20.5956C173.154 21.0968 173.338 21.5188 173.708 21.8617C174.103 22.2046 174.644 22.3761 175.33 22.3761Z" fill="white"/>
<path d="M160.706 26.1348L155.166 18.0236V26.1348H149.825V7.93408H155.166V15.2539L160.112 7.93408H166.245L160.112 16.6388L166.839 26.1348H160.706Z" fill="white"/>
<path d="M138.344 8.72552C139.531 8.72552 140.626 8.93654 141.628 9.35859C142.657 9.78063 143.541 10.3873 144.279 11.1787C145.018 11.9436 145.598 12.88 146.02 13.9879C146.442 15.0694 146.653 16.2828 146.653 17.628C146.653 18.8678 146.416 20.0284 145.941 21.1099C145.493 22.1914 144.846 23.141 144.002 23.9587C143.185 24.75 142.209 25.3831 141.074 25.8579C139.94 26.3063 138.7 26.5306 137.355 26.5306C136.01 26.5306 134.757 26.28 133.596 25.7788C132.462 25.2512 131.46 24.4995 130.589 23.5235C129.745 22.5475 129.073 21.3473 128.571 19.9229C128.097 18.4985 127.859 16.8763 127.859 15.0562C127.859 12.4975 128.136 10.3082 128.69 8.48812C129.244 6.64167 130.154 5.13813 131.42 3.97751C132.713 2.79051 134.388 1.92004 136.445 1.36611C138.529 0.785794 141.074 0.46926 144.081 0.416504V5.16451C142.103 5.21727 140.455 5.38873 139.136 5.67888C137.843 5.94266 136.775 6.32514 135.931 6.82631C135.113 7.30112 134.48 7.89462 134.032 8.60682C133.583 9.31902 133.24 10.1499 133.003 11.0995C133.372 10.6511 133.821 10.2554 134.348 9.91252C134.797 9.62236 135.35 9.35859 136.01 9.12119C136.696 8.85741 137.474 8.72552 138.344 8.72552ZM137.355 21.5847C138.463 21.5847 139.399 21.2022 140.164 20.4373C140.929 19.6723 141.312 18.7359 141.312 17.628C141.312 16.5202 140.929 15.5838 140.164 14.8188C139.399 14.0538 138.463 13.6714 137.355 13.6714C136.247 13.6714 135.311 14.0538 134.546 14.8188C133.781 15.5838 133.398 16.5202 133.398 17.628C133.398 18.7359 133.781 19.6723 134.546 20.4373C135.311 21.2022 136.247 21.5847 137.355 21.5847Z" fill="white"/>
<path d="M124.688 26.1348H119.346V7.93408H124.688V26.1348ZM111.235 13.4734C112.185 13.4734 113.055 13.6449 113.846 13.9878C114.638 14.3043 115.324 14.7527 115.904 15.3331C116.484 15.887 116.933 16.5464 117.249 17.3114C117.592 18.0764 117.763 18.9073 117.763 19.8041C117.763 20.7009 117.592 21.5319 117.249 22.2968C116.933 23.0618 116.484 23.7344 115.904 24.3147C115.324 24.8686 114.638 25.3171 113.846 25.66C113.055 25.9765 112.185 26.1348 111.235 26.1348H102.53V7.93408H107.872V13.4734H111.235ZM110.246 21.7824C110.932 21.7824 111.459 21.611 111.828 21.2681C112.224 20.8988 112.422 20.4108 112.422 19.8041C112.422 19.1974 112.224 18.7226 111.828 18.3797C111.459 18.0104 110.932 17.8258 110.246 17.8258H107.872V21.7824H110.246Z" fill="white"/>
<path d="M98.5828 7.93408V26.1348H93.2413V13.0778H89.0868L88.4933 20.1998C88.335 22.1781 87.7019 23.6948 86.5941 24.7499C85.4862 25.8051 83.9431 26.3326 81.9647 26.3326C81.701 26.3326 81.4768 26.3194 81.2921 26.293C81.1075 26.293 80.9492 26.2799 80.8173 26.2535C80.659 26.2271 80.514 26.1875 80.3821 26.1348V21.5846H80.9756C81.7669 21.5846 82.334 21.4132 82.677 21.0702C83.0199 20.701 83.2441 20.0151 83.3496 19.0128L84.3388 7.93408H98.5828Z" fill="white"/>
<path d="M82.5537 1.20801L74.6404 19.013C74.0073 20.4374 73.4006 21.6376 72.8203 22.6136C72.24 23.5632 71.6333 24.3282 71.0002 24.9085C70.3671 25.4888 69.6681 25.8977 68.9032 26.1351C68.1646 26.3988 67.3073 26.5307 66.3313 26.5307C65.6455 26.5307 65.0388 26.4648 64.5113 26.3329C64.2211 26.2801 63.9705 26.2142 63.7595 26.1351V20.9914C63.9178 21.0441 64.0892 21.0837 64.2739 21.1101C64.4321 21.1365 64.6168 21.1628 64.8278 21.1892C65.0388 21.1892 65.2762 21.1892 65.54 21.1892C66.1467 21.1892 66.6479 21.0837 67.0435 20.8727C67.4656 20.6617 67.8217 20.4111 68.1118 20.1209C68.4284 19.8044 68.6922 19.4351 68.9032 19.013L60.792 1.20801H66.727L71.6728 12.2867L76.6187 1.20801H82.5537Z" fill="white"/>
<path d="M182.743 37.7202V46.6201H180.967V43.6567H179.19L177.308 46.6201H175.329L177.405 43.3574C177.064 43.2287 176.768 43.0453 176.517 42.8072C176.291 42.5949 176.085 42.3214 175.899 41.9867C175.719 41.6521 175.629 41.221 175.629 40.6933C175.629 40.2686 175.703 39.876 175.851 39.5156C176.005 39.1488 176.217 38.8367 176.488 38.5793C176.758 38.3155 177.08 38.1063 177.453 37.9519C177.833 37.7974 178.248 37.7202 178.698 37.7202H182.743ZM178.698 39.3998C178.357 39.3998 178.055 39.5285 177.791 39.7859C177.533 40.0433 177.405 40.3458 177.405 40.6933C177.405 41.0343 177.533 41.3336 177.791 41.591C178.048 41.8484 178.351 41.9771 178.698 41.9771H180.967V39.3998H178.698Z" fill="white"/>
<path d="M172.574 37.7202V46.6201H170.798V40.394L166.541 46.6201H164.765V37.7202H166.541V43.9559L170.798 37.7202H172.574Z" fill="white"/>
<path d="M162.397 39.3998H158.14V46.6201H156.364V37.7202H162.397V39.3998Z" fill="white"/>
<path d="M151.717 42.17C151.717 41.7453 151.646 41.3592 151.504 41.0117C151.369 40.6642 151.189 40.3617 150.964 40.1043C150.738 39.8469 150.475 39.6506 150.172 39.5155C149.87 39.3739 149.561 39.3031 149.246 39.3031C148.93 39.3031 148.621 39.3739 148.319 39.5155C148.016 39.6506 147.753 39.8469 147.527 40.1043C147.302 40.3617 147.119 40.6674 146.977 41.0213C146.842 41.3688 146.774 41.7517 146.774 42.17C146.774 42.5947 146.842 42.9808 146.977 43.3283C147.119 43.6758 147.302 43.9783 147.527 44.2357C147.753 44.4931 148.016 44.6926 148.319 44.8342C148.621 44.9693 148.93 45.0369 149.246 45.0369C149.561 45.0369 149.87 44.9693 150.172 44.8342C150.475 44.6926 150.738 44.4931 150.964 44.2357C151.189 43.9783 151.369 43.6758 151.504 43.3283C151.646 42.9808 151.717 42.5947 151.717 42.17ZM153.493 42.17C153.493 42.8393 153.383 43.4538 153.165 44.0137C152.952 44.5671 152.65 45.0465 152.257 45.4519C151.871 45.8509 151.421 46.163 150.906 46.3883C150.391 46.6071 149.838 46.7165 149.246 46.7165C148.653 46.7165 148.1 46.6071 147.585 46.3883C147.07 46.163 146.617 45.8509 146.224 45.4519C145.838 45.0465 145.536 44.5671 145.317 44.0137C145.104 43.4603 144.998 42.8457 144.998 42.17C144.998 41.5007 145.104 40.8894 145.317 40.336C145.536 39.7825 145.838 39.3063 146.224 38.9074C146.617 38.5019 147.07 38.1866 147.585 37.9614C148.1 37.7362 148.653 37.6235 149.246 37.6235C149.838 37.6235 150.391 37.7362 150.906 37.9614C151.421 38.1866 151.871 38.5019 152.257 38.9074C152.65 39.3063 152.952 39.7825 153.165 40.336C153.383 40.8894 153.493 41.5007 153.493 42.17Z" fill="white"/>
<path d="M142.128 37.7202V46.6201H140.342V39.3998H137.378L137.079 43.6567C137.015 44.6477 136.732 45.4071 136.23 45.9347C135.734 46.456 135.062 46.7166 134.212 46.7166C134.135 46.7166 134.064 46.7134 134 46.707C133.936 46.7005 133.868 46.6909 133.797 46.678C133.733 46.6651 133.675 46.6458 133.624 46.6201V45.1336H133.817C134.724 45.1336 135.219 44.6413 135.303 43.6567L135.795 37.7202H142.128Z" fill="white"/>
<path d="M130.357 42.17C130.357 41.7453 130.286 41.3592 130.145 41.0117C130.01 40.6642 129.829 40.3617 129.604 40.1043C129.379 39.8469 129.115 39.6506 128.813 39.5155C128.51 39.3739 128.201 39.3031 127.886 39.3031C127.571 39.3031 127.262 39.3739 126.959 39.5155C126.657 39.6506 126.393 39.8469 126.168 40.1043C125.942 40.3617 125.759 40.6674 125.617 41.0213C125.482 41.3688 125.415 41.7517 125.415 42.17C125.415 42.5947 125.482 42.9808 125.617 43.3283C125.759 43.6758 125.942 43.9783 126.168 44.2357C126.393 44.4931 126.657 44.6926 126.959 44.8342C127.262 44.9693 127.571 45.0369 127.886 45.0369C128.201 45.0369 128.51 44.9693 128.813 44.8342C129.115 44.6926 129.379 44.4931 129.604 44.2357C129.829 43.9783 130.01 43.6758 130.145 43.3283C130.286 42.9808 130.357 42.5947 130.357 42.17ZM132.133 42.17C132.133 42.8393 132.024 43.4538 131.805 44.0137C131.593 44.5671 131.29 45.0465 130.898 45.4519C130.511 45.8509 130.061 46.163 129.546 46.3883C129.031 46.6071 128.478 46.7165 127.886 46.7165C127.294 46.7165 126.74 46.6071 126.226 46.3883C125.711 46.163 125.257 45.8509 124.865 45.4519C124.478 45.0465 124.176 44.5671 123.957 44.0137C123.745 43.4603 123.639 42.8457 123.639 42.17C123.639 41.5007 123.745 40.8894 123.957 40.336C124.176 39.7825 124.478 39.3063 124.865 38.9074C125.257 38.5019 125.711 38.1866 126.226 37.9614C126.74 37.7362 127.294 37.6235 127.886 37.6235C128.478 37.6235 129.031 37.7362 129.546 37.9614C130.061 38.1866 130.511 38.5019 130.898 38.9074C131.29 39.3063 131.593 39.7825 131.805 40.336C132.024 40.8894 132.133 41.5007 132.133 42.17Z" fill="white"/>
<path d="M114.532 37.7202H121.839V39.3998H119.079V46.6201H117.293V39.3998H114.532V37.7202Z" fill="white"/>
<path d="M108.891 37.6235C109.406 37.6235 109.876 37.7072 110.301 37.8745C110.732 38.0354 111.099 38.2574 111.401 38.5406C111.703 38.8237 111.938 39.1583 112.106 39.5444C112.273 39.9241 112.357 40.3392 112.357 40.7896V46.6199H111.073L110.677 45.7319C110.503 45.9185 110.297 46.0826 110.059 46.2242C109.847 46.3529 109.58 46.4687 109.258 46.5717C108.936 46.6682 108.55 46.7165 108.1 46.7165C107.109 46.7165 106.349 46.4719 105.822 45.9829C105.3 45.4873 105.04 44.8438 105.04 44.0523C105.04 43.6018 105.123 43.1964 105.291 42.836C105.465 42.4692 105.757 42.1603 106.169 41.9094C106.587 41.652 107.151 41.4525 107.858 41.3109C108.573 41.1629 109.477 41.0889 110.571 41.0889V40.7896C110.571 40.3392 110.429 39.9788 110.146 39.7085C109.863 39.4383 109.445 39.3031 108.891 39.3031C108.299 39.3031 107.868 39.4093 107.598 39.6217C107.328 39.834 107.167 40.0914 107.115 40.3939H105.339C105.391 39.6024 105.722 38.9427 106.333 38.4151C106.945 37.8874 107.797 37.6235 108.891 37.6235ZM108.206 45.1334C108.959 45.1334 109.541 44.9403 109.953 44.5542C110.365 44.1681 110.571 43.6984 110.571 43.1449V42.6623C109.779 42.6623 109.139 42.7009 108.65 42.7781C108.167 42.8489 107.788 42.9487 107.511 43.0774C107.234 43.1996 107.048 43.3541 106.951 43.5407C106.861 43.7209 106.816 43.9236 106.816 44.1488C106.816 44.3998 106.935 44.6282 107.173 44.8342C107.411 45.0337 107.755 45.1334 108.206 45.1334Z" fill="white"/>
<path d="M96.7442 46.6201L94.3696 41.6779V46.6201H92.5935V37.7202H94.1766L97.333 44.2455L100.499 37.7202H102.082V46.6201H100.306V41.6779L97.9315 46.6201H96.7442Z" fill="white"/>
<path d="M87.9466 42.17C87.9466 41.7453 87.8758 41.3592 87.7342 41.0117C87.5991 40.6642 87.4189 40.3617 87.1937 40.1043C86.9685 39.8469 86.7046 39.6506 86.4022 39.5155C86.0997 39.3739 85.7908 39.3031 85.4755 39.3031C85.1602 39.3031 84.8513 39.3739 84.5488 39.5155C84.2464 39.6506 83.9825 39.8469 83.7573 40.1043C83.5321 40.3617 83.3487 40.6674 83.2071 41.0213C83.072 41.3688 83.0044 41.7517 83.0044 42.17C83.0044 42.5947 83.072 42.9808 83.2071 43.3283C83.3487 43.6758 83.5321 43.9783 83.7573 44.2357C83.9825 44.4931 84.2464 44.6926 84.5488 44.8342C84.8513 44.9693 85.1602 45.0369 85.4755 45.0369C85.7908 45.0369 86.0997 44.9693 86.4022 44.8342C86.7046 44.6926 86.9685 44.4931 87.1937 44.2357C87.4189 43.9783 87.5991 43.6758 87.7342 43.3283C87.8758 42.9808 87.9466 42.5947 87.9466 42.17ZM89.7227 42.17C89.7227 42.8393 89.6133 43.4538 89.3945 44.0137C89.1822 44.5671 88.8797 45.0465 88.4872 45.4519C88.1011 45.8509 87.6506 46.163 87.1358 46.3883C86.621 46.6071 86.0675 46.7165 85.4755 46.7165C84.8835 46.7165 84.33 46.6071 83.8152 46.3883C83.3004 46.163 82.8467 45.8509 82.4542 45.4519C82.0681 45.0465 81.7656 44.5671 81.5468 44.0137C81.3345 43.4603 81.2283 42.8457 81.2283 42.17C81.2283 41.5007 81.3345 40.8894 81.5468 40.336C81.7656 39.7825 82.0681 39.3063 82.4542 38.9074C82.8467 38.5019 83.3004 38.1866 83.8152 37.9614C84.33 37.7362 84.8835 37.6235 85.4755 37.6235C86.0675 37.6235 86.621 37.7362 87.1358 37.9614C87.6506 38.1866 88.1011 38.5019 88.4872 38.9074C88.8797 39.3063 89.1822 39.7825 89.3945 40.336C89.6133 40.8894 89.7227 41.5007 89.7227 42.17Z" fill="white"/>
<path d="M72.1218 37.7202H79.429V39.3998H76.6683V46.6201H74.8825V39.3998H72.1218V37.7202Z" fill="white"/>
<path d="M70.2356 43.3573C70.1327 43.8335 69.9686 44.2775 69.7433 44.6894C69.5181 45.0948 69.2317 45.4487 68.8842 45.7512C68.5432 46.0536 68.1506 46.2917 67.7066 46.4655C67.269 46.6328 66.7928 46.7165 66.278 46.7165C65.686 46.7165 65.1325 46.6071 64.6177 46.3883C64.1029 46.163 63.6492 45.8509 63.2567 45.4519C62.8706 45.0465 62.5681 44.5671 62.3493 44.0137C62.1369 43.4603 62.0308 42.8457 62.0308 42.17C62.0308 41.5007 62.1369 40.8894 62.3493 40.336C62.5681 39.7825 62.8706 39.3063 63.2567 38.9074C63.6492 38.5019 64.1029 38.1866 64.6177 37.9614C65.1325 37.7362 65.686 37.6235 66.278 37.6235C66.7928 37.6235 67.269 37.7104 67.7066 37.8842C68.1506 38.0515 68.5432 38.2896 68.8842 38.5985C69.2317 38.9009 69.5149 39.2581 69.7337 39.6699C69.9589 40.0753 70.1262 40.5129 70.2356 40.9827H68.3533C68.2053 40.4808 67.9608 40.0753 67.6197 39.7665C67.2787 39.4576 66.8314 39.3031 66.278 39.3031C65.9627 39.3031 65.6538 39.3739 65.3513 39.5155C65.0489 39.6506 64.785 39.8469 64.5598 40.1043C64.3346 40.3617 64.1512 40.6674 64.0096 41.0213C63.8744 41.3688 63.8069 41.7517 63.8069 42.17C63.8069 42.5947 63.8744 42.9808 64.0096 43.3283C64.1512 43.6758 64.3346 43.9783 64.5598 44.2357C64.785 44.4931 65.0489 44.6926 65.3513 44.8342C65.6538 44.9693 65.9627 45.0369 66.278 45.0369C66.8314 45.0369 67.2787 44.8824 67.6197 44.5735C67.9672 44.2647 68.2118 43.8592 68.3533 43.3573H70.2356Z" fill="white"/>
<path d="M0 5.6815C0 2.54369 2.54369 0 5.6815 0H43.7475C46.8853 0 49.429 2.54369 49.429 5.6815V43.7475C49.429 46.8853 46.8853 49.429 43.7475 49.429H5.6815C2.54369 49.429 0 46.8853 0 43.7475V5.6815Z" fill="#00B4DD"/>
<path d="M39.4264 27.2469C37.6738 29.4654 35.442 31.2588 32.8982 32.4929C30.3545 33.727 27.5645 34.3697 24.7372 34.3732C21.91 34.3766 19.1184 33.7407 16.5717 32.5128C14.025 31.285 11.7888 29.4971 10.0308 27.283L14.0356 24.1032C15.3141 25.7135 16.9405 27.0136 18.7927 27.9066C20.6449 28.7996 22.6749 29.2624 24.7311 29.2599C26.7873 29.2573 28.8162 28.7897 30.6661 27.8922C32.5161 26.9947 34.1392 25.6905 35.4139 24.0771L39.4264 27.2469Z" fill="white"/>
</svg>
