<svg xmlns="http://www.w3.org/2000/svg" version="1.1" xmlns:xlink="http://www.w3.org/1999/xlink" width="59" height="58"><svg width="59" height="58" viewBox="0 0 59 58" fill="none" xmlns="http://www.w3.org/2000/svg">
<path d="M56.0312 27.2345C56.0312 42.2785 43.7937 54.469 28.6916 54.469C13.5895 54.469 1.35205 42.2671 1.35205 27.2345C1.35205 12.2019 13.5895 0 28.6916 0C43.7937 0 56.0312 12.1905 56.0312 27.2345Z" fill="#EA7600"></path>
<path d="M19.8458 30.168C19.823 30.3164 19.8344 30.3049 19.8458 30.2022C19.8458 30.2022 19.8458 30.1794 19.8458 30.168Z" fill="#1D1D1B"></path>
<path d="M14.2198 23.3194C14.3001 23.4564 14.3803 23.6048 14.4719 23.7646C14.4834 23.7646 14.4948 23.7646 14.5063 23.7646C14.449 23.6961 14.3459 23.5363 14.2313 23.3308L14.2198 23.3194Z" fill="#1D1D1B"></path>
<path d="M13.1311 23.2395C13.1311 23.2395 13.0969 23.308 13.0854 23.3422H13.1311C13.1311 23.3422 13.1539 23.2623 13.1539 23.2395H13.1311Z" fill="#1D1D1B"></path>
<path d="M11.0458 31.7431L10.6792 31.8002L10.4958 31.8344H10.4844C10.4844 31.8344 10.4844 31.8687 10.4844 31.8915L10.6219 31.8687L10.8854 31.823L11.5958 31.7089C11.5958 31.7089 11.5958 31.6632 11.5958 31.6518L11.0573 31.7431H11.0458Z" fill="#1D1D1B"></path>
<path d="M14.208 23.2966C14.208 23.2966 14.1624 23.2281 14.151 23.2053C14.151 23.2053 14.1852 23.2737 14.208 23.2966Z" fill="#1D1D1B"></path>
<path d="M13.2229 23.3422H13.1312C13.1312 23.3422 13.1312 23.3651 13.1312 23.3765H13.2802L13.876 23.3422C13.9906 23.3422 14.1166 23.3422 14.2312 23.3308C14.2312 23.3308 14.2312 23.308 14.2198 23.2966C13.8989 23.308 13.5666 23.3308 13.2343 23.3422H13.2229Z" fill="#1D1D1B"></path>
<path d="M10.45 31.8458H10.4842C10.4956 31.6176 10.4842 31.7089 10.45 31.8458Z" fill="#1D1D1B"></path>
<path d="M12.3979 28.022C12.3979 28.022 12.3979 27.9307 12.4208 27.8622C12.4208 27.9193 12.4094 27.965 12.3979 28.022Z" fill="#1D1D1B"></path>
<path d="M26.2966 22.7943C26.2738 22.897 26.251 22.9541 26.2395 22.9541C26.2167 23.1139 26.1939 23.2281 26.2966 22.8171C26.2966 22.8171 26.2966 22.8057 26.2966 22.7943Z" fill="#1D1D1B"></path>
<path d="M11.676 20.8881C11.676 20.8881 11.676 20.8653 11.676 20.9224C11.676 20.968 11.6874 21.0251 11.6988 21.0707C11.6988 21.0023 11.6988 20.9452 11.6874 20.8881H11.676Z" fill="#1D1D1B"></path>
<path d="M20.8197 32.9987C20.8197 33.2612 20.8083 33.5238 20.7969 33.7292C20.7969 33.695 20.8197 33.3754 20.8197 32.9987Z" fill="#1D1D1B"></path>
<path d="M21.1175 32.2454H21.0719C21.0833 32.4394 21.0947 32.7133 21.1175 32.2454Z" fill="#1D1D1B"></path>
<path d="M21.1177 30.2707H21.1405C21.1405 30.0881 21.1291 30.1565 21.1177 30.2707Z" fill="#1D1D1B"></path>
<path d="M21.1176 32.2453C21.1176 32.0627 21.1176 31.9143 21.1176 31.7659C21.1176 31.9828 21.1176 32.1426 21.1062 32.2453H21.1176Z" fill="#1D1D1B"></path>
<path d="M11.8479 22.9199C11.9049 23.4906 11.9506 23.7645 11.8821 22.9883C11.8821 22.9883 11.8821 22.9313 11.8707 22.897H11.8479V22.9199Z" fill="#1D1D1B"></path>
<path d="M11.5844 33.2156V33.2498H11.6072V33.1357C11.6072 33.2042 11.5958 33.2612 11.5844 33.2156Z" fill="#1D1D1B"></path>
<path d="M25.5406 23.6162C25.5406 23.6846 25.5406 23.6504 25.552 23.5705H25.5292C25.5292 23.5705 25.5292 23.6047 25.5292 23.6162H25.5406Z" fill="#1D1D1B"></path>
<path d="M12.1573 33.1129C12.1573 33.0444 12.1573 32.9759 12.1573 32.9417H12.1459C12.1459 32.9417 12.1459 33.0558 12.1459 33.1129H12.1573Z" fill="#1D1D1B"></path>
<path d="M11.6644 20.9224C11.6416 20.7512 11.6188 20.6599 11.6644 21.3105H11.6872C11.6758 21.1393 11.6644 21.0023 11.6644 20.9224Z" fill="#1D1D1B"></path>
<path d="M21.026 32.2682H21.0602C21.0488 32.1426 21.0374 32.0741 21.026 32.2682Z" fill="#1D1D1B"></path>
<path d="M9.46458 36.4915H9.52188H9.63646C9.87709 36.4915 10.0948 36.4915 10.3354 36.4915V36.4344C10.0604 36.4344 9.79688 36.4344 9.52188 36.4344H9.45313C9.45313 36.5828 9.44167 36.8111 9.47604 36.4915H9.46458Z" fill="#1D1D1B"></path>
<path d="M13.6352 29.5173C13.601 29.6087 13.6124 29.5173 13.6466 29.3119C13.6238 29.426 13.601 29.5173 13.5896 29.5972H13.6238C13.6238 29.5972 13.6352 29.5402 13.6466 29.5059L13.6352 29.5173Z" fill="#1D1D1B"></path>
<path d="M10.5873 30.0881C10.5987 29.9853 10.6101 29.894 10.6215 29.8027C10.6443 29.4032 10.5987 29.7114 10.5531 30.1908C10.5759 30.0082 10.5873 30.0196 10.5873 30.0881Z" fill="#1D1D1B"></path>
<path d="M10.3927 36.3317H10.4155C10.4155 36.1376 10.4155 36.2175 10.3927 36.3317Z" fill="#1D1D1B"></path>
<path d="M10.3583 36.1376C10.3583 36.2518 10.3583 36.3431 10.3469 36.4344C10.3469 36.3659 10.3469 36.2746 10.3583 36.1376Z" fill="#1D1D1B"></path>
<path d="M19.9031 30.3049C19.9031 30.3049 19.9031 30.2593 19.9145 30.2365C19.9145 30.2593 19.9145 30.2821 19.9031 30.3049Z" fill="#1D1D1B"></path>
<path d="M13.6582 29.1293C13.6468 29.1863 13.624 29.2548 13.6125 29.3233H13.6468C13.6582 29.2548 13.6696 29.1863 13.6924 29.1179H13.6696L13.6582 29.1293Z" fill="#1D1D1B"></path>
<path d="M9.4415 36.4344C9.4415 36.286 9.4415 36.2061 9.39587 36.7312H9.40728C9.40728 36.6284 9.41869 36.5371 9.43009 36.4344H9.4415Z" fill="#1D1D1B"></path>
<path d="M18.5624 36.0692C18.5396 36.5828 18.5624 36.4458 18.5852 36.0806C18.5852 36.0806 18.5852 36.0806 18.5852 36.0692H18.5624Z" fill="#1D1D1B"></path>
<path d="M20.7624 33.5237H20.7396C20.7396 33.7406 20.7396 33.695 20.7624 33.5237Z" fill="#1D1D1B"></path>
<path d="M11.3781 29.7913L12.8333 29.7114L13.5666 29.6771C13.5666 29.6771 13.5666 29.6429 13.5666 29.6201L12.1687 29.7L11.126 29.757L10.6333 29.7799C10.6333 29.7799 10.6333 29.8141 10.6333 29.8369L11.3666 29.8027L11.3781 29.7913Z" fill="#1D1D1B"></path>
<path d="M10.6218 29.7799H10.656C10.7131 29.1749 10.6789 29.3576 10.6218 29.8027C10.6218 29.8141 10.6218 29.837 10.6218 29.8598C10.6218 29.8255 10.6218 29.8027 10.6218 29.7685V29.7799Z" fill="#1D1D1B"></path>
<path d="M24.0854 26.1387C24.0854 26.1387 24.0854 26.1958 24.074 26.2415C24.074 26.1844 24.0854 26.1501 24.0854 26.1387Z" fill="#1D1D1B"></path>
<path d="M13.3831 24.1755C13.3717 24.244 13.3489 24.3353 13.326 24.4837C13.3489 24.3581 13.3717 24.2554 13.3831 24.1755Z" fill="#1D1D1B"></path>
<path d="M11.5958 31.6518C11.5958 31.6518 11.5958 31.5605 11.5958 31.5148C11.5958 31.5148 11.5958 31.5491 11.5844 31.6518H11.5958Z" fill="#1D1D1B"></path>
<path d="M10.3926 31.823C10.347 32.3252 10.3926 32.0399 10.4497 31.8458H10.4155C10.4155 31.9029 10.4041 31.8915 10.4041 31.823H10.3926Z" fill="#1D1D1B"></path>
<path d="M24.0395 26.4811C24.0395 26.4811 24.0281 26.561 24.0167 26.6067C24.0167 26.6067 24.0281 26.5154 24.0395 26.4811Z" fill="#1D1D1B"></path>
<path d="M13.4061 24.2211C13.4061 24.2211 13.4175 24.1412 13.4289 24.1069C13.4517 23.9243 13.4631 23.7645 13.3833 24.1868C13.4289 23.97 13.4175 24.0841 13.4061 24.2325V24.2211Z" fill="#1D1D1B"></path>
<path d="M12.1687 33.1116H12.1912V33.0558H12.1687V33.1116Z" fill="#1D1D1B"></path>
<path d="M23.7873 27.7938C23.7873 27.7938 23.7759 27.8737 23.7645 27.9193C23.7645 27.9193 23.7759 27.8394 23.7873 27.7938Z" fill="#1D1D1B"></path>
<path d="M11.6073 31.6518C11.6073 31.6518 11.6073 31.686 11.6073 31.7089H11.6301C11.6301 31.7089 11.6301 31.6632 11.6301 31.6404H11.6073V31.6518Z" fill="#1D1D1B"></path>
<path d="M25.3917 23.0683C25.3917 23.0683 25.3917 23.0914 25.3917 23.103H25.4034C25.4034 23.103 25.4034 23.0799 25.4034 23.0683H25.3917Z" fill="#1D1D1B"></path>
<path d="M42.2583 14.6902C42.2583 14.6902 42.2583 14.6787 42.2583 14.6673C42.3385 14.6673 42.4187 14.6673 42.499 14.6673C42.4187 14.6673 42.3385 14.6673 42.2583 14.6787V14.6902ZM35.7729 12.6698C35.7729 12.6698 35.7958 12.6128 35.8073 12.5899C35.9333 12.5899 36.0594 12.5899 36.174 12.5899L39.6917 12.5214L41.2156 12.4872L41.3875 12.7611C39.4969 12.7269 37.6292 12.7041 35.7729 12.6698ZM32.5875 19.6896C32.6104 19.5298 32.6104 19.4157 32.5875 19.4157C32.4844 19.4157 32.3698 19.4157 32.2667 19.4157C32.2667 19.3358 32.2667 19.2673 32.2781 19.1874C33.1948 19.2216 34.1 19.2559 35.0167 19.2901C34.2031 19.4271 33.3896 19.5641 32.576 19.701L32.5875 19.6896ZM33.676 12.6356C34.3865 12.6242 35.0969 12.6013 35.8073 12.5899C35.8073 12.6128 35.7844 12.6356 35.7729 12.6698C35.074 12.6698 34.375 12.647 33.676 12.6356ZM30.4104 19.3586C30.0323 19.3586 29.6542 19.3472 29.276 19.3358C29.299 19.1988 29.276 19.2445 29.2417 19.3358C28.5771 19.3244 27.9125 19.3015 27.2594 19.2901L25.4948 19.1303L22.3667 18.845C25.3115 18.9477 28.2677 19.0618 31.2125 19.1646L30.4104 19.3814V19.3586ZM25.9875 22.8057H26.251C26.251 22.8057 26.2396 22.8628 26.2281 22.897H25.7125C25.7125 22.897 25.7125 22.8742 25.7125 22.8628C25.7125 22.8742 25.7125 22.897 25.7125 22.9084H25.701C25.701 22.9084 25.701 22.897 25.701 22.8856C25.701 22.8628 25.7125 22.84 25.724 22.8171C25.724 22.8171 25.724 22.8057 25.724 22.7943C25.724 22.7943 25.724 22.8057 25.724 22.8171H25.9875V22.8057ZM25.6094 23.1938C25.6094 23.1367 25.6323 23.0568 25.6552 22.9655C25.6552 22.9655 25.6552 22.9541 25.6667 22.9313C25.5865 23.3194 25.5979 23.2851 25.6094 23.1824V23.1938ZM25.5292 23.1367C25.5292 23.1367 25.4833 23.1367 25.4604 23.1367C25.4604 23.1139 25.4719 23.0911 25.4833 23.0568H25.6208C25.6208 23.0568 25.6208 23.0911 25.5979 23.1253H25.5292V23.1367ZM25.449 23.1367H25.426C25.426 23.1367 25.426 23.0797 25.4375 23.0568H25.4604C25.4604 23.0568 25.449 23.1025 25.4375 23.1367H25.449ZM25.3229 23.6275H25.3C25.3 23.6275 25.3 23.6047 25.3 23.5819H25.3115C25.3115 23.5819 25.3115 23.6047 25.3115 23.6275H25.3229ZM25.4031 23.1025H25.3917C25.3917 23.1025 25.3917 23.1253 25.3917 23.1367C25.3917 23.1367 25.3802 23.1367 25.3687 23.1367C25.3687 23.1139 25.3687 23.1025 25.3802 23.0911L25.2427 23.0682H25.3573L25.3917 23.0568H25.426C25.426 23.0568 25.426 23.0797 25.426 23.1025H25.4031ZM25.2542 23.639H25.2083C25.2083 23.639 25.2083 23.6161 25.2083 23.6047H25.2427C25.2427 23.6161 25.2427 23.6275 25.2427 23.6504L25.2542 23.639ZM24.9104 24.8375C24.4865 24.8375 24.074 24.8146 23.65 24.8146C24.0396 24.7804 24.4177 24.7461 24.8073 24.7005H24.8302H24.9219C24.9448 24.6434 24.9448 24.7005 24.9219 24.8375H24.9104ZM19.8573 30.2022C19.8573 30.2022 19.8458 30.2821 19.8344 30.3163H19.8115L19.6167 30.3506C19.6167 30.3049 19.6167 30.2478 19.6167 30.2022L19.8344 30.1679C19.8344 30.1679 19.8458 30.0538 19.8687 29.9739H19.7771L19.6281 30.0195C19.6281 29.9853 19.6281 29.9511 19.6281 29.9168C19.6854 29.9168 19.7427 29.894 19.8 29.894C19.9031 29.8712 20.1094 28.9694 20.0979 28.7526H20.1552C20.0979 29.1064 19.9031 29.9625 19.8344 30.2136L19.8573 30.2022ZM19.8229 30.3962L19.6167 30.419L19.6969 30.3962L19.8229 30.3734V30.3962ZM20.2812 28.5243C20.2812 28.5243 20.2583 28.6156 20.2469 28.6612H20.224C20.224 28.6612 20.2469 28.5699 20.2469 28.5243H20.2812ZM21.6792 28.3645L23.1344 28.1933L23.501 28.1476L23.6844 28.1248C23.6844 28.1248 23.6729 28.2161 23.6615 28.2617H23.5698L22.0458 28.4558L20.2469 28.6727C20.2469 28.6727 20.2698 28.5699 20.2812 28.5243L21.6792 28.3645ZM19.8115 30.5332C19.8115 30.5332 19.8 30.6017 19.7885 30.6359H19.6052C19.6052 30.6359 19.6052 30.5332 19.6052 30.4761L19.8 30.4533C19.8 30.5218 19.8 30.5446 19.8 30.5332H19.8115ZM19.7656 30.7843C19.7656 30.8528 19.7656 30.8414 19.7771 30.7843L20.0865 30.7501L20.7167 30.6816L21.026 30.6473C21.026 30.6473 21.026 30.693 21.026 30.7044C20.5448 30.7501 20.0635 30.8071 19.5708 30.8528C19.5708 30.83 19.5708 30.8185 19.5708 30.7957H19.7427L19.7656 30.7843ZM19.8687 30.4533L20.9115 30.3506H21.0833C21.0833 30.419 21.0833 30.4647 21.0833 30.4875C21.0833 30.5104 21.0833 30.5332 21.0833 30.556C21.0833 30.5104 21.0948 30.5332 21.0948 30.7044C21.0948 30.7044 21.0719 30.7044 21.0604 30.7044C21.0604 30.6816 21.0604 30.6587 21.0604 30.6359C21.0604 30.6587 21.0604 30.6359 21.049 30.5104H20.9687L20.3271 30.5788L19.8229 30.6245C19.8229 30.6245 19.8573 30.5104 19.8687 30.4419V30.4533ZM20.8312 31.9942C20.7625 32.0056 20.6937 32.0285 20.625 32.0513H20.5792L20.2812 32.0855H20.1552C20.3844 32.0399 20.6021 31.9828 20.8198 31.9143C20.8198 31.9371 20.8198 31.96 20.8198 31.9942H20.8312ZM20.9115 31.8915C20.9802 31.8687 21.049 31.6404 21.1062 31.3893C21.1062 31.5491 21.1062 31.7203 21.1062 31.9257L21.026 31.9486L20.8656 31.9942C20.8656 31.9942 20.8542 31.9942 20.8427 31.9942V31.9143C20.8427 31.9143 20.8885 31.9143 20.9115 31.8915ZM20.8312 32.1768C20.8312 32.1768 20.8198 32.1768 20.8083 32.1768V32.1312H20.8312V32.1768ZM20.5448 32.1997L20.6365 32.1768L20.7625 32.1426H20.8083C20.8083 32.1426 20.8083 32.1654 20.8083 32.1768C20.7281 32.1768 20.6365 32.1883 20.5448 32.1997ZM19.5937 30.7957C19.5937 30.7957 19.5937 30.83 19.5937 30.8528C19.5937 30.83 19.5937 30.8071 19.5937 30.7957ZM19.6052 30.3391C19.6052 30.3391 19.6052 30.2478 19.6052 30.2136C19.6052 30.2136 19.6052 30.2022 19.6052 30.1908H19.6167C19.6167 30.1908 19.6167 30.2821 19.6167 30.3391H19.5937H19.6052ZM19.6052 30.4076H19.6167H19.5937H19.6052ZM19.6052 30.4761H19.6167C19.6167 30.5332 19.6167 30.5903 19.6052 30.6473H19.5937C19.5937 30.5903 19.5937 30.5332 19.5937 30.4761H19.6052ZM19.5708 30.4761H19.5937C19.5937 30.4761 19.5937 30.5903 19.5937 30.6473H19.5365C19.5365 30.6473 19.5708 30.5446 19.5823 30.4761H19.5708ZM19.6625 30.0081C19.6625 30.0081 19.6625 30.0424 19.6625 30.0652C19.6625 30.0538 19.6625 30.031 19.6625 30.0081ZM19.5823 30.7957C19.5823 30.7957 19.5823 30.83 19.5823 30.8528C19.5365 30.8528 19.4906 30.8528 19.4448 30.8642C19.4448 30.8528 19.4677 30.83 19.4792 30.8071H19.5823V30.7957ZM19.5823 28.6042L19.9948 28.5585L20.2125 28.5928C20.2125 28.5928 20.224 28.5813 20.2125 28.6727H20.1208C19.9375 28.6612 19.7542 28.627 19.5708 28.6042H19.5823ZM18.7 34.026C18.7 34.026 18.7 34.083 18.7 34.1059H18.5167H18.3333L18.7 34.0145V34.026ZM17.7604 34.1401H17.5312C17.9208 34.0488 18.3219 33.9461 18.7115 33.8433C18.7115 33.8662 18.7115 33.8776 18.7115 33.9004C18.3906 33.9803 18.0812 34.0602 17.7719 34.1401H17.7604ZM17.4625 34.5396C17.4625 34.5396 17.4396 34.5396 17.4281 34.5396C17.1187 34.551 16.7979 34.5624 16.4885 34.5738C16.5 34.5738 16.5115 34.5738 16.5344 34.5738C16.8552 34.5624 17.1531 34.551 17.474 34.5396H17.4625ZM17.7604 34.5282C17.875 34.5282 18.001 34.5282 18.1042 34.5168L18.574 34.4939H18.6312C18.3219 34.5054 18.024 34.5168 17.7146 34.5282H17.749H17.7604ZM18.6885 34.2999C18.6885 34.2999 18.6885 34.357 18.6771 34.3912C18.6771 34.3912 18.6771 34.4255 18.6771 34.5054H18.6542C18.6542 34.5054 18.6656 34.4369 18.6771 34.3912C18.6771 34.3912 18.6771 34.4483 18.6542 34.5054C18.6542 34.5054 18.6542 34.4597 18.6542 34.4026H18.2187L18.6885 34.2999ZM18.4365 35.6924C18.5052 35.6696 18.5854 35.4185 18.6427 35.1446C18.6427 35.2929 18.6198 35.4642 18.6083 35.6696L18.4937 35.6924L18.2646 35.7495L17.3365 35.9778L15.5146 36.4115C15.4115 36.4344 15.3083 36.4572 15.2052 36.4914C15.2052 36.4914 15.2052 36.48 15.2052 36.4686C16.2823 36.2061 17.3594 35.9436 18.4365 35.681V35.6924ZM15.1479 36.7768C15.1479 36.7768 15.1479 36.754 15.1365 36.754C15.1365 36.754 15.1365 36.7311 15.1365 36.7083H15.0906H14.7698C14.9073 36.6741 15.0333 36.6398 15.1708 36.6056C15.1708 36.6627 15.1594 36.7197 15.1479 36.7768ZM14.9417 37.8269C14.9417 37.8269 14.9417 37.8726 14.9302 37.9296H14.8844C14.8844 37.9296 14.9302 37.884 14.9417 37.8269ZM14.9875 37.6899C14.8844 38.3634 14.9531 37.8383 14.9417 37.8269C14.9531 37.7927 14.976 37.747 14.9875 37.6899ZM14.3229 36.7083C14.5979 36.6398 14.8729 36.5713 15.1479 36.5029C15.1479 36.5029 15.1479 36.5029 15.1479 36.5257C15.1479 36.5257 15.1479 36.5257 15.1594 36.5257C15.1594 36.5257 15.1594 36.5143 15.1594 36.5029H15.1823C15.1823 36.5029 15.1823 36.5143 15.1823 36.5257C15.1823 36.5257 15.1594 36.5257 15.1479 36.5257C15.1479 36.5713 15.1365 36.5942 15.1365 36.5257C14.8844 36.5828 14.6437 36.6398 14.4031 36.7083H14.3229ZM14.025 27.8166H14.0021H13.9906H13.9562C13.9562 27.8166 13.876 27.8394 13.8302 27.8394C13.8073 27.8394 13.7844 27.8965 13.75 27.965L12.7531 28.1019L12.5698 28.1248H12.4667C12.4667 28.1248 12.4781 28.0335 12.4896 27.9992H12.5927L13.326 27.8851L13.9448 27.8052C13.9448 27.8052 13.9677 27.7367 13.9792 27.7024C13.9792 27.7024 13.9906 27.7024 14.0021 27.7024C14.0021 27.7367 13.9906 27.7709 13.9792 27.8052H13.9906C13.9906 27.8052 13.9906 27.7595 14.0021 27.7481H14.025C14.025 27.7481 14.025 27.7823 14.0135 27.8052L14.2083 27.7823H14.2427H14.2542C14.174 27.7823 14.0937 27.8052 14.0135 27.8166H14.025ZM13.2458 26.1615H13.1427L13.2917 26.1501L13.6469 26.1159L14.3687 26.0474H14.4375H15.5604L14.6781 26.1273L14.2656 26.1615H13.2573H13.2458ZM13.1083 25.9218C13.1083 25.8533 13.1198 25.8191 13.1198 25.7963C13.475 25.7963 13.8417 25.8077 14.1969 25.8191L13.8875 25.8419L13.1885 25.899H13.0969L13.1083 25.9218ZM13.0052 26.2871C13.0052 26.2871 13.0052 26.2072 13.0281 26.1615C13.0281 26.1615 13.0167 26.2528 13.0167 26.2871H13.0052ZM13.051 26.0245C13.051 26.0245 13.0396 26.1159 13.0281 26.1501C13.0281 26.1501 13.0396 26.0702 13.051 26.0245ZM15.9615 34.5967C15.9615 34.5967 15.9271 34.5967 15.9156 34.6081C15.8469 34.6081 15.7667 34.6081 15.6979 34.6081C15.7094 34.6081 15.7323 34.6081 15.7437 34.6081C15.8125 34.6081 15.8927 34.6081 15.9615 34.6081V34.5967ZM15.3771 23.9814V23.8672C16.351 23.7873 17.325 23.7074 18.299 23.6275C18.4479 23.6504 18.5854 23.6732 18.7229 23.696C18.2417 23.7417 17.749 23.7759 17.2562 23.8216L15.6635 23.9586H15.4573L15.3656 23.9814H15.3771ZM15.3312 24.0955C15.3312 24.0955 15.3312 24.0042 15.3312 23.8787H15.3656C15.3656 23.8787 15.3656 24.0499 15.3542 24.0955H15.3312ZM16.4656 18.7651L16.3396 18.9134C16.2823 18.9477 16.225 18.9705 16.1562 19.0048L16.5229 18.5824C16.5229 18.5824 16.5917 18.5824 16.6146 18.5824L16.4656 18.7536V18.7651ZM15.251 23.2166V23.1367C15.251 23.1367 15.251 23.1824 15.251 23.2166ZM14.7927 23.2395C14.6667 23.2395 14.5521 23.2395 14.426 23.2509C14.4146 23.228 14.4031 23.2052 14.3917 23.1824C14.449 23.1824 14.5062 23.1596 14.5521 23.1481L15.1365 23.1253C15.1365 23.1253 15.1937 23.1253 15.2167 23.1367L14.8042 23.2395H14.7927ZM14.4833 23.3194C14.4833 23.3194 14.4833 23.3308 14.449 23.2851C14.5177 23.2851 14.5865 23.2851 14.6552 23.2851L14.4948 23.3194H14.4833ZM14.8615 21.3219L14.8271 21.3675H14.7812L14.8615 21.3219ZM18.1156 19.0048C18.1156 19.0048 18.1156 19.0048 18.1271 19.0162C18.1271 19.0162 18.1271 19.0162 18.1271 19.0048H18.1156ZM17.4052 21.1735C17.5885 21.1735 17.7719 21.1735 17.9667 21.1621C17.7604 21.2191 17.5542 21.2648 17.3594 21.3219C17.3708 21.2876 17.3823 21.242 17.4052 21.1735ZM17.5312 20.032L17.6229 19.9864C17.6 20.1119 17.6 20.2033 17.6229 20.2147C17.6229 20.2147 17.6229 20.2147 17.6344 20.2147C17.5771 20.4087 17.5198 20.5913 17.474 20.7511L16.4198 20.774C16.5 20.6827 16.5917 20.5799 16.6833 20.4772L17.5083 20.0435L17.5312 20.032ZM17.6458 19.8608C17.6458 19.8608 17.6458 19.9293 17.6344 19.9521L16.8208 20.3745L16.7521 20.4087C16.7521 20.4087 16.8437 20.306 16.8896 20.2603L17.6458 19.8608ZM17.3823 21.1735C17.3708 21.2305 17.3594 21.2876 17.3479 21.3219C16.8781 21.3219 16.4083 21.3333 15.9385 21.3447C15.9844 21.299 16.0187 21.2534 16.0646 21.1963C16.5 21.1963 16.9354 21.1849 17.3823 21.1735ZM16.5687 20.8653C16.5 20.8653 16.4312 20.8653 16.351 20.8653C16.374 20.831 16.4083 20.8082 16.4312 20.774C16.7865 20.774 17.1417 20.774 17.4969 20.7511C17.4969 20.7854 17.4854 20.8082 17.474 20.8425C17.176 20.8425 16.8667 20.8425 16.5687 20.8539V20.8653ZM20.1667 28.2161H20.2927C20.2927 28.2161 20.2927 28.2846 20.2927 28.3074L19.9948 28.3416L19.5708 28.2846C19.7771 28.2617 19.9719 28.2389 20.1781 28.2161H20.1667ZM25.3917 16.2311C24.8646 16.2311 24.326 16.2425 23.799 16.2539C21.1062 16.2996 18.4135 16.4708 15.6979 16.6877L12.3865 16.5621L11.401 16.5279L10.9083 16.505C10.9083 16.505 10.9083 16.4708 10.9198 16.4365H11.1031H11.424H12.0542C15.3656 16.3795 18.2073 16.3338 20.5219 16.2882M15.0792 12.316H15.0448C15.0104 12.7269 15.0219 12.4872 15.0448 12.2817C15.8927 12.2703 16.7406 12.2589 17.6 12.2475C17.4625 12.2817 17.3365 12.316 17.199 12.3616L15.5031 12.3388H15.2281H15.0906L15.0792 12.316ZM23.5698 26.5039L23.8104 26.4697H23.9365C23.9365 26.5268 23.9365 26.561 23.9365 26.5724H23.9021C23.6156 26.5724 23.3292 26.5724 23.0427 26.5724L23.5698 26.5039ZM23.9823 26.4469H24.0052C24.0052 26.4469 24.0052 26.5154 23.9937 26.561H23.9479C23.9479 26.561 23.9708 26.4925 23.9823 26.4469ZM12.7417 38.5118C12.5812 38.5346 12.4323 38.5574 12.2719 38.5803C12.1229 38.5118 11.9625 38.4433 11.8135 38.3862C11.974 38.3634 12.1458 38.3406 12.3062 38.3177C12.4552 38.3862 12.5927 38.4547 12.7417 38.5232V38.5118ZM12.2604 34.2428L12.2031 34.2657V34.2428C12.2031 34.2428 12.3177 34.2314 12.375 34.2314L12.2719 34.2542L12.2604 34.2428ZM12.2031 32.8845C12.2031 32.8845 12.2031 32.8046 12.2031 32.7704C12.2031 32.7704 12.2146 32.7704 12.2375 32.7704C12.2375 32.8046 12.2375 32.8389 12.2375 32.8845H12.2146H12.2031ZM11.676 31.6061L11.7562 31.5833L11.951 31.5605L11.676 31.6061ZM11.7219 31.3322H11.7448C11.7448 31.4235 11.7333 31.4007 11.7219 31.3322ZM13.8187 41.217C13.8646 41.1485 13.8417 41.1485 13.8187 41.217ZM10.3812 36.5257C10.3812 36.5257 10.3812 36.48 10.3927 36.4572C10.4844 36.4572 10.576 36.4572 10.6792 36.4572C10.5875 36.48 10.4844 36.5029 10.3812 36.5257ZM11.6531 31.4463C11.6531 31.4463 11.6531 31.3778 11.6531 31.3436C11.6531 31.3436 11.6531 31.4121 11.6531 31.4463ZM10.6333 30.225C10.6333 30.225 10.6333 30.1793 10.6448 30.1451H10.725L11.0687 30.1223L11.3667 30.0994C11.1146 30.1451 10.874 30.1793 10.6219 30.225H10.6333ZM13.1885 22.9427C13.2115 22.8742 13.2229 22.84 13.2229 22.8171C13.4177 22.8514 13.6125 22.8742 13.8073 22.9084L13.1885 22.9427ZM13.9792 21.242C14.0479 21.242 14.1052 21.242 14.1625 21.242L14.1396 21.2762L13.9792 21.2534V21.242ZM58.3573 14.2907L58.4719 13.6629L54.0604 13.6172C54.1406 13.1606 54.1406 13.0008 54.1406 13.0008H53.9344L53.1323 12.9894C51.0469 12.9552 52.2729 12.9095 50.8292 12.8867H50.7604C49.6833 12.1105 49.8781 11.9507 49.5687 11.7453H49.5344H49.2479L48.125 11.7795C46.6354 11.8252 45.2146 11.8708 43.851 11.9051H43.3698L43.049 11.4257L42.8542 10.8321V10.8093C43.3583 11.0604 42.1208 10.444 42.2354 10.5011H42.1781H42.0635H41.8344L41.376 10.5125L40.4708 10.5354L38.7292 10.5696C36.4604 10.6153 34.3979 10.6495 32.5417 10.6952C31.0979 10.718 29.7802 10.7522 28.5656 10.7751C28.2677 10.6609 27.9812 10.5354 27.6833 10.4212C27.4542 10.3299 26.675 9.81626 26.3771 9.89616C25.1167 10.2272 23.8677 10.5696 22.6187 10.9006C16.5687 11.0262 15.4115 11.0604 15.4115 11.0604L15.3542 11.0832C14.3687 11.0832 13.3719 11.1061 12.3865 11.1175C12.2833 11.1175 12.0198 12.316 12.1115 12.316C13.0854 12.2932 14.0594 12.2817 15.0333 12.2703C15.0219 12.4073 14.999 12.6128 14.976 12.9324C14.9302 12.9438 14.8844 12.9552 14.8385 12.9666C14.8385 12.9666 14.8042 12.9894 14.7927 13.0123L0 13.5716H14.6208C14.5979 13.7314 14.575 13.8797 14.5635 13.9825C13.9677 14.0281 13.3719 14.0624 12.799 14.108L11.4698 14.1993H11.3896H11.3437C11.3667 14.051 11.3094 14.3706 11.2177 14.8385C11.1031 15.1353 10.9656 15.8316 11.0229 15.9001C10.9771 16.1169 10.9427 16.3224 10.9083 16.4822H10.6677L10.5531 16.4708C10.3354 17.3953 10.7708 15.0668 10.324 17.11C10.301 17.11 10.2667 17.11 10.2323 17.11C10.1177 17.11 9.86562 18.2971 9.95729 18.3085C9.99167 18.3085 10.026 18.3085 10.0604 18.3085C10.026 18.5139 9.98021 18.7194 9.92292 18.9477L11.9167 18.7765C13.0625 18.6852 14.1969 18.5824 15.3312 18.4911C15.7208 18.5025 16.1104 18.5254 16.4885 18.5368L16.099 18.9819C14.9531 19.5755 13.8187 20.1804 12.6729 20.774H11.7333C11.6302 20.0435 11.6302 20.2717 11.676 20.8082H11.825H12.4323L12.6156 20.7968C12.5583 20.8196 12.501 20.8539 12.4437 20.8767C12.226 20.8767 11.9854 20.8767 11.7677 20.8881H11.699C11.7104 21.1278 11.699 21.0822 11.699 20.9794C11.699 21.0479 11.699 21.1278 11.7219 21.2077H11.8365C11.8365 21.2077 11.7677 21.242 11.7333 21.2648C11.7333 21.242 11.7333 21.2191 11.7333 21.2077H11.7219C11.7219 21.2077 11.7219 21.2534 11.7219 21.2648C11.7219 21.2648 11.7104 21.2648 11.699 21.2648C11.699 21.242 11.699 21.2191 11.699 21.1963H11.6073C11.6073 21.1963 11.5958 21.1963 11.6073 21.3219C11.5958 21.3219 11.5844 21.3333 11.5729 21.3447C11.4125 21.4246 11.2292 22.5432 11.2979 22.5432C11.4469 22.5432 11.5844 22.5432 11.7333 22.5432C11.7677 22.8856 11.8021 23.034 11.7562 22.5432H11.7677C11.7677 22.5432 11.7906 22.5432 11.8135 22.5432C11.8135 22.6459 11.825 22.7486 11.8365 22.8514L11.8708 22.8285C11.8708 22.7372 11.8479 22.6459 11.8365 22.5432H11.8594C11.8708 22.6573 11.8823 22.7486 11.8937 22.8171L11.974 22.7829L12.249 22.6345L12.4323 22.5432C12.4896 22.5432 12.5469 22.5432 12.6042 22.5432L12.2604 22.7258L11.9625 22.8742L11.8937 22.9084C11.8937 22.9655 11.9167 22.9769 11.9167 22.9084L12.0542 22.84L12.3406 22.6916L12.6271 22.5432C12.7646 22.5432 12.9021 22.5432 13.0396 22.5432C13.0281 22.6687 13.0281 22.7486 13.051 22.7486C13.0625 22.7486 13.074 22.7486 13.0969 22.7486C13.074 22.8285 13.074 22.8514 13.1083 22.7601C12.9937 23.1938 13.0625 22.9883 13.1083 22.8514C13.1083 22.8171 13.1198 22.7943 13.1312 22.7601C13.1312 22.7601 13.1198 22.8171 13.1083 22.8285C13.1083 22.8057 13.1198 22.7829 13.1312 22.7601C13.1312 22.7829 13.1083 22.8057 13.0969 22.84C13.074 22.9427 13.0396 23.0454 13.0052 23.1596C12.8448 23.7303 12.9479 23.4792 13.0281 23.2623H12.9937C12.9594 23.3422 12.9708 23.2851 13.0052 23.1596H13.074C13.1083 23.0797 13.1312 23.0454 13.0969 23.1596H13.1542L13.4979 23.1367L14.0937 23.1139H14.1281C14.1281 23.1139 14.1625 23.1824 14.1854 23.2052H14.151C14.151 23.2052 14.151 23.228 14.1625 23.2395H14.1969C14.3229 23.4563 14.4031 23.5933 14.449 23.6732C14.4719 23.7074 14.4833 23.7189 14.4948 23.7189C14.5406 23.7873 14.5177 23.7531 14.4948 23.6846L14.6437 23.6504L14.9531 23.5705L15.1937 23.5134C15.1937 23.5134 15.1937 23.502 15.1937 23.4906C14.9531 23.5476 14.724 23.6161 14.4833 23.6732C14.4146 23.5362 14.3 23.2965 14.4833 23.6047L14.6208 23.5705L15.2052 23.4221C15.2052 23.3536 15.2052 23.2737 15.2052 23.1938C15.2052 23.2737 15.2052 23.3422 15.2052 23.4107V23.4906V23.5134C15.2052 23.5819 15.2052 23.6504 15.2052 23.7189C15.2052 23.8102 15.2052 23.9243 15.2052 24.0385V24.0841C15.2052 24.0841 15.2052 24.164 15.2052 24.1983C15.2052 24.1983 15.2052 24.2782 15.2052 24.3352V24.3581C15.2052 24.3124 15.2052 24.2667 15.2052 24.1983L13.3833 24.164C13.3833 24.164 13.3948 24.0955 13.4062 24.0499H13.4979H13.8646H14.5865L15.2052 24.0727V24.0385L14.174 24.0156H13.5896L13.4406 24.0042C13.5781 23.2166 13.5094 23.4677 13.3833 24.027C13.3719 24.1526 13.349 24.2896 13.3833 24.2211C13.326 24.4494 13.349 24.2896 13.3719 24.1412C13.3604 24.2211 13.3375 24.3124 13.3146 24.4037H13.4406H13.7844C13.9906 24.4037 14.2083 24.4037 14.426 24.4151C14.0479 24.4494 13.6698 24.4836 13.2917 24.5179C13.2917 24.4722 13.3031 24.4265 13.3146 24.3923H13.2917C13.2917 24.3923 13.2802 24.4722 13.2687 24.5179C13.2687 24.5179 13.2802 24.4265 13.2917 24.3923H13.2687C13.2687 24.3923 13.2573 24.4836 13.2458 24.5293C13.2458 24.5293 13.2229 24.5293 13.2115 24.5293C13.0969 24.5293 12.8562 25.7278 12.9365 25.7278H13.0167C13.0052 25.8077 12.9937 25.8762 12.9937 25.9104C13.0052 25.8419 13.0167 25.7848 13.0281 25.7278C13.0281 25.7848 13.0052 25.8419 12.9937 25.9104C12.9937 25.9104 13.0167 25.7963 13.0281 25.7278H13.051C13.051 25.7278 13.0167 25.8419 12.9937 25.9104C12.9937 25.9104 12.9937 25.9104 12.9937 25.9218C12.9937 25.9218 12.9937 25.9104 12.9937 25.899H12.9823C12.9823 25.899 12.9823 25.9332 12.9823 25.9446V25.9789C12.9823 26.0131 12.9708 26.0474 12.9594 26.0816H12.7417C12.6615 26.4697 12.7073 26.0816 12.7187 25.9446H12.9823C12.9823 25.9446 12.9823 25.9218 12.9823 25.899H12.776C12.8677 25.1342 12.8104 25.3625 12.7187 25.899C12.7187 25.899 12.6844 26.0017 12.6385 26.2871C12.6615 26.1729 12.6844 26.0588 12.6958 25.9332C12.6729 26.0474 12.6615 26.1615 12.6385 26.2871H13.3719C13.1198 26.3327 12.8677 26.367 12.6271 26.3898C12.6271 26.3556 12.6385 26.3213 12.65 26.2871C12.65 26.2871 12.65 26.3556 12.6271 26.3898C12.6271 26.3441 12.6385 26.3099 12.65 26.2757C12.65 26.2186 12.6385 26.2757 12.6156 26.3898C12.6156 26.3898 12.5927 26.3898 12.5812 26.3898C12.4552 26.4126 12.226 27.5883 12.3062 27.5883H12.4208C12.4208 27.6568 12.4094 27.7024 12.3979 27.7595C12.3979 27.7024 12.4208 27.6454 12.4323 27.5883H12.4437C12.4208 27.7253 12.3979 27.828 12.3865 27.9079C12.3865 27.9079 12.3865 27.9878 12.3865 27.9992C12.3292 28.4101 12.3865 28.2047 12.4208 28.022C12.4208 27.9878 12.4208 27.9536 12.4208 27.9079H12.4094C12.4094 27.9079 12.4323 27.7938 12.4552 27.691C12.4552 27.691 12.4552 27.6225 12.4667 27.5883C12.6958 27.5883 12.925 27.5883 13.1656 27.5883L12.7187 27.6454L12.5469 27.6682H12.4552C12.4552 27.7595 12.4323 27.828 12.4323 27.8965H12.4437C12.4437 27.8965 12.4323 27.965 12.4208 28.0106C12.4208 28.1019 12.4208 28.1362 12.4323 28.0677L13.7042 27.8965C13.5896 28.2275 13.4521 28.9009 13.5323 28.9124C13.5667 28.9124 13.6125 28.9124 13.6469 28.9238C13.6354 29.0037 13.6354 29.0379 13.6469 29.0037C13.6469 28.9808 13.6469 28.9466 13.6583 28.9238H13.6812C13.6812 28.9466 13.6812 28.9694 13.6698 28.9808C13.6698 28.9808 13.6698 28.9352 13.6812 28.9238C13.7615 28.9352 13.8417 28.9466 13.9219 28.958L13.6698 28.9808C13.6583 29.0607 13.6354 29.1178 13.624 29.1749H13.6698L14.3917 29.0836L14.6667 29.0493C14.85 29.0722 15.0448 29.095 15.2281 29.1292L14.4719 29.2205L13.7156 29.3119H13.624C13.624 29.3119 13.624 29.3689 13.6125 29.3803H13.75L14.025 29.3347L15.125 29.1977L15.4458 29.1635C15.6177 29.1863 15.7781 29.2091 15.95 29.232C15.6292 29.2776 15.3083 29.3347 14.9875 29.3918L14.2312 29.426L13.5896 29.4602C13.5896 29.4602 13.5896 29.5059 13.5781 29.5287L14.426 29.4831C14.1396 29.5287 13.8417 29.5744 13.5552 29.62C13.5552 29.5972 13.5667 29.563 13.5781 29.5287H13.5552C13.5552 29.5287 13.5552 29.5972 13.5323 29.62C13.3375 29.6543 13.1427 29.6771 12.9594 29.7114L12.0656 29.757L10.6677 29.8369H10.576C10.576 29.8369 10.576 29.757 10.576 29.7228C10.576 29.8141 10.5531 29.9054 10.5417 29.9853V30.0994C10.5417 30.0994 10.5417 30.0994 10.5302 30.0994C10.5302 30.0652 10.5302 30.0195 10.5417 29.9739V29.9282C10.5417 29.9282 10.5302 30.031 10.5187 30.088C10.5187 30.088 10.5187 30.088 10.5073 30.088C10.3583 30.1793 10.1865 31.2751 10.2437 31.2751C10.2781 31.2751 10.324 31.2751 10.3583 31.2751C10.3583 31.2979 10.3583 31.3208 10.3583 31.355H10.3812C10.3698 31.492 10.3583 31.5947 10.3583 31.6518C10.3583 31.5833 10.3698 31.492 10.3812 31.4007C10.3812 31.3893 10.3812 31.3664 10.3812 31.355C10.3812 31.355 10.3812 31.3094 10.3812 31.2751C10.6219 31.2637 10.8625 31.2523 11.1031 31.2295L10.5187 31.3208L10.3812 31.3436C10.3812 31.3436 10.3812 31.3778 10.3812 31.3893C10.3812 31.5148 10.3812 31.5833 10.3812 31.5148L10.5531 31.492L10.9083 31.4349L11.5615 31.3322C11.5615 31.3322 11.5615 31.4007 11.5729 31.4692C11.5729 31.4121 11.5729 31.3778 11.5729 31.3322C11.5729 31.3322 11.5729 31.4235 11.5729 31.492C11.5729 31.492 11.5729 31.5262 11.5729 31.5491C11.5729 31.5491 11.5615 31.5719 11.55 31.5719C11.55 31.5719 11.55 31.5605 11.55 31.5491C11.55 31.5491 11.55 31.5719 11.55 31.5947C11.4125 31.8344 11.3094 32.7361 11.3323 32.7361C11.401 32.7361 11.4583 32.7247 11.5271 32.7133V32.7704H11.5385C11.5385 32.7704 11.5385 32.7361 11.5385 32.7133H11.55C11.55 32.7133 11.55 32.7476 11.55 32.759H11.5615V32.7019C11.676 32.6905 11.8021 32.6791 11.9281 32.6562L11.6875 32.7133L11.5615 32.7476C11.5615 32.816 11.5615 32.8845 11.5615 32.9644C11.5729 32.816 11.5958 32.6106 11.5958 32.9074L11.676 32.8845L12.0083 32.8046L12.0885 32.7818C12.0885 32.7247 12.0885 32.6791 12.0885 32.6448C12.0885 32.6448 12.0885 32.6905 12.0885 32.7361C12.0885 32.7361 12.0885 32.759 12.0885 32.7818C12.0885 32.7818 12.0885 32.8503 12.0885 32.8959C12.0885 32.8617 12.0885 32.816 12.0885 32.7818H12.1115C12.1115 32.7818 12.1115 32.8503 12.1115 32.8959H12.2375L12.3865 32.8731C12.3062 32.8959 12.226 32.9188 12.1458 32.9416H12.1C12.1 32.9416 12.1 32.953 12.1 32.9644C12.1 32.9644 12.0885 32.9644 12.0771 32.9758H12.0656C12.0656 32.9873 12.0656 32.9987 12.0656 33.0101C12.0656 33.0101 12.0656 33.0215 12.0542 33.0329V32.9758L11.9396 33.0101L11.5844 33.09L11.5156 33.1128C11.5156 33.1128 11.5156 33.1585 11.5156 33.1813L11.7677 33.1128L12.0542 33.0443C11.9167 33.3069 11.825 34.1629 11.8479 34.1629C11.9167 34.1629 11.9969 34.1515 12.0656 34.1401C12.0656 34.1743 12.0656 34.1858 12.0656 34.1858C12.0656 34.1743 12.0656 34.1629 12.0656 34.1401C12.0656 34.1401 12.0656 34.1401 12.0771 34.1401C12.0771 34.1401 12.0771 34.1515 12.0771 34.1629V34.1743C12.0771 34.1972 12.0771 34.22 12.0771 34.2428C11.676 34.2542 11.2865 34.2657 10.8854 34.2885H10.4958L10.3927 34.3113C10.3927 34.3227 10.3927 34.3341 10.3927 34.3456C10.3927 34.3456 10.3927 34.3456 10.3927 34.3684H10.6792L11.2521 34.3341C11.4698 34.3341 11.676 34.3227 11.8937 34.3113C11.5615 34.3912 11.2406 34.4825 10.9083 34.5624H10.4958L10.3698 34.5853C10.3698 34.6195 10.3698 34.6652 10.3698 34.6994H10.4042C10.4042 34.6994 10.3812 34.6994 10.3698 34.6994C10.3698 34.6766 10.3698 34.6423 10.3698 34.5853C10.3698 34.5054 10.3698 34.4255 10.3812 34.3456C10.3812 34.3456 10.3583 34.4825 10.3469 34.688V34.6994C10.3469 34.6081 10.3469 34.2657 10.3125 34.5967C10.3125 34.6195 10.3125 34.6652 10.3125 34.7108C10.3125 34.6652 10.3125 34.6309 10.3125 34.5967C10.3125 34.5624 10.3125 34.5738 10.2896 34.7222C10.1406 34.8364 9.98021 35.9093 10.0375 35.9093C10.1062 35.9093 10.175 35.9093 10.2437 35.9093C10.2437 35.9436 10.2437 35.9778 10.2437 36.012H10.2552C10.2552 36.012 10.2552 35.9436 10.2552 35.9093C10.2552 35.9093 10.2552 35.9778 10.2552 36.012H10.301L10.576 35.9321L10.7365 35.8865C11.0687 35.8865 11.3896 35.8637 11.7104 35.8522H11.676L10.4958 36.1604L10.3469 36.1947H10.324C10.324 36.1947 10.324 36.2403 10.324 36.2632L10.5187 36.2175L11.3208 36.012L12.0083 35.8408C12.2719 35.8408 12.5354 35.818 12.799 35.8066C12.1344 35.9664 11.4583 36.1376 10.7937 36.2974C10.6219 36.2974 10.45 36.2974 10.2896 36.2974C10.2896 36.2632 10.2896 36.2289 10.301 36.2061H10.2781C10.2781 36.2061 10.2781 36.2746 10.2781 36.2974H10.2552C10.2552 36.2974 10.2552 36.3431 10.2552 36.3545C10.2552 36.3545 10.2552 36.3545 10.2667 36.3545C10.2667 36.3773 10.2667 36.4001 10.2667 36.423C10.2667 36.4115 10.2667 36.3773 10.2667 36.3431C10.2667 36.3659 10.2667 36.4001 10.2667 36.423C10.0375 36.48 9.79687 36.5371 9.56771 36.5942H9.35C9.35 36.5942 9.35 36.6284 9.35 36.6512C9.35 36.6284 9.35 36.617 9.35 36.5942H9.31562V36.6627C9.31562 36.6627 9.31562 36.617 9.31562 36.5942C9.31562 36.5942 9.31562 36.5485 9.30417 36.6627C9.2125 36.6855 9.10937 37.1192 9.05208 37.4617H9.02917C8.92604 37.4731 8.63958 38.6259 8.75417 38.6602C8.78854 38.6602 8.82292 38.6602 8.84583 38.683C8.82292 38.7743 8.8 38.8314 8.84583 38.683C8.84583 38.683 8.86875 38.683 8.89167 38.683C8.83437 38.8999 8.8 39.0026 8.83437 38.9227C8.83437 38.9227 8.86875 38.7857 8.89167 38.683C9.075 38.7286 9.24687 38.7857 9.43021 38.8428L9.24687 38.8656L8.86875 38.9227H8.83437C8.81146 39.0026 8.81146 39.0254 8.83437 38.9683L8.96042 38.9455C9.14375 38.9227 9.33854 38.8999 9.52187 38.8656C10.1865 39.0711 10.8396 39.3108 11.4698 39.5733C12.0542 39.8244 12.6042 40.1212 13.0969 40.475C13.349 40.6577 13.5437 40.8745 13.6812 41.1485C13.624 41.217 13.5323 41.3083 13.3833 41.4338C11.3094 43.203 7.53958 43.7053 5.11042 44.6869C2.87604 45.5772 1.42083 46.6958 1.03125 48.8075C0.859375 49.7434 1.13437 50.5538 1.55833 51.2844C2.26875 52.4943 4.28542 54.4461 3.575 56.1583C3.47187 56.3865 3.35729 57.2883 3.40312 57.1855C4.57187 54.3434 3.34583 52.5399 2.02812 50.4169C1.67292 49.8462 0.9625 48.8303 1.48958 48.0313C1.97083 47.3008 2.91042 46.7871 3.68958 46.3876C5.40833 45.4973 7.29896 44.9723 9.08646 44.3787C11.1604 43.6939 13.6469 43.0661 14.025 40.8289C14.2083 39.7331 13.3719 38.9912 12.2719 38.4661C12.4208 38.4433 12.5812 38.4205 12.7417 38.409C12.925 38.5004 13.1083 38.5917 13.2802 38.6944C13.9104 39.151 14.8615 39.5048 14.8729 40.9088C14.6094 42.347 12.0542 43.7281 13.1656 43.0889C13.6812 42.7693 14.4604 42.2899 14.7927 41.3311C15.1823 40.3609 14.5406 39.5847 14.151 39.2651C13.7385 38.9227 13.2917 38.6487 12.8219 38.409C12.9823 38.3862 13.1542 38.3634 13.3146 38.3406L14.4719 38.1808L14.7698 38.1465H14.8385C14.8615 37.9753 14.8844 37.8155 14.9187 37.6899C14.8729 37.9981 14.8385 38.1922 14.8385 38.0894H14.7812L14.5635 38.1237L14.1281 38.1808L13.2802 38.2949C13.0969 38.3177 12.925 38.3406 12.7531 38.3634C12.6156 38.2949 12.4667 38.2264 12.3177 38.1579C12.3865 38.1579 12.4667 38.1351 12.5354 38.1351L13.876 37.9525L14.575 37.8612L14.7583 37.8383H14.85C14.9302 37.3475 14.7698 38.546 14.9302 37.4959C14.9417 37.4502 14.9531 37.3932 14.976 37.3361C14.9646 37.4502 14.9417 37.5644 14.9302 37.6671C14.9531 37.5416 14.9646 37.416 14.9875 37.3133C15.0333 37.1078 15.0677 36.8795 15.0906 36.7311L17.3708 36.1718L18.0927 36.0006L18.4594 35.9093L18.5281 35.8865V35.8294H18.4594L18.1844 35.9093L17.1073 36.1718C16.4198 36.3431 15.7552 36.5029 15.0792 36.6627V36.6284C15.0792 36.5599 15.1021 36.4914 15.1135 36.4344C15.7781 36.2746 16.4656 36.1148 17.1531 35.9436L18.1156 35.7153L18.3562 35.6582L18.4708 35.6354H18.5281C18.551 35.3386 18.5625 35.0989 18.5854 34.9049C18.6083 34.8135 18.6198 34.7108 18.6312 34.6309C18.6083 35.0532 18.574 35.5783 18.5396 35.9207C18.5396 36.0349 18.5969 35.3044 18.6312 34.6309C18.6542 34.4939 18.6542 34.3912 18.6427 34.357C18.6427 34.2657 18.6427 34.1972 18.6427 34.1401C18.6427 34.2086 18.6427 34.2771 18.6427 34.357C18.6427 34.357 18.6427 34.357 18.6312 34.357C18.6312 34.2428 18.6312 34.1858 18.6312 34.1515H18.6542V34.083C18.3906 34.1515 18.1271 34.22 17.8521 34.2771L16.924 34.3113C17.0385 34.2885 17.1417 34.2542 17.2562 34.2314L17.9667 34.0488L18.5052 34.026H18.6427V33.9917C18.6427 33.9461 18.6427 33.9118 18.6427 33.8662L19.5365 33.6379L20.6823 33.3525V33.227H20.6135L20.476 33.284L20.1896 33.3525L19.0667 33.6379C18.9292 33.6721 18.7917 33.7064 18.6542 33.7406V33.6949C19.2958 33.5351 19.926 33.3753 20.5562 33.2155C20.625 33.2041 20.6937 32.9987 20.7396 32.7704C20.7396 32.9987 20.7167 33.2155 20.7167 33.3525C20.7167 33.4324 20.7167 33.5009 20.7167 33.5466L20.5792 33.5808L20.2583 33.6607L19.0094 33.9803C18.8833 34.0031 18.7687 34.0374 18.6427 34.0716C18.6427 34.0944 18.6427 34.1059 18.6427 34.1401L19.6281 33.889L20.4875 33.6721L20.7052 33.6265C20.7052 34.3227 20.7281 34.083 20.751 33.5808C20.751 33.5808 20.751 33.5808 20.751 33.558C20.751 33.3753 20.7625 33.0443 20.774 32.7133C20.774 32.6791 20.7854 32.6448 20.7969 32.6106C20.7969 32.6905 20.7969 32.7818 20.7969 32.8503C20.7969 32.759 20.7969 32.6677 20.7969 32.5878C20.8198 32.4508 20.8427 32.3252 20.8427 32.2339L20.9917 32.1883C20.9917 32.1883 20.9917 32.1426 20.9917 32.1198L20.8427 32.154C20.8427 32.0855 20.8427 32.0285 20.8427 32.0285C20.8312 32.0285 20.8083 32.0285 20.7969 32.0285C20.7969 32.017 20.7969 31.9942 20.7969 31.9828L20.9115 31.9486L21.0719 31.9029C21.0719 31.6061 21.0719 31.355 21.0719 31.1496C21.0719 31.1153 21.0719 31.0811 21.0833 31.0468C21.0833 31.2066 21.0833 31.3893 21.0833 31.5947C21.0833 31.4349 21.0833 31.2409 21.0948 31.0126C21.1406 30.7615 21.1521 30.5332 21.1406 30.5332C21.1406 30.5332 21.1177 30.5332 21.1062 30.5332C21.1062 30.3962 21.1062 30.2478 21.1062 30.088H21.0948C21.0948 30.1679 21.0948 30.3163 21.0948 30.5332C21.0948 30.5332 21.0833 30.5332 21.0719 30.5332C21.0719 30.3277 21.0719 30.2364 21.0719 30.2022C21.0719 30.1679 21.0719 30.1223 21.0719 30.088H20.9917L20.0406 30.1908L19.8344 30.2136C19.8344 30.2136 19.8458 30.1565 19.8573 30.1223H19.8229C19.9146 29.7456 20.0865 28.9923 20.1667 28.5471H20.201C20.1323 28.8781 20.0292 29.3575 19.8802 30.0538C19.9833 29.6086 20.1208 28.9808 20.201 28.5471L21.7708 28.3645L22.8937 28.2275L23.4552 28.159L23.5927 28.1362C23.5125 28.6384 23.5125 28.7069 23.5583 28.5243C23.5583 28.5014 23.5583 28.433 23.5812 28.3188C23.5812 28.433 23.6385 28.1362 23.7073 27.7253L23.5354 27.7481L22.1146 27.9193L20.2812 28.1476C20.2812 28.1476 20.2583 28.2389 20.2469 28.296C20.2469 28.2389 20.2698 28.1818 20.2698 28.1476H20.2354C20.2354 28.1476 20.2583 28.0791 20.2698 28.0335C20.2698 28.0335 20.2698 28.0335 20.2927 28.0335C20.2927 28.0563 20.2927 28.1019 20.2812 28.1476C20.2812 28.1476 20.2927 28.0677 20.3042 28.0335C21.4156 27.8965 22.5385 27.7709 23.65 27.634C23.6844 27.634 23.7417 27.5084 23.776 27.36C23.776 27.4399 23.7531 27.5198 23.7302 27.6111C23.7531 27.5084 23.776 27.3943 23.7875 27.2915C23.7875 27.2459 23.8104 27.2002 23.8219 27.1546C23.7187 27.7253 23.5927 28.3188 23.5469 28.5357C23.5469 28.6498 23.6958 27.8851 23.8219 27.1431C23.8677 26.9491 23.9021 26.7551 23.9135 26.6067C23.9135 26.561 23.9365 26.5039 23.9365 26.4583C23.9365 26.4583 23.925 26.5496 23.9135 26.6067C23.9135 26.561 23.9135 26.5268 23.9135 26.5039C23.9135 26.4925 23.9135 26.4697 23.9135 26.4583C23.9135 26.4583 23.9135 26.424 23.9135 26.4126C23.9135 26.4126 23.925 26.3213 23.9365 26.2871H23.9479C23.9594 26.1958 23.9708 26.1159 23.9823 26.0588L23.5812 26.1159H23.1458H22.6875C23.0083 26.0702 23.3177 26.036 23.6385 25.9903H23.799H23.9823C23.9823 25.9675 23.9937 25.9561 24.0052 25.9675V25.9446C24.1885 25.9218 24.3833 25.8876 24.5667 25.8647C24.6125 25.8647 24.6698 25.7049 24.7271 25.4995C24.624 26.1159 24.5208 26.6752 24.6125 25.9903L24.4292 26.0131L24.074 26.0588H23.9937C23.9937 26.1273 23.9708 26.2072 23.9594 26.2985L24.2 26.2642L24.5667 26.2186C24.5667 26.2186 24.5552 26.3099 24.5437 26.3441H24.4177L24.0396 26.4126H23.9365C23.9365 26.4126 23.9365 26.4583 23.9365 26.4697C23.9479 26.4697 23.9594 26.4697 23.9708 26.4697L24.5437 26.3898C24.4865 26.7551 24.5094 26.6866 24.5667 26.4126C24.5667 26.4126 24.5781 26.3898 24.5896 26.3327H24.5781C24.6354 26.0474 24.7271 25.6022 24.7958 25.2027C24.8187 25.1228 24.8302 25.0543 24.8302 24.9858C24.8302 24.9744 24.8302 24.9516 24.8417 24.9402C24.75 25.5223 24.6354 26.1273 24.5896 26.3441H24.601C24.7156 25.7278 24.7844 25.2712 24.8531 24.9174C24.9104 24.7005 25.0135 24.3466 25.151 23.8102C25.025 24.2667 24.9333 24.5863 24.8646 24.8146C24.8646 24.7918 24.8646 24.7804 24.8646 24.7576V24.7804C24.8646 24.8032 24.8646 24.8146 24.8646 24.8375C24.8646 24.8489 24.8646 24.8717 24.8531 24.8717C24.8531 24.8945 24.8531 24.9288 24.8417 24.9516C24.8417 24.9288 24.8417 24.9059 24.8417 24.8945C24.8417 24.8945 24.8417 24.8831 24.8417 24.8717C24.8417 24.8489 24.8417 24.826 24.8417 24.8032C24.8417 24.8032 24.8417 24.7804 24.8417 24.769C24.8531 24.6777 24.876 24.5863 24.8875 24.4836C24.8875 24.4836 24.8875 24.4836 24.8875 24.5064C24.8875 24.4265 24.9104 24.3695 24.9104 24.3238C24.9104 24.3238 24.9104 24.3124 24.9104 24.301C24.9104 24.3581 24.899 24.4265 24.8875 24.4836C24.8875 24.4722 24.8875 24.4494 24.899 24.438C24.899 24.3695 24.9219 24.3124 24.9333 24.2553C25.0021 24.0499 25.0708 23.7531 25.1052 23.5362C25.1052 23.5134 25.1052 23.4906 25.1167 23.4792H25.151C25.0708 23.8102 24.9677 24.1983 24.899 24.438C24.8875 24.5179 24.8646 24.632 24.8531 24.7347C24.9333 24.4608 25.0708 23.9471 25.1969 23.4677H25.2198C25.1854 23.5819 25.1625 23.6846 25.1396 23.7873C25.1625 23.696 25.1969 23.5819 25.2312 23.4677H25.3917C25.2542 24.2896 25.3229 24.027 25.4604 23.4107L25.2427 23.4335C25.2427 23.4335 25.2427 23.4107 25.2542 23.3878H25.3573L25.449 23.3764H25.4604C25.5062 23.171 25.5521 22.9541 25.5979 22.7144C25.5406 23.0112 25.4948 23.2509 25.4719 23.365C25.5177 23.1253 25.5635 22.9084 25.5979 22.7144H25.701H25.9875H26.1365V22.7486C26.1365 22.6916 26.1594 22.6345 26.1594 22.5888H26.1937C26.2052 22.5204 26.2281 22.4519 26.251 22.3606C26.1708 22.6573 26.3312 21.8469 26.2167 22.2921H26.0677H25.7583H25.701C25.701 22.2921 25.7125 22.2122 25.724 22.1779L25.8385 22.1551C25.999 22.1551 26.1479 22.1551 26.3083 22.1551C26.2969 22.235 26.274 22.3035 26.2625 22.372C26.2625 22.3377 26.274 22.2921 26.2969 22.235C26.2969 22.2122 26.2969 22.1779 26.3198 22.1551C26.3198 22.1551 26.3083 22.2122 26.2969 22.235C26.2625 22.4062 26.2281 22.5318 26.2052 22.6231C26.2052 22.6687 26.251 22.4633 26.3198 22.1551H26.3312C26.3312 22.1551 26.3656 22.1209 26.3885 22.0752L27.9583 21.8013L28.5542 21.6985L28.7031 21.6757C28.749 21.4132 28.7948 21.1849 28.8406 20.9566H29.425C29.425 21.0936 29.4135 21.1621 29.4135 21.1621C29.4594 21.1621 29.4937 21.1621 29.5281 21.1392C29.5854 22.0752 29.6542 22.8285 29.6198 21.7442L29.9062 21.6985L30.4677 21.6072L31.6021 21.4132C34.6156 20.9109 37.5948 20.3973 40.5396 19.9065C40.3792 21.0936 40.574 20.0777 40.7458 19.0048L41.2042 18.9705L41.9031 18.9249H42.075L42.1208 18.9134C42.476 18.7422 41.376 19.2901 42.9344 18.5254L42.9917 18.4569L43.2323 18.1943L43.6906 17.5437L43.7365 17.4981L44.1948 17.4296C45.9708 17.1785 47.6667 16.9388 49.3052 16.6991L49.6146 16.6534L49.7635 16.6306L50.7604 15.7631L53.1094 15.0326L53.5333 14.9983H53.6365C53.625 15.0668 53.6823 14.7472 53.751 14.3363L58.2083 14.1194L58.3573 14.2907Z" fill="#1D1D1B"></path>
</svg><style>@media (prefers-color-scheme: light) { :root { filter: none; } }
@media (prefers-color-scheme: dark) { :root { filter: none; } }
</style></svg>